{
.appVersion = "1264";
copyright = "Copyright 2019 The Tomorrow Project Authors (https://github.com/MonicaRizzolli/Tomorrow)";
customParameters = (
{
name = panose;
value = (
0,
0,
2,
0,
0,
0,
0,
0,
0,
0
);
},
{
name = unicodeRanges;
value = (
0,
1,
2,
29
);
},
{
name = blueScale;
value = 0.037;
},
{
name = glyphOrder;
value = (
.notdef,
CR,
space,
A,
Aacute,
Abreve,
uni1EAE,
uni1EB6,
uni1EB0,
uni1EB2,
uni1EB4,
Acircumflex,
uni1EA4,
uni1EAC,
uni1EA6,
uni1EA8,
uni1EAA,
uni0200,
Adieresis,
uni1EA0,
Agrave,
uni1EA2,
uni0202,
Amacron,
Aogonek,
Aring,
Aringacute,
Atilde,
AE,
AEacute,
B,
C,
Cacute,
Ccaron,
Ccedilla,
Ccircumflex,
Cdotaccent,
D,
uni01C4,
Eth,
Dcaron,
Dcroat,
uni01C5,
E,
Eacute,
Ebreve,
Ecaron,
Ecircumflex,
uni1EBE,
uni1EC6,
uni1EC0,
uni1EC2,
uni1EC4,
uni0204,
Edieresis,
Edotaccent,
uni1EB8,
Egrave,
uni1EBA,
uni0206,
Emacron,
Eogonek,
uni1EBC,
F,
G,
Gbreve,
Gcaron,
Gcircumflex,
uni0122,
Gdotaccent,
H,
Hbar,
Hcircumflex,
I,
Iacute,
Ibreve,
Icircumflex,
uni0208,
Idieresis,
Idotaccent,
uni1ECA,
Igrave,
uni1EC8,
uni020A,
Imacron,
Iogonek,
Itilde,
J,
Jcircumflex,
K,
uni0136,
L,
uni01C7,
Lacute,
Lcaron,
uni013B,
Ldot,
uni01C8,
Lslash,
M,
N,
uni01CA,
Nacute,
Ncaron,
uni0145,
Eng,
uni01CB,
Ntilde,
O,
Oacute,
Obreve,
Ocircumflex,
uni1ED0,
uni1ED8,
uni1ED2,
uni1ED4,
uni1ED6,
uni020C,
Odieresis,
uni022A,
uni0230,
uni1ECC,
Ograve,
uni1ECE,
Ohorn,
uni1EDA,
uni1EE2,
uni1EDC,
uni1EDE,
uni1EE0,
Ohungarumlaut,
uni020E,
Omacron,
uni01EA,
Oslash,
Oslashacute,
Otilde,
uni022C,
OE,
P,
Thorn,
Q,
R,
Racute,
Rcaron,
uni0156,
uni0210,
uni0212,
S,
Sacute,
Scaron,
Scedilla,
Scircumflex,
uni0218,
uni1E9E,
uni018F,
T,
Tbar,
Tcaron,
uni0162,
uni021A,
U,
Uacute,
Ubreve,
Ucircumflex,
uni0214,
Udieresis,
uni1EE4,
Ugrave,
uni1EE6,
Uhorn,
uni1EE8,
uni1EF0,
uni1EEA,
uni1EEC,
uni1EEE,
Uhungarumlaut,
uni0216,
Umacron,
Uogonek,
Uring,
Utilde,
V,
W,
Wacute,
Wcircumflex,
Wdieresis,
Wgrave,
X,
Y,
Yacute,
Ycircumflex,
Ydieresis,
uni1EF4,
Ygrave,
uni1EF6,
uni0232,
uni1EF8,
Z,
Zacute,
Zcaron,

glyphs = (
{
glyphname = .notdef;
lastChange = "2019-09-03 16:17:47 +0000";
layers = (
{
hints = (
{
horizontal = 1;
place = "{223.25, 22}";
type = Stem;
},
{
horizontal = 1;
place = "{385, 137.5}";
type = Stem;
},
{
place = "{95, 22}";
type = Stem;
},
{
place = "{232.5, 22}";
type = Stem;
},
{
place = "{426, 22}";
type = Stem;
},
{
place = "{563.5, 22}";
type = Stem;
}
);
layerId = "0A44E515-E956-4F85-8EFC-D1601816D0DE";
paths = (
{
closed = 1;
nodes = (
"117 103.37 LINE",
"117 139.75 LINE",
"195 223.25 LINE",
"485.5 223.25 LINE",
"563.5 139.75 LINE",
"563.5 103.37 LINE",
"585.5 103.37 LINE",
"585.5 145.25 LINE",
"492 245.25 LINE",
"188.5 245.25 LINE",
"95 145.25 LINE",
"95 103.37 LINE"
);
},
{
closed = 1;
nodes = (
"254.5 385 LINE",
"254.5 522.5 LINE",
"232.5 522.5 LINE",
"232.5 385 LINE"
);
},
{
closed = 1;
nodes = (
"448 385 LINE",
"448 522.5 LINE",
"426 522.5 LINE",
"426 385 LINE"
);
}
);
width = 681;
}
);
note = .notdef;
},
{
glyphname = A;
lastChange = "2019-09-03 16:17:47 +0000";
layers = (
{
hints = (
{
horizontal = 1;
place = "{216.75, 22}";
type = Stem;
},
{
horizontal = 1;
place = "{715, 22}";
type = Stem;
},
{
place = "{20, 586.75}";
type = Stem;
}
);
layerId = "0A44E515-E956-4F85-8EFC-D1601816D0DE";
paths = (
{
closed = 1;
nodes = (
"42 0 LINE",
"121.35 216.75 LINE",
"505.99 216.75 LINE",
"585.37 0 LINE",
"606.75 0 LINE",
"338 737 LINE",
"289.5 737 LINE",
"20 0 LINE"
);
},
{
closed = 1;
nodes = (
"303.75 715 LINE",
"323.5 715 LINE",
"497.93 238.75 LINE",
"129.4 238.75 LINE"
);
}
);
width = 627;
}
);
leftKerningGroup = A;
note = A;
rightKerningGroup = A;
unicode = 0041;
},
{
glyphname = Aacute;
lastChange = "2019-09-03 16:17:47 +0000";
layers = (
{
hints = (
{
horizontal = 1;
place = "{216.75, 22}";
type = Stem;
},
{
horizontal = 1;
place = "{715, 22}";
type = Stem;
},
{
place = "{20, 586.75}";
type = Stem;
}
);
layerId = "0A44E515-E956-4F85-8EFC-D1601816D0DE";
paths = (
{
closed = 1;
nodes = (
"42 0 LINE",
"121.35 216.75 LINE",
"505.99 216.75 LINE",
"585.37 0 LINE",
"606.75 0 LINE",
"338 737 LINE",
"289.5 737 LINE",
"20 0 LINE"
);
},
{
closed = 1;
nodes = (
"303.75 715 LINE",
"323.5 715 LINE",
"497.93 238.75 LINE",
"129.4 238.75 LINE"
);
},
{
closed = 1;
nodes = (
"326.12 794.25 LINE",
"420.75 932.75 LINE",
"390 932.75 LINE",
"305.25 794.25 LINE"
);
}
);
width = 627;
}
);
leftKerningGroup = A;
note = Aacute;
rightKerningGroup = A;
unicode = 00C1;
},
{
glyphname = Abreve;
lastChange = "2019-09-03 16:17:47 +0000";
layers = (
{
hints = (
{
horizontal = 1;
place = "{216.75, 22}";
type = Stem;
},
{
horizontal = 1;
place = "{715, 22}";
type = Stem;
},
{
horizontal = 1;
place = "{794.25, 20.87}";
type = Stem;
},
{
place = "{201.5, 21}";
type = Stem;
},
{
place = "{405, 21}";
type = Stem;
}
);
layerId = "0A44E515-E956-4F85-8EFC-D1601816D0DE";
paths = (
{
closed = 1;
nodes = (
"42 0 LINE",
"121.35 216.75 LINE",
"505.99 216.75 LINE",
"585.37 0 LINE",
"606.75 0 LINE",
"338 737 LINE",
"289.5 737 LINE",
"20 0 LINE"
);
},
{
closed = 1;
nodes = (
"303.75 715 LINE",
"323.5 715 LINE",
"497.93 238.75 LINE",
"129.4 238.75 LINE"
);
},
{
closed = 1;
nodes = (
"376.5 794.25 LINE",
"426 843.75 LINE",
"426 910.75 LINE",
"405 910.75 LINE",
"405 850.25 LINE",
"369.87 815.12 LINE",
"257.62 815.12 LINE",
"222.5 850.25 LINE",
"222.5 910.75 LINE",
"201.5 910.75 LINE",
"201.5 843.75 LINE",
"251 794.25 LINE"
);
}
);
width = 627;
}
);
leftKerningGroup = A;
note = Abreve;
rightKerningGroup = A;
unicode = 0102;
},
{
glyphname = uni1EAE;
lastChange = "2019-09-03 16:17:47 +0000";
layers = (
{
hints = (
{
horizontal = 1;
place = "{216.75, 22}";
type = Stem;
},
{
horizontal = 1;
place = "{715, 22}";
type = Stem;
},
{
horizontal = 1;
place = "{794.25, 20.87}";
type = Stem;
},
{
place = "{201.5, 21}";
type = Stem;
},
{
place = "{405, 21}";
type = Stem;
}
);
layerId = "0A44E515-E956-4F85-8EFC-D1601816D0DE";
paths = (
{
closed = 1;
nodes = (
"42 0 LINE",
"121.35 216.75 LINE",
"505.99 216.75 LINE",
"585.37 0 LINE",
"606.75 0 LINE",
"338 737 LINE",
"289.5 737 LINE",
"20 0 LINE"
);
},
{
closed = 1;
nodes = (
"303.75 715 LINE",
"323.5 715 LINE",
"497.93 238.75 LINE",
"129.4 238.75 LINE"
);
},
{
closed = 1;
nodes = (
"376.5 794.25 LINE",
"426 843.75 LINE",
"426 910.75 LINE",
"405 910.75 LINE",
"405 850.25 LINE",
"369.87 815.12 LINE",
"257.62 815.12 LINE",
"222.5 850.25 LINE",
"222.5 910.75 LINE",
"201.5 910.75 LINE",
"201.5 843.75 LINE",
"251 794.25 LINE"
);
},
{
closed = 1;
nodes = (
"323.75 931.75 LINE",
"418.37 1070.25 LINE",
"387.62 1070.25 LINE",
"302.87 931.75 LINE"
);
}
);
width = 627;
}
);
leftKerningGroup = A;
note = uni1EAE;
rightKerningGroup = A;
unicode = 1EAE;
},
{
glyphname = uni1EB6;
lastChange = "2019-09-03 16:17:47 +0000";
layers = (
{
hints = (
{
horizontal = 1;
place = "{-160.63, 103.38}";
type = Stem;
},
{
horizontal = 1;
place = "{216.75, 22}";
type = Stem;
},
{
horizontal = 1;
place = "{715, 22}";
type = Stem;
},
{
horizontal = 1;
place = "{794.25, 20.87}";
type = Stem;
},
{
place = "{201.5, 21}";
type = Stem;
},
{
place = "{302.37, 22}";
type = Stem;
},
{
place = "{405, 21}";
type = Stem;
}
);
layerId = "0A44E515-E956-4F85-8EFC-D1601816D0DE";
paths = (
{
closed = 1;
nodes = (
"42 0 LINE",
"121.35 216.75 LINE",
"505.99 216.75 LINE",
"585.37 0 LINE",
"606.75 0 LINE",
"338 737 LINE",
"289.5 737 LINE",
"20 0 LINE"
);
},
{
closed = 1;
nodes = (
"324.37 -160.63 LINE",
"324.37 -57.25 LINE",
"302.37 -57.25 LINE",
"302.37 -160.63 LINE"
);
},
{
closed = 1;
nodes = (
"303.75 715 LINE",
"323.5 715 LINE",
"497.93 238.75 LINE",
"129.4 238.75 LINE"
);
},
{
closed = 1;
nodes = (
"376.5 794.25 LINE",
"426 843.75 LINE",
"426 910.75 LINE",
"405 910.75 LINE",
"405 850.25 LINE",
"369.87 815.12 LINE",
"257.62 815.12 LINE",
"222.5 850.25 LINE",
"222.5 910.75 LINE",
"201.5 910.75 LINE",
"201.5 843.75 LINE",
"251 794.25 LINE"
);
}
);
width = 627;
}
);
leftKerningGroup = A;
note = uni1EB6;
rightKerningGroup = A;
unicode = 1EB6;
},
{
glyphname = uni1EB0;
lastChange = "2019-09-03 16:17:47 +0000";
layers = (
{
hints = (
{
horizontal = 1;
place = "{216.75, 22}";
type = Stem;
},
{
horizontal = 1;
place = "{715, 22}";
type = Stem;
},
{
horizontal = 1;
place = "{794.25, 20.87}";
type = Stem;
},
{
place = "{201.5, 21}";
type = Stem;
},
{
place = "{405, 21}";
type = Stem;
}
);
layerId = "0A44E515-E956-4F85-8EFC-D1601816D0DE";
paths = (
{
closed = 1;
nodes = (
"42 0 LINE",
"121.35 216.75 LINE",
"505.99 216.75 LINE",
"585.37 0 LINE",
"606.75 0 LINE",
"338 737 LINE",
"289.5 737 LINE",
"20 0 LINE"
);
},
{
closed = 1;
nodes = (
"303.75 715 LINE",
"323.5 715 LINE",
"497.93 238.75 LINE",
"129.4 238.75 LINE"
);
},
{
closed = 1;
nodes = (
"376.5 794.25 LINE",
"426 843.75 LINE",
"426 910.75 LINE",
"405 910.75 LINE",
"405 850.25 LINE",
"369.87 815.12 LINE",
"257.62 815.12 LINE",
"222.5 850.25 LINE",
"222.5 910.75 LINE",
"201.5 910.75 LINE",
"201.5 843.75 LINE",
"251 794.25 LINE"
);
},
{
closed = 1;
nodes = (
"328.5 931.75 LINE",
"243.75 1070.25 LINE",
"213 1070.25 LINE",
"307.62 931.75 LINE"
);
}
);
width = 627;
}
);
leftKerningGroup = A;
note = uni1EB0;
rightKerningGroup = A;
unicode = 1EB0;
},
{
glyphname = uni1EB2;
lastChange = "2019-09-03 16:17:47 +0000";
layers = (
{
hints = (
{
horizontal = 1;
place = "{216.75, 22}";
type = Stem;
},
{
horizontal = 1;
place = "{715, 22}";
type = Stem;
},
{
horizontal = 1;
place = "{794.25, 20.87}";
type = Stem;
},
{
horizontal = 1;
place = "{931.75, 36.75}";
type = Stem;
},
{
horizontal = 1;
place = "{1098.5, 21.62}";
type = Stem;
},
{
place = "{201.5, 21}";
type = Stem;
},
{
place = "{302.75, 21.37}";
type = Stem;
},
{
place = "{370.25, 21.5}";
type = Stem;
},
{
place = "{405, 21}";
type = Stem;
}
);
layerId = "0A44E515-E956-4F85-8EFC-D1601816D0DE";
paths = (
{
closed = 1;
nodes = (
"42 0 LINE",
"121.35 216.75 LINE",
"505.99 216.75 LINE",
"585.37 0 LINE",
"606.75 0 LINE",
"338 737 LINE",
"289.5 737 LINE",
"20 0 LINE"
);
},
{
closed = 1;
nodes = (
"303.75 715 LINE",
"323.5 715 LINE",
"497.93 238.75 LINE",
"129.4 238.75 LINE"
);
},
{
closed = 1;
nodes = (
"376.5 794.25 LINE",
"426 843.75 LINE",
"426 910.75 LINE",
"405 910.75 LINE",
"405 850.25 LINE",
"369.87 815.12 LINE",
"257.62 815.12 LINE",
"222.5 850.25 LINE",
"222.5 910.75 LINE",
"201.5 910.75 LINE",
"201.5 843.75 LINE",
"251 794.25 LINE"
);
},
{
closed = 1;
nodes = (
"324.12 931.75 LINE",
"324.12 960.25 LINE",
"391.75 1026.62 LINE",
"391.75 1086.5 LINE",
"359.62 1120.12 LINE",
"286 1120.12 LINE",
"248.37 1079.87 LINE",
"264.12 1065.12 LINE",
"295.37 1098.5 LINE",
"350.62 1098.5 LINE",
"370.25 1077.87 LINE",
"370.25 1034.87 LINE",
"302.75 968.5 LINE",
"302.75 931.75 LINE"
);
}
);
width = 627;
}
);
leftKerningGroup = A;
note = uni1EB2;
rightKerningGroup = A;
unicode = 1EB2;
},
{
glyphname = uni1EB4;
lastChange = "2019-09-03 16:17:47 +0000";
layers = (
{
hints = (
{
horizontal = 1;
place = "{216.75, 22}";
type = Stem;
},
{
horizontal = 1;
place = "{715, 22}";
type = Stem;
},
{
horizontal = 1;
place = "{794.25, 20.87}";
type = Stem;
},
{
horizontal = 1;
place = "{931.75, 20.87}";
type = Stem;
},
{
horizontal = 1;
place = "{1008.75, 20.87}";
type = Stem;
},
{
place = "{170.5, 16.49}";
type = Stem;
},
{
place = "{201.5, 21}";
type = Stem;
},
{
place = "{405, 21}";
type = Stem;
},
{
place = "{439.99, 16.51}";
type = Stem;
}
);
layerId = "0A44E515-E956-4F85-8EFC-D1601816D0DE";
paths = (
{
closed = 1;
nodes = (
"42 0 LINE",
"121.35 216.75 LINE",
"505.99 216.75 LINE",
"585.37 0 LINE",
"606.75 0 LINE",
"338 737 LINE",
"289.5 737 LINE",
"20 0 LINE"
);
},
{
closed = 1;
nodes = (
"303.75 715 LINE",
"323.5 715 LINE",
"497.93 238.75 LINE",
"129.4 238.75 LINE"
);
},
{
closed = 1;
nodes = (
"376.5 794.25 LINE",
"426 843.75 LINE",
"426 910.75 LINE",
"405 910.75 LINE",
"405 850.25 LINE",
"369.87 815.12 LINE",
"257.62 815.12 LINE",
"222.5 850.25 LINE",
"222.5 910.75 LINE",
"201.5 910.75 LINE",
"201.5 843.75 LINE",
"251 794.25 LINE"
);
},
{
closed = 1;
nodes = (
"185.37 931.75 LINE",
"188.62 972.37 LINE",
"228.25 1008.75 LINE",
"277.75 1008.75 LINE",
"353.62 931.75 LINE",
"407.5 931.75 LINE",
"456 981.25 LINE",
"457 1029.62 LINE",
"441.62 1029.62 LINE",
"438.37 988.87 LINE",
"398.75 952.62 LINE",
"362.5 952.62 LINE",
"286.5 1029.62 LINE",
"219.5 1029.62 LINE",
"171 980.12 LINE",
"170 931.75 LINE"
);
}
);
width = 627;
}
);
leftKerningGroup = A;
note = uni1EB4;
rightKerningGroup = A;
unicode = 1EB4;
},
{
glyphname = Acircumflex;
lastChange = "2019-09-03 16:17:47 +0000";
layers = (
{
hints = (
{
horizontal = 1;
place = "{216.75, 22}";
type = Stem;
},
{
horizontal = 1;
place = "{715, 22}";
type = Stem;
},
{
horizontal = 1;
place = "{911.87, 19.88}";
type = Stem;
},
{
place = "{20, 586.75}";
type = Stem;
}
);
layerId = "0A44E515-E956-4F85-8EFC-D1601816D0DE";
paths = (
{
closed = 1;
nodes = (
"42 0 LINE",
"121.35 216.75 LINE",
"505.99 216.75 LINE",
"585.37 0 LINE",
"606.75 0 LINE",
"338 737 LINE",
"289.5 737 LINE",
"20 0 LINE"
);
},
{
closed = 1;
nodes = (
"303.75 715 LINE",
"323.5 715 LINE",
"497.93 238.75 LINE",
"129.4 238.75 LINE"
);
},
{
closed = 1;
nodes = (
"208.12 794.25 LINE",
"305 911.87 LINE",
"322.5 911.87 LINE",
"419.37 794.25 LINE",
"441.37 794.25 LINE",
"336.87 931.75 LINE",
"290.62 931.75 LINE",
"186.12 794.25 LINE"
);
}
);
width = 627;
}
);
leftKerningGroup = A;
note = Acircumflex;
rightKerningGroup = A;
unicode = 00C2;
},
{
glyphname = uni1EA4;
lastChange = "2019-09-03 16:17:47 +0000";
layers = (
{
hints = (
{
horizontal = 1;
place = "{216.75, 22}";
type = Stem;
},
{
horizontal = 1;
place = "{715, 22}";
type = Stem;
},
{
horizontal = 1;
place = "{911.87, 19.88}";
type = Stem;
},
{
place = "{20, 586.75}";
type = Stem;
}
);
layerId = "0A44E515-E956-4F85-8EFC-D1601816D0DE";
paths = (
{
closed = 1;
nodes = (
"42 0 LINE",
"121.35 216.75 LINE",
"505.99 216.75 LINE",
"585.37 0 LINE",
"606.75 0 LINE",
"338 737 LINE",
"289.5 737 LINE",
"20 0 LINE"
);
},
{
closed = 1;
nodes = (
"303.75 715 LINE",
"323.5 715 LINE",
"497.93 238.75 LINE",
"129.4 238.75 LINE"
);
},
{
closed = 1;
nodes = (
"208.12 794.25 LINE",
"305 911.87 LINE",
"322.5 911.87 LINE",
"419.37 794.25 LINE",
"441.37 794.25 LINE",
"336.87 931.75 LINE",
"290.62 931.75 LINE",
"186.12 794.25 LINE"
);
},
{
closed = 1;
nodes = (
"461 859.75 LINE",
"555.62 998.25 LINE",
"524.87 998.25 LINE",
"440.12 859.75 LINE"
);
}
);
width = 627;
}
);
leftKerningGroup = A;
note = uni1EA4;
rightKerningGroup = A;
unicode = 1EA4;
},
{
glyphname = uni1EAC;
lastChange = "2019-09-03 16:17:47 +0000";
layers = (
{
hints = (
{
horizontal = 1;
place = "{-160.63, 103.38}";
type = Stem;
},
{
horizontal = 1;
place = "{216.75, 22}";
type = Stem;
},
{
horizontal = 1;
place = "{715, 22}";
type = Stem;
},
{
horizontal = 1;
place = "{911.87, 19.88}";
type = Stem;
},
{
place = "{302.37, 22}";
type = Stem;
}
);
layerId = "0A44E515-E956-4F85-8EFC-D1601816D0DE";
paths = (
{
closed = 1;
nodes = (
"42 0 LINE",
"121.35 216.75 LINE",
"505.99 216.75 LINE",
"585.37 0 LINE",
"606.75 0 LINE",
"338 737 LINE",
"289.5 737 LINE",
"20 0 LINE"
);
},
{
closed = 1;
nodes = (
"324.37 -160.63 LINE",
"324.37 -57.25 LINE",
"302.37 -57.25 LINE",
"302.37 -160.63 LINE"
);
},
{
closed = 1;
nodes = (
"303.75 715 LINE",
"323.5 715 LINE",
"497.93 238.75 LINE",
"129.4 238.75 LINE"
);
},
{
closed = 1;
nodes = (
"208.12 794.25 LINE",
"305 911.87 LINE",
"322.5 911.87 LINE",
"419.37 794.25 LINE",
"441.37 794.25 LINE",
"336.87 931.75 LINE",
"290.62 931.75 LINE",
"186.12 794.25 LINE"
);
}
);
width = 627;
}
);
leftKerningGroup = A;
note = uni1EAC;
rightKerningGroup = A;
unicode = 1EAC;
},
{
glyphname = uni1EA6;
lastChange = "2019-09-03 16:17:47 +0000";
layers = (
{
hints = (
{
horizontal = 1;
place = "{216.75, 22}";
type = Stem;
},
{
horizontal = 1;
place = "{715, 22}";
type = Stem;
},
{
horizontal = 1;
place = "{911.87, 19.88}";
type = Stem;
},
{
place = "{20, 586.75}";
type = Stem;
}
);
layerId = "0A44E515-E956-4F85-8EFC-D1601816D0DE";
paths = (
{
closed = 1;
nodes = (
"42 0 LINE",
"121.35 216.75 LINE",
"505.99 216.75 LINE",
"585.37 0 LINE",
"606.75 0 LINE",
"338 737 LINE",
"289.5 737 LINE",
"20 0 LINE"
);
},
{
closed = 1;
nodes = (
"303.75 715 LINE",
"323.5 715 LINE",
"497.93 238.75 LINE",
"129.4 238.75 LINE"
);
},
{
closed = 1;
nodes = (
"198.75 859.75 LINE",
"114 998.25 LINE",
"83.25 998.25 LINE",
"177.87 859.75 LINE"
);
},
{
closed = 1;
nodes = (
"208.12 794.25 LINE",
"305 911.87 LINE",
"322.5 911.87 LINE",
"419.37 794.25 LINE",
"441.37 794.25 LINE",
"336.87 931.75 LINE",
"290.62 931.75 LINE",
"186.12 794.25 LINE"
);
}
);
width = 627;
}
);
leftKerningGroup = A;
note = uni1EA6;
rightKerningGroup = A;
unicode = 1EA6;
},
{
glyphname = uni1EA8;
lastChange = "2019-09-03 16:17:47 +0000";
layers = (
{
hints = (
{
horizontal = 1;
place = "{216.75, 22}";
type = Stem;
},
{
horizontal = 1;
place = "{715, 22}";
type = Stem;
},
{
horizontal = 1;
place = "{911.87, 19.88}";
type = Stem;
},
{
horizontal = 1;
place = "{1026.5, 21.62}";
type = Stem;
},
{
place = "{427.75, 21.37}";
type = Stem;
},
{
place = "{495.25, 21.5}";
type = Stem;
},
{
horizontal = 1;
place = "{859.75, 36.75}";
type = Stem;
}
);
layerId = "0A44E515-E956-4F85-8EFC-D1601816D0DE";
paths = (
{
closed = 1;
nodes = (
"42 0 LINE",
"121.35 216.75 LINE",
"505.99 216.75 LINE",
"585.37 0 LINE",
"606.75 0 LINE",
"338 737 LINE",
"289.5 737 LINE",
"20 0 LINE"
);
},
{
closed = 1;
nodes = (
"303.75 715 LINE",
"323.5 715 LINE",
"497.93 238.75 LINE",
"129.4 238.75 LINE"
);
},
{
closed = 1;
nodes = (
"208.12 794.25 LINE",
"305 911.87 LINE",
"322.5 911.87 LINE",
"419.37 794.25 LINE",
"441.37 794.25 LINE",
"336.87 931.75 LINE",
"290.62 931.75 LINE",
"186.12 794.25 LINE"
);
},
{
closed = 1;
nodes = (
"449.12 859.75 LINE",
"449.12 888.25 LINE",
"516.75 954.62 LINE",
"516.75 1014.5 LINE",
"484.62 1048.12 LINE",
"411 1048.12 LINE",
"373.37 1007.87 LINE",
"389.12 993.12 LINE",
"420.37 1026.5 LINE",
"475.62 1026.5 LINE",
"495.25 1005.87 LINE",
"495.25 962.87 LINE",
"427.75 896.5 LINE",
"427.75 859.75 LINE"
);
}
);
width = 627;
}
);
leftKerningGroup = A;
note = uni1EA8;
rightKerningGroup = A;
unicode = 1EA8;
},
{
glyphname = uni1EAA;
lastChange = "2019-09-03 16:17:47 +0000";
layers = (
{
hints = (
{
horizontal = 1;
place = "{216.75, 22}";
type = Stem;
},
{
horizontal = 1;
place = "{715, 22}";
type = Stem;
},
{
horizontal = 1;
place = "{952.87, 20.88}";
type = Stem;
},
{
horizontal = 1;
place = "{1029.87, 20.88}";
type = Stem;
},
{
place = "{179.75, 16.49}";
type = Stem;
},
{
place = "{449.24, 16.51}";
type = Stem;
},
{
horizontal = 1;
place = "{911.87, 19.88}";
type = Stem;
}
);
layerId = "0A44E515-E956-4F85-8EFC-D1601816D0DE";
paths = (
{
closed = 1;
nodes = (
"42 0 LINE",
"121.35 216.75 LINE",
"505.99 216.75 LINE",
"585.37 0 LINE",
"606.75 0 LINE",
"338 737 LINE",
"289.5 737 LINE",
"20 0 LINE"
);
},
{
closed = 1;
nodes = (
"303.75 715 LINE",
"323.5 715 LINE",
"497.93 238.75 LINE",
"129.4 238.75 LINE"
);
},
{
closed = 1;
nodes = (
"208.12 794.25 LINE",
"305 911.87 LINE",
"322.5 911.87 LINE",
"419.37 794.25 LINE",
"441.37 794.25 LINE",
"336.87 931.75 LINE",
"290.62 931.75 LINE",
"186.12 794.25 LINE"
);
},
{
closed = 1;
nodes = (
"194.62 952.87 LINE",
"197.87 993.5 LINE",
"237.5 1029.87 LINE",
"287 1029.87 LINE",
"362.87 952.87 LINE",
"416.75 952.87 LINE",
"465.25 1002.37 LINE",
"466.25 1050.75 LINE",
"450.87 1050.75 LINE",
"447.62 1010 LINE",
"408 973.75 LINE",
"371.75 973.75 LINE",
"295.75 1050.75 LINE",
"228.75 1050.75 LINE",
"180.25 1001.25 LINE",
"179.25 952.87 LINE"
);
}
);
width = 627;
}
);
leftKerningGroup = A;
note = uni1EAA;
rightKerningGroup = A;
unicode = 1EAA;
},
{
glyphname = uni0200;
lastChange = "2019-09-03 16:17:47 +0000";
layers = (
{
hints = (
{
horizontal = 1;
place = "{216.75, 22}";
type = Stem;
},
{
horizontal = 1;
place = "{715, 22}";
type = Stem;
},
{
horizontal = 1;
place = "{794.25, 138.5}";
type = Stem;
},
{
place = "{20, 586.75}";
type = Stem;
}
);
layerId = "0A44E515-E956-4F85-8EFC-D1601816D0DE";
paths = (
{
closed = 1;
nodes = (
"42 0 LINE",
"121.35 216.75 LINE",
"505.99 216.75 LINE",
"585.37 0 LINE",
"606.75 0 LINE",
"338 737 LINE",
"289.5 737 LINE",
"20 0 LINE"
);
},
{
closed = 1;
nodes = (
"303.75 715 LINE",
"323.5 715 LINE",
"497.93 238.75 LINE",
"129.4 238.75 LINE"
);
},
{
closed = 1;
nodes = (
"269.25 794.25 LINE",
"184.5 932.75 LINE",
"153.75 932.75 LINE",
"248.37 794.25 LINE"
);
},
{
closed = 1;
nodes = (
"379.25 794.25 LINE",
"294.5 932.75 LINE",
"263.75 932.75 LINE",
"358.37 794.25 LINE"
);
}
);
width = 627;
}
);
leftKerningGroup = A;
note = uni0200;
rightKerningGroup = A;
unicode = 0200;
},
{
glyphname = Adieresis;
lastChange = "2019-09-03 16:17:47 +0000";
layers = (
{
hints = (
{
horizontal = 1;
place = "{216.75, 22}";
type = Stem;
},
{
horizontal = 1;
place = "{715, 22}";
type = Stem;
},
{
horizontal = 1;
place = "{794.25, 103.5}";
type = Stem;
},
{
place = "{169.62, 22}";
type = Stem;
},
{
place = "{435.87, 22}";
type = Stem;
}
);
layerId = "0A44E515-E956-4F85-8EFC-D1601816D0DE";
paths = (
{
closed = 1;
nodes = (
"42 0 LINE",
"121.35 216.75 LINE",
"505.99 216.75 LINE",
"585.37 0 LINE",
"606.75 0 LINE",
"338 737 LINE",
"289.5 737 LINE",
"20 0 LINE"
);
},
{
closed = 1;
nodes = (
"303.75 715 LINE",
"323.5 715 LINE",
"497.93 238.75 LINE",
"129.4 238.75 LINE"
);
},
{
closed = 1;
nodes = (
"191.62 794.25 LINE",
"191.62 897.75 LINE",
"169.62 897.75 LINE",
"169.62 794.25 LINE"
);
},
{
closed = 1;
nodes = (
"457.87 794.25 LINE",
"457.87 897.75 LINE",
"435.87 897.75 LINE",
"435.87 794.25 LINE"
);
}
);
width = 627;
}
);
leftKerningGroup = A;
note = Adieresis;
rightKerningGroup = A;
unicode = 00C4;
},
{
glyphname = uni1EA0;
lastChange = "2019-09-03 16:17:47 +0000";
layers = (
{
hints = (
{
horizontal = 1;
place = "{-160.63, 103.38}";
type = Stem;
},
{
horizontal = 1;
place = "{216.75, 22}";
type = Stem;
},
{
horizontal = 1;
place = "{715, 22}";
type = Stem;
},
{
place = "{302.37, 22}";
type = Stem;
}
);
layerId = "0A44E515-E956-4F85-8EFC-D1601816D0DE";
paths = (
{
closed = 1;
nodes = (
"42 0 LINE",
"121.35 216.75 LINE",
"505.99 216.75 LINE",
"585.37 0 LINE",
"606.75 0 LINE",
"338 737 LINE",
"289.5 737 LINE",
"20 0 LINE"
);
},
{
closed = 1;
nodes = (
"324.37 -160.63 LINE",
"324.37 -57.25 LINE",
"302.37 -57.25 LINE",
"302.37 -160.63 LINE"
);
},
{
closed = 1;
nodes = (
"303.75 715 LINE",
"323.5 715 LINE",
"497.93 238.75 LINE",
"129.4 238.75 LINE"
);
}
);
width = 627;
}
);
leftKerningGroup = A;
note = uni1EA0;
rightKerningGroup = A;
unicode = 1EA0;
},
{
glyphname = Agrave;
lastChange = "2019-09-03 16:17:47 +0000";
layers = (
{
hints = (
{
horizontal = 1;
place = "{216.75, 22}";
type = Stem;
},
{
horizontal = 1;
place = "{715, 22}";
type = Stem;
},
{
place = "{20, 586.75}";
type = Stem;
}
);
layerId = "0A44E515-E956-4F85-8EFC-D1601816D0DE";
paths = (
{
closed = 1;
nodes = (
"42 0 LINE",
"121.35 216.75 LINE",
"505.99 216.75 LINE",
"585.37 0 LINE",
"606.75 0 LINE",
"338 737 LINE",
"289.5 737 LINE",
"20 0 LINE"
);
},
{
closed = 1;
nodes = (
"303.75 715 LINE",
"323.5 715 LINE",
"497.93 238.75 LINE",
"129.4 238.75 LINE"
);
},
{
closed = 1;
nodes = (
"321.75 794.25 LINE",
"237 932.75 LINE",
"206.25 932.75 LINE",
"300.87 794.25 LINE"
);
}
);
width = 627;
}
);
leftKerningGroup = A;
note = Agrave;
rightKerningGroup = A;
unicode = 00C0;
},
{
glyphname = uni1EA2;
lastChange = "2019-09-03 16:17:47 +0000";
layers = (
{
hints = (
{
horizontal = 1;
place = "{216.75, 22}";
type = Stem;
},
{
horizontal = 1;
place = "{715, 22}";
type = Stem;
},
{
horizontal = 1;
place = "{794.25, 36.75}";
type = Stem;
},
{
horizontal = 1;
place = "{961, 21.62}";
type = Stem;
},
{
place = "{305.62, 21.38}";
type = Stem;
},
{
place = "{373.12, 21.5}";
type = Stem;
}
);
layerId = "0A44E515-E956-4F85-8EFC-D1601816D0DE";
paths = (
{
closed = 1;
nodes = (
"42 0 LINE",
"121.35 216.75 LINE",
"505.99 216.75 LINE",
"585.37 0 LINE",
"606.75 0 LINE",
"338 737 LINE",
"289.5 737 LINE",
"20 0 LINE"
);
},
{
closed = 1;
nodes = (
"303.75 715 LINE",
"323.5 715 LINE",
"497.93 238.75 LINE",
"129.4 238.75 LINE"
);
},
{
closed = 1;
nodes = (
"327 794.25 LINE",
"327 822.75 LINE",
"394.62 889.12 LINE",
"394.62 949 LINE",
"362.5 982.62 LINE",
"288.87 982.62 LINE",
"251.25 942.37 LINE",
"267 927.62 LINE",
"298.25 961 LINE",
"353.5 961 LINE",
"373.12 940.37 LINE",
"373.12 897.37 LINE",
"305.62 831 LINE",
"305.62 794.25 LINE"
);
}
);
width = 627;
}
);
leftKerningGroup = A;
note = uni1EA2;
rightKerningGroup = A;
unicode = 1EA2;
},
{
glyphname = uni0202;
lastChange = "2019-09-03 16:17:47 +0000";
layers = (
{
hints = (
{
horizontal = 1;
place = "{216.75, 22}";
type = Stem;
},
{
horizontal = 1;
place = "{715, 22}";
type = Stem;
},
{
horizontal = 1;
place = "{889.87, 20.88}";
type = Stem;
},
{
place = "{201.5, 21}";
type = Stem;
},
{
place = "{405, 21}";
type = Stem;
}
);
layerId = "0A44E515-E956-4F85-8EFC-D1601816D0DE";
paths = (
{
closed = 1;
nodes = (
"42 0 LINE",
"121.35 216.75 LINE",
"505.99 216.75 LINE",
"585.37 0 LINE",
"606.75 0 LINE",
"338 737 LINE",
"289.5 737 LINE",
"20 0 LINE"
);
},
{
closed = 1;
nodes = (
"303.75 715 LINE",
"323.5 715 LINE",
"497.93 238.75 LINE",
"129.4 238.75 LINE"
);
},
{
closed = 1;
nodes = (
"222.5 794.25 LINE",
"222.5 854.75 LINE",
"257.62 889.87 LINE",
"369.87 889.87 LINE",
"405 854.75 LINE",
"405 794.25 LINE",
"426 794.25 LINE",
"426 861.25 LINE",
"376.5 910.75 LINE",
"251 910.75 LINE",
"201.5 861.25 LINE",
"201.5 794.25 LINE"
);
}
);
width = 627;
}
);
leftKerningGroup = A;
note = uni0202;
rightKerningGroup = A;
unicode = 0202;
},
{
glyphname = Amacron;
lastChange = "2019-09-03 16:17:47 +0000";
layers = (
{
hints = (
{
horizontal = 1;
place = "{216.75, 22}";
type = Stem;
},
{
horizontal = 1;
place = "{715, 22}";
type = Stem;
},
{
horizontal = 1;
place = "{794.25, 20.87}";
type = Stem;
},
{
place = "{20, 586.75}";
type = Stem;
}
);
layerId = "0A44E515-E956-4F85-8EFC-D1601816D0DE";
paths = (
{
closed = 1;
nodes = (
"42 0 LINE",
"121.35 216.75 LINE",
"505.99 216.75 LINE",
"585.37 0 LINE",
"606.75 0 LINE",
"338 737 LINE",
"289.5 737 LINE",
"20 0 LINE"
);
},
{
closed = 1;
nodes = (
"303.75 715 LINE",
"323.5 715 LINE",
"497.93 238.75 LINE",
"129.4 238.75 LINE"
);
},
{
closed = 1;
nodes = (
"457.87 794.25 LINE",
"457.87 815.12 LINE",
"169.62 815.12 LINE",
"169.62 794.25 LINE"
);
}
);
width = 627;
}
);
leftKerningGroup = A;
note = Amacron;
rightKerningGroup = A;
unicode = 0100;
},
{
glyphname = Aogonek;
lastChange = "2019-10-06 13:56:49 +0000";
layers = (
{
guideLines = (
{
angle = 90;
position = "{608.37, -116.63}";
}
);
hints = (
{
horizontal = 1;
place = "{-138.63, 22}";
type = Stem;
},
{
horizontal = 1;
place = "{216.75, 22}";
type = Stem;
},
{
horizontal = 1;
place = "{715, 22}";
type = Stem;
},
{
place = "{532.5, 22}";
type = Stem;
},
{
place = "{579.75, 28.62}";
type = Stem;
}
);
layerId = "0A44E515-E956-4F85-8EFC-D1601816D0DE";
paths = (
{
closed = 1;
nodes = (
"608.37 -138.63 LINE",
"608.37 -116.63 LINE",
"589.75 -116.63 LINE",
"554.5 -81.38 LINE",
"554.5 -50.63 LINE",
"610 -8.88 LINE",
"338 737 LINE",
"289.5 737 LINE",
"20 0 LINE",
"42 0 LINE",
"121.35 216.75 LINE",
"505.99 216.75 LINE",
"585.25 0 LINE",
"532.5 -39.63 LINE",
"532.5 -91.25 LINE",
"579.75 -138.63 LINE"
);
},
{
closed = 1;
nodes = (
"303.75 715 LINE",
"323.5 715 LINE",
"497.93 238.75 LINE",
"129.4 238.75 LINE"
);
}
);
width = 627;
}
);
leftKerningGroup = A;
note = Aogonek;
rightKerningGroup = A;
unicode = 0104;
},
{
glyphname = Aring;
lastChange = "2019-09-03 16:17:47 +0000";
layers = (
{
hints = (
{
horizontal = 1;
place = "{216.75, 22}";
type = Stem;
},
{
horizontal = 1;
place = "{715, 22}";
type = Stem;
},
{
horizontal = 1;
place = "{794.25, 20.87}";
type = Stem;
},
{
horizontal = 1;
place = "{940.5, 20.87}";
type = Stem;
},
{
place = "{230.12, 20.88}";
type = Stem;
},
{
place = "{376.5, 20.87}";
type = Stem;
}
);
layerId = "0A44E515-E956-4F85-8EFC-D1601816D0DE";
paths = (
{
closed = 1;
nodes = (
"42 0 LINE",
"121.35 216.75 LINE",
"505.99 216.75 LINE",
"585.37 0 LINE",
"606.75 0 LINE",
"338 737 LINE",
"289.5 737 LINE",
"20 0 LINE"
);
},
{
closed = 1;
nodes = (
"303.75 715 LINE",
"323.5 715 LINE",
"497.93 238.75 LINE",
"129.4 238.75 LINE"
);
},
{
closed = 1;
nodes = (
"347.87 794.25 LINE",
"397.37 843.75 LINE",
"397.37 911.87 LINE",
"347.87 961.37 LINE",
"279.62 961.37 LINE",
"230.12 911.87 LINE",
"230.12 843.75 LINE",
"279.62 794.25 LINE"
);
},
{
closed = 1;
nodes = (
"251 850.25 LINE",
"251 905.25 LINE",
"286.25 940.5 LINE",
"341.25 940.5 LINE",
"376.5 905.25 LINE",
"376.5 850.25 LINE",
"341.25 815.12 LINE",
"286.25 815.12 LINE"
);
}
);
width = 627;
}
);
leftKerningGroup = A;
note = Aring;
rightKerningGroup = A;
unicode = 00C5;
},
{
glyphname = Aringacute;
lastChange = "2019-09-03 16:17:47 +0000";
layers = (
{
hints = (
{
horizontal = 1;
place = "{216.75, 22}";
type = Stem;
},
{
horizontal = 1;
place = "{715, 22}";
type = Stem;
},
{
horizontal = 1;
place = "{794.25, 20.87}";
type = Stem;
},
{
horizontal = 1;
place = "{940.5, 20.87}";
type = Stem;
},
{
place = "{230.12, 20.88}";
type = Stem;
},
{
place = "{376.5, 20.87}";
type = Stem;
}
);
layerId = "0A44E515-E956-4F85-8EFC-D1601816D0DE";
paths = (
{
closed = 1;
nodes = (
"42 0 LINE",
"121.35 216.75 LINE",
"505.99 216.75 LINE",
"585.37 0 LINE",
"606.75 0 LINE",
"338 737 LINE",
"289.5 737 LINE",
"20 0 LINE"
);
},
{
closed = 1;
nodes = (
"303.75 715 LINE",
"323.5 715 LINE",
"497.93 238.75 LINE",
"129.4 238.75 LINE"
);
},
{
closed = 1;
nodes = (
"347.87 794.25 LINE",
"397.37 843.75 LINE",
"397.37 911.87 LINE",
"347.87 961.37 LINE",
"279.62 961.37 LINE",
"230.12 911.87 LINE",
"230.12 843.75 LINE",
"279.62 794.25 LINE"
);
},
{
closed = 1;
nodes = (
"251 850.25 LINE",
"251 905.25 LINE",
"286.25 940.5 LINE",
"341.25 940.5 LINE",
"376.5 905.25 LINE",
"376.5 850.25 LINE",
"341.25 815.12 LINE",
"286.25 815.12 LINE"
);
},
{
closed = 1;
nodes = (
"324.5 982.37 LINE",
"419.12 1120.87 LINE",
"388.37 1120.87 LINE",
"303.62 982.37 LINE"
);
}
);
width = 627;
}
);
leftKerningGroup = A;
note = Aringacute;
rightKerningGroup = A;
unicode = 01FA;
},
{
glyphname = Atilde;
lastChange = "2019-09-03 16:17:47 +0000";
layers = (
{
hints = (
{
horizontal = 1;
place = "{216.75, 22}";
type = Stem;
},
{
horizontal = 1;
place = "{715, 22}";
type = Stem;
},
{
horizontal = 1;
place = "{794.25, 20.87}";
type = Stem;
},
{
horizontal = 1;
place = "{871.25, 20.87}";
type = Stem;
},
{
place = "{170.25, 16.49}";
type = Stem;
},
{
place = "{439.74, 16.51}";
type = Stem;
}
);
layerId = "0A44E515-E956-4F85-8EFC-D1601816D0DE";
paths = (
{
closed = 1;
nodes = (
"42 0 LINE",
"121.35 216.75 LINE",
"505.99 216.75 LINE",
"585.37 0 LINE",
"606.75 0 LINE",
"338 737 LINE",
"289.5 737 LINE",
"20 0 LINE"
);
},
{
closed = 1;
nodes = (
"303.75 715 LINE",
"323.5 715 LINE",
"497.93 238.75 LINE",
"129.4 238.75 LINE"
);
},
{
closed = 1;
nodes = (
"185.12 794.25 LINE",
"188.37 834.87 LINE",
"228 871.25 LINE",
"277.5 871.25 LINE",
"353.37 794.25 LINE",
"407.25 794.25 LINE",
"455.75 843.75 LINE",
"456.75 892.12 LINE",
"441.37 892.12 LINE",
"438.12 851.37 LINE",
"398.5 815.12 LINE",
"362.25 815.12 LINE",
"286.25 892.12 LINE",
"219.25 892.12 LINE",
"170.75 842.62 LINE",
"169.75 794.25 LINE"
);
}
);
width = 627;
}
);
leftKerningGroup = A;
note = Atilde;
rightKerningGroup = A;
unicode = 00C3;
},
{
glyphname = AE;
lastChange = "2019-09-03 16:17:47 +0000";
layers = (
{
hints = (
{
horizontal = 1;
place = "{0, 22}";
type = Stem;
},
{
horizontal = 1;
place = "{216.75, 22}";
type = Stem;
},
{
horizontal = 1;
place = "{379.5, 22}";
type = Stem;
},
{
horizontal = 1;
place = "{715, 22}";
type = Stem;
},
{
place = "{20, 857.87}";
type = Stem;
}
);
layerId = "0A44E515-E956-4F85-8EFC-D1601816D0DE";
paths = (
{
closed = 1;
nodes = (
"42 0 LINE",
"121.35 216.75 LINE",
"505.99 216.75 LINE",
"585.37 0 LINE",
"877.87 0 LINE",
"877.87 22 LINE",
"598.73 22 LINE",
"468.36 379.5 LINE",
"818.37 379.5 LINE",
"818.37 401.5 LINE",
"460.34 401.5 LINE",
"346.02 715 LINE",
"877.87 715 LINE",
"877.87 737 LINE",
"289.5 737 LINE",
"20 0 LINE"
);
},
{
closed = 1;
nodes = (
"303.75 715 LINE",
"323.5 715 LINE",
"497.93 238.75 LINE",
"129.4 238.75 LINE"
);
}
);
width = 933;
}
);
leftKerningGroup = A;
note = AE;
rightKerningGroup = AE;
unicode = 00C6;
},
{
glyphname = AEacute;
lastChange = "2019-09-03 16:17:47 +0000";
layers = (
{
hints = (
{
horizontal = 1;
place = "{0, 22}";
type = Stem;
},
{
horizontal = 1;
place = "{216.75, 22}";
type = Stem;
},
{
horizontal = 1;
place = "{379.5, 22}";
type = Stem;
},
{
horizontal = 1;
place = "{715, 22}";
type = Stem;
},
{
place = "{20, 857.87}";
type = Stem;
}
);
layerId = "0A44E515-E956-4F85-8EFC-D1601816D0DE";
paths = (
{
closed = 1;
nodes = (
"42 0 LINE",
"121.35 216.75 LINE",
"505.99 216.75 LINE",
"585.37 0 LINE",
"877.87 0 LINE",
"877.87 22 LINE",
"598.73 22 LINE",
"468.36 379.5 LINE",
"818.37 379.5 LINE",
"818.37 401.5 LINE",
"460.34 401.5 LINE",
"346.02 715 LINE",
"877.87 715 LINE",
"877.87 737 LINE",
"289.5 737 LINE",
"20 0 LINE"
);
},
{
closed = 1;
nodes = (
"303.75 715 LINE",
"323.5 715 LINE",
"497.93 238.75 LINE",
"129.4 238.75 LINE"
);
},
{
closed = 1;
nodes = (
"326.12 794.25 LINE",
"420.75 932.75 LINE",
"390 932.75 LINE",
"305.25 794.25 LINE"
);
}
);
width = 933;
}
);
leftKerningGroup = A;
note = AEacute;
rightKerningGroup = AE;
unicode = 01FC;
},
{
glyphname = B;
lastChange = "2019-09-03 16:17:47 +0000";
layers = (
{
hints = (
{
horizontal = 1;
place = "{0, 22}";
type = Stem;
},
{
horizontal = 1;
place = "{379.5, 22}";
type = Stem;
},
{
horizontal = 1;
place = "{715, 22}";
type = Stem;
},
{
place = "{100, 22}";
type = Stem;
},
{
place = "{508.12, 22}";
type = Stem;
},
{
place = "{556.5, 22}";
type = Stem;
}
);
layerId = "0A44E515-E956-4F85-8EFC-D1601816D0DE";
paths = (
{
closed = 1;
nodes = (
"487.25 0 LINE",
"578.5 92.37 LINE",
"578.5 293.75 LINE",
"485 393.75 LINE",
"530.12 471.87 LINE",
"530.12 644.62 LINE",
"438.75 737 LINE",
"100 737 LINE",
"100 0 LINE"
);
},
{
closed = 1;
nodes = (
"122 379.5 LINE",
"470.37 379.5 LINE",
"556.5 287.87 LINE",
"556.5 99 LINE",
"480.62 22 LINE",
"122 22 LINE"
);
},
{
closed = 1;
nodes = (
"122 715 LINE",
"432.25 715 LINE",
"508.12 638 LINE",
"508.12 474.25 LINE",
"466.12 401.5 LINE",
"122 401.5 LINE"
);
}
);
width = 654;
}
);
leftKerningGroup = B;
note = B;
rightKerningGroup = B;
unicode = 0042;
},
{
glyphname = C;
lastChange = "2019-09-03 16:17:47 +0000";
layers = (
{
hints = (
{
horizontal = 1;
place = "{0, 22}";
type = Stem;
},
{
horizontal = 1;
place = "{715, 22}";
type = Stem;
},
{
place = "{85, 22}";
type = Stem;
}
);
layerId = "0A44E515-E956-4F85-8EFC-D1601816D0DE";
paths = (
{
closed = 1;
nodes = (
"485.37 0 LINE",
"592 107.75 LINE",
"577.75 122.12 LINE",
"478.75 22 LINE",
"182.87 22 LINE",
"107 99 LINE",
"107 638 LINE",
"182.87 715 LINE",
"473.25 715 LINE",
"569 618.25 LINE",
"583.25 632.5 LINE",
"479.87 737 LINE",
"176.25 737 LINE",
"85 644.62 LINE",
"85 92.37 LINE",
"176.25 0 LINE"
);
}
);
width = 642;
}
);
note = C;
rightKerningGroup = C;
unicode = 0043;
},
{
glyphname = Cacute;
lastChange = "2019-09-03 16:17:47 +0000";
layers = (
{
hints = (
{
horizontal = 1;
place = "{0, 22}";
type = Stem;
},
{
horizontal = 1;
place = "{715, 22}";
type = Stem;
},
{
place = "{85, 22}";
type = Stem;
}
);
layerId = "0A44E515-E956-4F85-8EFC-D1601816D0DE";
paths = (
{
closed = 1;
nodes = (
"485.37 0 LINE",
"592 107.75 LINE",
"577.75 122.12 LINE",
"478.75 22 LINE",
"182.87 22 LINE",
"107 99 LINE",
"107 638 LINE",
"182.87 715 LINE",
"473.25 715 LINE",
"569 618.25 LINE",
"583.25 632.5 LINE",
"479.87 737 LINE",
"176.25 737 LINE",
"85 644.62 LINE",
"85 92.37 LINE",
"176.25 0 LINE"
);
},
{
closed = 1;
nodes = (
"343.12 794.25 LINE",
"437.75 932.75 LINE",
"407 932.75 LINE",
"322.25 794.25 LINE"
);
}
);
width = 642;
}
);
note = Cacute;
rightKerningGroup = C;
unicode = 0106;
},
{
glyphname = Ccaron;
lastChange = "2019-09-03 16:17:47 +0000";
layers = (
{
hints = (
{
horizontal = 1;
place = "{0, 22}";
type = Stem;
},
{
horizontal = 1;
place = "{715, 22}";
type = Stem;
},
{
horizontal = 1;
place = "{794.25, 19.87}";
type = Stem;
},
{
place = "{85, 22}";
type = Stem;
}
);
layerId = "0A44E515-E956-4F85-8EFC-D1601816D0DE";
paths = (
{
closed = 1;
nodes = (
"485.37 0 LINE",
"592 107.75 LINE",
"577.75 122.12 LINE",
"478.75 22 LINE",
"182.87 22 LINE",
"107 99 LINE",
"107 638 LINE",
"182.87 715 LINE",
"473.25 715 LINE",
"569 618.25 LINE",
"583.25 632.5 LINE",
"479.87 737 LINE",
"176.25 737 LINE",
"85 644.62 LINE",
"85 92.37 LINE",
"176.25 0 LINE"
);
},
{
closed = 1;
nodes = (
"352.75 794.25 LINE",
"457.25 931.75 LINE",
"435.25 931.75 LINE",
"338.37 814.12 LINE",
"320.87 814.12 LINE",
"224 931.75 LINE",
"202 931.75 LINE",
"306.5 794.25 LINE"
);
}
);
width = 642;
}
);
note = Ccaron;
rightKerningGroup = C;
unicode = 010C;
},
{
glyphname = Ccedilla;
lastChange = "2019-09-03 16:17:47 +0000";
layers = (
{
hints = (
{
horizontal = 1;
place = "{0, 22}";
type = Stem;
},
{
horizontal = 1;
place = "{715, 22}";
type = Stem;
},
{
place = "{85, 22}";
type = Stem;
}
);
layerId = "0A44E515-E956-4F85-8EFC-D1601816D0DE";
paths = (
{
closed = 1;
nodes = (
"303.75 -132 LINE",
"342.25 0 LINE",
"485.37 0 LINE",
"592 107.75 LINE",
"577.75 122.12 LINE",
"478.75 22 LINE",
"182.87 22 LINE",
"107 99 LINE",
"107 638 LINE",
"182.87 715 LINE",
"473.25 715 LINE",
"569 618.25 LINE",
"583.25 632.5 LINE",
"479.87 737 LINE",
"176.25 737 LINE",
"85 644.62 LINE",
"85 92.37 LINE",
"176.25 0 LINE",
"319.12 0 LINE",
"281.75 -132 LINE"
);
}
);
width = 642;
}
);
note = Ccedilla;
rightKerningGroup = C;
unicode = 00C7;
},
{
glyphname = Ccircumflex;
lastChange = "2019-09-03 16:17:47 +0000";
layers = (
{
hints = (
{
horizontal = 1;
place = "{0, 22}";
type = Stem;
},
{
horizontal = 1;
place = "{715, 22}";
type = Stem;
},
{
horizontal = 1;
place = "{911.87, 19.88}";
type = Stem;
},
{
place = "{85, 22}";
type = Stem;
}
);
layerId = "0A44E515-E956-4F85-8EFC-D1601816D0DE";
paths = (
{
closed = 1;
nodes = (
"485.37 0 LINE",
"592 107.75 LINE",
"577.75 122.12 LINE",
"478.75 22 LINE",
"182.87 22 LINE",
"107 99 LINE",
"107 638 LINE",
"182.87 715 LINE",
"473.25 715 LINE",
"569 618.25 LINE",
"583.25 632.5 LINE",
"479.87 737 LINE",
"176.25 737 LINE",
"85 644.62 LINE",
"85 92.37 LINE",
"176.25 0 LINE"
);
},
{
closed = 1;
nodes = (
"225.12 794.25 LINE",
"322 911.87 LINE",
"339.5 911.87 LINE",
"436.37 794.25 LINE",
"458.37 794.25 LINE",
"353.87 931.75 LINE",
"307.62 931.75 LINE",
"203.12 794.25 LINE"
);
}
);
width = 642;
}
);
note = Ccircumflex;
rightKerningGroup = C;
unicode = 0108;
},
{
glyphname = Cdotaccent;
lastChange = "2019-09-03 16:17:47 +0000";
layers = (
{
hints = (
{
horizontal = 1;
place = "{0, 22}";
type = Stem;
},
{
horizontal = 1;
place = "{715, 22}";
type = Stem;
},
{
horizontal = 1;
place = "{794.25, 103.37}";
type = Stem;
},
{
place = "{85, 22}";
type = Stem;
},
{
place = "{319.75, 22}";
type = Stem;
}
);
layerId = "0A44E515-E956-4F85-8EFC-D1601816D0DE";
paths = (
{
closed = 1;
nodes = (
"485.37 0 LINE",
"592 107.75 LINE",
"577.75 122.12 LINE",
"478.75 22 LINE",
"182.87 22 LINE",
"107 99 LINE",
"107 638 LINE",
"182.87 715 LINE",
"473.25 715 LINE",
"569 618.25 LINE",
"583.25 632.5 LINE",
"479.87 737 LINE",
"176.25 737 LINE",
"85 644.62 LINE",
"85 92.37 LINE",
"176.25 0 LINE"
);
},
{
closed = 1;
nodes = (
"341.75 794.25 LINE",
"341.75 897.62 LINE",
"319.75 897.62 LINE",
"319.75 794.25 LINE"
);
}
);
width = 642;
}
);
note = Cdotaccent;
rightKerningGroup = C;
unicode = 010A;
},
{
glyphname = D;
lastChange = "2019-09-03 16:17:47 +0000";
layers = (
{
hints = (
{
horizontal = 1;
place = "{0, 22}";
type = Stem;
},
{
horizontal = 1;
place = "{715, 22}";
type = Stem;
},
{
place = "{100, 22}";
type = Stem;
},
{
place = "{578.5, 22}";
type = Stem;
}
);
layerId = "0A44E515-E956-4F85-8EFC-D1601816D0DE";
paths = (
{
closed = 1;
nodes = (
"452 0 LINE",
"600.5 155.12 LINE",
"600.5 581.87 LINE",
"452 737 LINE",
"100 737 LINE",
"100 0 LINE"
);
},
{
closed = 1;
nodes = (
"122 715 LINE",
"445.12 715 LINE",
"578.5 575.87 LINE",
"578.5 161.25 LINE",
"445.25 22 LINE",
"122 22 LINE"
);
}
);
width = 676;
}
);
leftKerningGroup = B;
note = D;
rightKerningGroup = D;
unicode = 0044;
},
{
glyphname = uni01C4;
lastChange = "2019-09-03 16:17:47 +0000";
layers = (
{
hints = (
{
horizontal = 1;
place = "{0.09, 22}";
type = Stem;
},
{
horizontal = 1;
place = "{715.09, 22}";
type = Stem;
},
{
horizontal = 1;
place = "{794.34, 19.87}";
type = Stem;
},
{
place = "{100, 22}";
type = Stem;
},
{
place = "{578.5, 22}";
type = Stem;
},
{
place = "{776.25, 22}";
type = Stem;
},
{
place = "{1222.87, 22}";
type = Stem;
},
{
horizontal = 1;
place = "{0, 22}";
type = Stem;
},
{
horizontal = 1;
place = "{715, 22}";
type = Stem;
}
);
layerId = "0A44E515-E956-4F85-8EFC-D1601816D0DE";
paths = (
{
closed = 1;
nodes = (
"452 0 LINE",
"600.5 155.12 LINE",
"600.5 581.87 LINE",
"452 737 LINE",
"100 737 LINE",
"100 0 LINE"
);
},
{
closed = 1;
nodes = (
"122 715 LINE",
"445.12 715 LINE",
"578.5 575.87 LINE",
"578.5 161.25 LINE",
"445.25 22 LINE",
"122 22 LINE"
);
},
{
closed = 1;
nodes = (
"1259.25 0.09 LINE",
"1259.25 22.09 LINE",
"798.25 22.09 LINE",
"798.25 41.84 LINE",
"1244.87 690.84 LINE",
"1244.87 737.09 LINE",
"795 737.09 LINE",
"795 715.09 LINE",
"1222.87 715.09 LINE",
"1222.87 695.34 LINE",
"776.25 46.34 LINE",
"776.25 0.09 LINE"
);
},
{
closed = 1;
nodes = (
"1057.25 794.34 LINE",
"1161.75 931.84 LINE",
"1139.75 931.84 LINE",
"1042.87 814.21 LINE",
"1025.37 814.21 LINE",
"928.5 931.84 LINE",
"906.5 931.84 LINE",
"1011 794.34 LINE"
);
}
);
width = 1354;
}
);
leftKerningGroup = B;
note = uni01C4;
rightKerningGroup = uni01C4;
unicode = 01C4;
},
{
glyphname = Eth;
lastChange = "2019-09-03 16:17:47 +0000";
layers = (
{
hints = (
{
horizontal = 1;
place = "{0, 22}";
type = Stem;
},
{
horizontal = 1;
place = "{363, 22}";
type = Stem;
},
{
horizontal = 1;
place = "{715, 22}";
type = Stem;
},
{
place = "{100, 22}";
type = Stem;
},
{
place = "{578.5, 22}";
type = Stem;
}
);
layerId = "0A44E515-E956-4F85-8EFC-D1601816D0DE";
paths = (
{
closed = 1;
nodes = (
"452 0 LINE",
"600.5 155.12 LINE",
"600.5 581.87 LINE",
"452 737 LINE",
"100 737 LINE",
"100 385 LINE",
"18.62 385 LINE",
"18.62 363 LINE",
"100 363 LINE",
"100 0 LINE"
);
},
{
closed = 1;
nodes = (
"122 363 LINE",
"292.62 363 LINE",
"292.62 385 LINE",
"122 385 LINE",
"122 715 LINE",
"445.12 715 LINE",
"578.5 575.87 LINE",
"578.5 161.25 LINE",
"445.25 22 LINE",
"122 22 LINE"
);
}
);
width = 676;
}
);
leftKerningGroup = B;
note = Eth;
rightKerningGroup = D;
unicode = 00D0;
},
{
glyphname = Dcaron;
lastChange = "2019-09-03 16:17:47 +0000";
layers = (
{
hints = (
{
horizontal = 1;
place = "{0, 22}";
type = Stem;
},
{
horizontal = 1;
place = "{715, 22}";
type = Stem;
},
{
horizontal = 1;
place = "{794.25, 19.87}";
type = Stem;
},
{
place = "{100, 22}";
type = Stem;
},
{
place = "{578.5, 22}";
type = Stem;
}
);
layerId = "0A44E515-E956-4F85-8EFC-D1601816D0DE";
paths = (
{
closed = 1;
nodes = (
"452 0 LINE",
"600.5 155.12 LINE",
"600.5 581.87 LINE",
"452 737 LINE",
"100 737 LINE",
"100 0 LINE"
);
},
{
closed = 1;
nodes = (
"122 715 LINE",
"445.12 715 LINE",
"578.5 575.87 LINE",
"578.5 161.25 LINE",
"445.25 22 LINE",
"122 22 LINE"
);
},
{
closed = 1;
nodes = (
"334.25 794.25 LINE",
"438.75 931.75 LINE",
"416.75 931.75 LINE",
"319.87 814.12 LINE",
"302.37 814.12 LINE",
"205.5 931.75 LINE",
"183.5 931.75 LINE",
"288 794.25 LINE"
);
}
);
width = 676;
}
);
leftKerningGroup = B;
note = Dcaron;
rightKerningGroup = D;
unicode = 010E;
},
{
glyphname = Dcroat;
lastChange = "2019-09-03 16:17:47 +0000";
layers = (
{
hints = (
{
horizontal = 1;
place = "{0, 22}";
type = Stem;
},
{
horizontal = 1;
place = "{363, 22}";
type = Stem;
},
{
horizontal = 1;
place = "{715, 22}";
type = Stem;
},
{
place = "{100, 22}";
type = Stem;
},
{
place = "{578.5, 22}";
type = Stem;
}
);
layerId = "0A44E515-E956-4F85-8EFC-D1601816D0DE";
paths = (
{
closed = 1;
nodes = (
"452 0 LINE",
"600.5 155.12 LINE",
"600.5 581.87 LINE",
"452 737 LINE",
"100 737 LINE",
"100 385 LINE",
"18.62 385 LINE",
"18.62 363 LINE",
"100 363 LINE",
"100 0 LINE"
);
},
{
closed = 1;
nodes = (
"122 363 LINE",
"292.62 363 LINE",
"292.62 385 LINE",
"122 385 LINE",
"122 715 LINE",
"445.12 715 LINE",
"578.5 575.87 LINE",
"578.5 161.25 LINE",
"445.25 22 LINE",
"122 22 LINE"
);
}
);
width = 676;
}
);
leftKerningGroup = B;
note = Dcroat;
rightKerningGroup = D;
unicode = 0110;
},
{
glyphname = uni01C5;
lastChange = "2019-09-03 16:17:47 +0000";
layers = (
{
hints = (
{
horizontal = 1;
place = "{0, 22}";
type = Stem;
},
{
horizontal = 1;
place = "{500.5, 22}";
type = Stem;
},
{
horizontal = 1;
place = "{579.75, 19.87}";
type = Stem;
},
{
horizontal = 1;
place = "{715, 22}";
type = Stem;
},
{
place = "{100, 22}";
type = Stem;
},
{
place = "{578.5, 22}";
type = Stem;
},
{
place = "{749, 22}";
type = Stem;
},
{
place = "{1101, 22}";
type = Stem;
}
);
layerId = "0A44E515-E956-4F85-8EFC-D1601816D0DE";
paths = (
{
closed = 1;
nodes = (
"452 0 LINE",
"600.5 155.12 LINE",
"600.5 581.87 LINE",
"452 737 LINE",
"100 737 LINE",
"100 0 LINE"
);
},
{
closed = 1;
nodes = (
"122 715 LINE",
"445.12 715 LINE",
"578.5 575.87 LINE",
"578.5 161.25 LINE",
"445.25 22 LINE",
"122 22 LINE"
);
},
{
closed = 1;
nodes = (
"1135 0 LINE",
"1135 22 LINE",
"771 22 LINE",
"771 41.75 LINE",
"1123 475.25 LINE",
"1123 522.5 LINE",
"776.5 522.5 LINE",
"776.5 500.5 LINE",
"1101 500.5 LINE",
"1101 480.75 LINE",
"749 47.25 LINE",
"749 0 LINE"
);
},
{
closed = 1;
nodes = (
"975.5 579.75 LINE",
"1080 717.25 LINE",
"1058 717.25 LINE",
"961.12 599.62 LINE",
"943.62 599.62 LINE",
"846.75 717.25 LINE",
"824.75 717.25 LINE",
"929.25 579.75 LINE"
);
}
);
width = 1207;
}
);
leftKerningGroup = B;
note = uni01C5;
unicode = 01C5;
},
{
glyphname = E;
lastChange = "2019-09-03 16:17:47 +0000";
layers = (
{
hints = (
{
horizontal = 1;
place = "{0, 22}";
type = Stem;
},
{
horizontal = 1;
place = "{379.5, 22}";
type = Stem;
},
{
horizontal = 1;
place = "{715, 22}";
type = Stem;
},
{
place = "{100, 22}";
type = Stem;
}
);
layerId = "0A44E515-E956-4F85-8EFC-D1601816D0DE";
paths = (
{
closed = 1;
nodes = (
"551 0 LINE",
"551 22 LINE",
"122 22 LINE",
"122 379.5 LINE",
"491.62 379.5 LINE",
"491.62 401.5 LINE",
"122 401.5 LINE",
"122 715 LINE",
"551 715 LINE",
"551 737 LINE",
"100 737 LINE",
"100 0 LINE"
);
}
);
width = 606;
}
);
leftKerningGroup = B;
note = E;
rightKerningGroup = AE;
unicode = 0045;
},
{
glyphname = Eacute;
lastChange = "2019-09-03 16:17:47 +0000";
layers = (
{
hints = (
{
horizontal = 1;
place = "{0, 22}";
type = Stem;
},
{
horizontal = 1;
place = "{379.5, 22}";
type = Stem;
},
{
horizontal = 1;
place = "{715, 22}";
type = Stem;
},
{
place = "{100, 22}";
type = Stem;
}
);
layerId = "0A44E515-E956-4F85-8EFC-D1601816D0DE";
paths = (
{
closed = 1;
nodes = (
"551 0 LINE",
"551 22 LINE",
"122 22 LINE",
"122 379.5 LINE",
"491.62 379.5 LINE",
"491.62 401.5 LINE",
"122 401.5 LINE",
"122 715 LINE",
"551 715 LINE",
"551 737 LINE",
"100 737 LINE",
"100 0 LINE"
);
},
{
closed = 1;
nodes = (
"339 794.25 LINE",
"433.62 932.75 LINE",
"402.87 932.75 LINE",
"318.12 794.25 LINE"
);
}
);
width = 606;
}
);
leftKerningGroup = B;
note = Eacute;
rightKerningGroup = AE;
unicode = 00C9;
},
{
glyphname = Ebreve;
lastChange = "2019-09-03 16:17:47 +0000";
layers = (
{
hints = (
{
horizontal = 1;
place = "{0, 22}";
type = Stem;
},
{
horizontal = 1;
place = "{379.5, 22}";
type = Stem;
},
{
horizontal = 1;
place = "{715, 22}";
type = Stem;
},
{
horizontal = 1;
place = "{794.25, 20.87}";
type = Stem;
},
{
place = "{100, 22}";
type = Stem;
},
{
place = "{214.37, 21}";
type = Stem;
},
{
place = "{417.87, 21}";
type = Stem;
}
);
layerId = "0A44E515-E956-4F85-8EFC-D1601816D0DE";
paths = (
{
closed = 1;
nodes = (
"551 0 LINE",
"551 22 LINE",
"122 22 LINE",
"122 379.5 LINE",
"491.62 379.5 LINE",
"491.62 401.5 LINE",
"122 401.5 LINE",
"122 715 LINE",
"551 715 LINE",
"551 737 LINE",
"100 737 LINE",
"100 0 LINE"
);
},
{
closed = 1;
nodes = (
"389.37 794.25 LINE",
"438.87 843.75 LINE",
"438.87 910.75 LINE",
"417.87 910.75 LINE",
"417.87 850.25 LINE",
"382.75 815.12 LINE",
"270.5 815.12 LINE",
"235.37 850.25 LINE",
"235.37 910.75 LINE",
"214.37 910.75 LINE",
"214.37 843.75 LINE",
"263.87 794.25 LINE"
);
}
);
width = 606;
}
);
leftKerningGroup = B;
note = Ebreve;
rightKerningGroup = AE;
unicode = 0114;
},
{
glyphname = Ecaron;
lastChange = "2019-09-03 16:17:47 +0000";
layers = (
{
hints = (
{
horizontal = 1;
place = "{0, 22}";
type = Stem;
},
{
horizontal = 1;
place = "{379.5, 22}";
type = Stem;
},
{
horizontal = 1;
place = "{715, 22}";
type = Stem;
},
{
horizontal = 1;
place = "{794.25, 19.87}";
type = Stem;
},
{
place = "{100, 22}";
type = Stem;
}
);
layerId = "0A44E515-E956-4F85-8EFC-D1601816D0DE";
paths = (
{
closed = 1;
nodes = (
"551 0 LINE",
"551 22 LINE",
"122 22 LINE",
"122 379.5 LINE",
"491.62 379.5 LINE",
"491.62 401.5 LINE",
"122 401.5 LINE",
"122 715 LINE",
"551 715 LINE",
"551 737 LINE",
"100 737 LINE",
"100 0 LINE"
);
},
{
closed = 1;
nodes = (
"348.62 794.25 LINE",
"453.12 931.75 LINE",
"431.12 931.75 LINE",
"334.25 814.12 LINE",
"316.75 814.12 LINE",
"219.87 931.75 LINE",
"197.87 931.75 LINE",
"302.37 794.25 LINE"
);
}
);
width = 606;
}
);
leftKerningGroup = B;
note = Ecaron;
rightKerningGroup = AE;
unicode = 011A;
},
{
glyphname = Ecircumflex;
lastChange = "2019-09-03 16:17:47 +0000";
layers = (
{
hints = (
{
horizontal = 1;
place = "{0, 22}";
type = Stem;
},
{
horizontal = 1;
place = "{379.5, 22}";
type = Stem;
},
{
horizontal = 1;
place = "{715, 22}";
type = Stem;
},
{
horizontal = 1;
place = "{911.87, 19.88}";
type = Stem;
},
{
place = "{100, 22}";
type = Stem;
}
);
layerId = "0A44E515-E956-4F85-8EFC-D1601816D0DE";
paths = (
{
closed = 1;
nodes = (
"551 0 LINE",
"551 22 LINE",
"122 22 LINE",
"122 379.5 LINE",
"491.62 379.5 LINE",
"491.62 401.5 LINE",
"122 401.5 LINE",
"122 715 LINE",
"551 715 LINE",
"551 737 LINE",
"100 737 LINE",
"100 0 LINE"
);
},
{
closed = 1;
nodes = (
"221 794.25 LINE",
"317.87 911.87 LINE",
"335.37 911.87 LINE",
"432.25 794.25 LINE",
"454.25 794.25 LINE",
"349.75 931.75 LINE",
"303.5 931.75 LINE",
"199 794.25 LINE"
);
}
);
width = 606;
}
);
leftKerningGroup = B;
note = Ecircumflex;
rightKerningGroup = AE;
unicode = 00CA;
},
{
glyphname = uni1EBE;
lastChange = "2019-09-03 16:17:47 +0000";
layers = (
{
hints = (
{
horizontal = 1;
place = "{0, 22}";
type = Stem;
},
{
horizontal = 1;
place = "{379.5, 22}";
type = Stem;
},
{
horizontal = 1;
place = "{715, 22}";
type = Stem;
},
{
horizontal = 1;
place = "{911.87, 19.88}";
type = Stem;
},
{
place = "{100, 22}";
type = Stem;
}
);
layerId = "0A44E515-E956-4F85-8EFC-D1601816D0DE";
paths = (
{
closed = 1;
nodes = (
"551 0 LINE",
"551 22 LINE",
"122 22 LINE",
"122 379.5 LINE",
"491.62 379.5 LINE",
"491.62 401.5 LINE",
"122 401.5 LINE",
"122 715 LINE",
"551 715 LINE",
"551 737 LINE",
"100 737 LINE",
"100 0 LINE"
);
},
{
closed = 1;
nodes = (
"221 794.25 LINE",
"317.87 911.87 LINE",
"335.37 911.87 LINE",
"432.25 794.25 LINE",
"454.25 794.25 LINE",
"349.75 931.75 LINE",
"303.5 931.75 LINE",
"199 794.25 LINE"
);
},
{
closed = 1;
nodes = (
"473.87 859.75 LINE",
"568.5 998.25 LINE",
"537.75 998.25 LINE",
"453 859.75 LINE"
);
}
);
width = 606;
}
);
leftKerningGroup = B;
note = uni1EBE;
rightKerningGroup = AE;
unicode = 1EBE;
},
{
glyphname = uni1EC6;
lastChange = "2019-09-03 16:17:47 +0000";
layers = (
{
hints = (
{
horizontal = 1;
place = "{-160.63, 103.38}";
type = Stem;
},
{
horizontal = 1;
place = "{0, 22}";
type = Stem;
},
{
horizontal = 1;
place = "{379.5, 22}";
type = Stem;
},
{
horizontal = 1;
place = "{715, 22}";
type = Stem;
},
{
horizontal = 1;
place = "{911.87, 19.88}";
type = Stem;
},
{
place = "{100, 22}";
type = Stem;
},
{
place = "{315.62, 22}";
type = Stem;
}
);
layerId = "0A44E515-E956-4F85-8EFC-D1601816D0DE";
paths = (
{
closed = 1;
nodes = (
"551 0 LINE",
"551 22 LINE",
"122 22 LINE",
"122 379.5 LINE",
"491.62 379.5 LINE",
"491.62 401.5 LINE",
"122 401.5 LINE",
"122 715 LINE",
"551 715 LINE",
"551 737 LINE",
"100 737 LINE",
"100 0 LINE"
);
},
{
closed = 1;
nodes = (
"337.62 -160.63 LINE",
"337.62 -57.25 LINE",
"315.62 -57.25 LINE",
"315.62 -160.63 LINE"
);
},
{
closed = 1;
nodes = (
"221 794.25 LINE",
"317.87 911.87 LINE",
"335.37 911.87 LINE",
"432.25 794.25 LINE",
"454.25 794.25 LINE",
"349.75 931.75 LINE",
"303.5 931.75 LINE",
"199 794.25 LINE"
);
}
);
width = 606;
}
);
leftKerningGroup = B;
note = uni1EC6;
rightKerningGroup = AE;
unicode = 1EC6;
},
{
glyphname = uni1EC0;
lastChange = "2019-09-03 16:17:47 +0000";
layers = (
{
hints = (
{
horizontal = 1;
place = "{0, 22}";
type = Stem;
},
{
horizontal = 1;
place = "{379.5, 22}";
type = Stem;
},
{
horizontal = 1;
place = "{715, 22}";
type = Stem;
},
{
horizontal = 1;
place = "{911.87, 19.88}";
type = Stem;
},
{
place = "{100, 22}";
type = Stem;
}
);
layerId = "0A44E515-E956-4F85-8EFC-D1601816D0DE";
paths = (
{
closed = 1;
nodes = (
"551 0 LINE",
"551 22 LINE",
"122 22 LINE",
"122 379.5 LINE",
"491.62 379.5 LINE",
"491.62 401.5 LINE",
"122 401.5 LINE",
"122 715 LINE",
"551 715 LINE",
"551 737 LINE",
"100 737 LINE",
"100 0 LINE"
);
},
{
closed = 1;
nodes = (
"211.62 859.75 LINE",
"126.87 998.25 LINE",
"96.12 998.25 LINE",
"190.75 859.75 LINE"
);
},
{
closed = 1;
nodes = (
"221 794.25 LINE",
"317.87 911.87 LINE",
"335.37 911.87 LINE",
"432.25 794.25 LINE",
"454.25 794.25 LINE",
"349.75 931.75 LINE",
"303.5 931.75 LINE",
"199 794.25 LINE"
);
}
);
width = 606;
}
);
leftKerningGroup = B;
note = uni1EC0;
rightKerningGroup = AE;
unicode = 1EC0;
},
{
glyphname = uni1EC2;
lastChange = "2019-09-03 16:17:47 +0000";
layers = (
{
hints = (
{
horizontal = 1;
place = "{0, 22}";
type = Stem;
},
{
horizontal = 1;
place = "{379.5, 22}";
type = Stem;
},
{
horizontal = 1;
place = "{715, 22}";
type = Stem;
},
{
horizontal = 1;
place = "{911.87, 19.88}";
type = Stem;
},
{
horizontal = 1;
place = "{1026.5, 21.62}";
type = Stem;
},
{
place = "{100, 22}";
type = Stem;
},
{
place = "{440.62, 21.38}";
type = Stem;
},
{
place = "{508.12, 21.5}";
type = Stem;
},
{
horizontal = 1;
place = "{859.75, 36.75}";
type = Stem;
}
);
layerId = "0A44E515-E956-4F85-8EFC-D1601816D0DE";
paths = (
{
closed = 1;
nodes = (
"551 0 LINE",
"551 22 LINE",
"122 22 LINE",
"122 379.5 LINE",
"491.62 379.5 LINE",
"491.62 401.5 LINE",
"122 401.5 LINE",
"122 715 LINE",
"551 715 LINE",
"551 737 LINE",
"100 737 LINE",
"100 0 LINE"
);
},
{
closed = 1;
nodes = (
"221 794.25 LINE",
"317.87 911.87 LINE",
"335.37 911.87 LINE",
"432.25 794.25 LINE",
"454.25 794.25 LINE",
"349.75 931.75 LINE",
"303.5 931.75 LINE",
"199 794.25 LINE"
);
},
{
closed = 1;
nodes = (
"462 859.75 LINE",
"462 888.25 LINE",
"529.62 954.62 LINE",
"529.62 1014.5 LINE",
"497.5 1048.12 LINE",
"423.87 1048.12 LINE",
"386.25 1007.87 LINE",
"402 993.12 LINE",
"433.25 1026.5 LINE",
"488.5 1026.5 LINE",
"508.12 1005.87 LINE",
"508.12 962.87 LINE",
"440.62 896.5 LINE",
"440.62 859.75 LINE"
);
}
);
width = 606;
}
);
leftKerningGroup = B;
note = uni1EC2;
rightKerningGroup = AE;
unicode = 1EC2;
},
{
glyphname = uni1EC4;
lastChange = "2019-09-03 16:17:47 +0000";
layers = (
{
hints = (
{
horizontal = 1;
place = "{0, 22}";
type = Stem;
},
{
horizontal = 1;
place = "{379.5, 22}";
type = Stem;
},
{
horizontal = 1;
place = "{715, 22}";
type = Stem;
},
{
horizontal = 1;
place = "{952.87, 20.88}";
type = Stem;
},
{
horizontal = 1;
place = "{1029.87, 20.88}";
type = Stem;
},
{
place = "{100, 22}";
type = Stem;
},
{
place = "{192.62, 16.5}";
type = Stem;
},
{
place = "{462.12, 16.5}";
type = Stem;
},
{
horizontal = 1;
place = "{911.87, 19.88}";
type = Stem;
}
);
layerId = "0A44E515-E956-4F85-8EFC-D1601816D0DE";
paths = (
{
closed = 1;
nodes = (
"551 0 LINE",
"551 22 LINE",
"122 22 LINE",
"122 379.5 LINE",
"491.62 379.5 LINE",
"491.62 401.5 LINE",
"122 401.5 LINE",
"122 715 LINE",
"551 715 LINE",
"551 737 LINE",
"100 737 LINE",
"100 0 LINE"
);
},
{
closed = 1;
nodes = (
"221 794.25 LINE",
"317.87 911.87 LINE",
"335.37 911.87 LINE",
"432.25 794.25 LINE",
"454.25 794.25 LINE",
"349.75 931.75 LINE",
"303.5 931.75 LINE",
"199 794.25 LINE"
);
},
{
closed = 1;
nodes = (
"207.5 952.87 LINE",
"210.75 993.5 LINE",
"250.37 1029.87 LINE",
"299.87 1029.87 LINE",
"375.75 952.87 LINE",
"429.62 952.87 LINE",
"478.12 1002.37 LINE",
"479.12 1050.75 LINE",
"463.75 1050.75 LINE",
"460.5 1010 LINE",
"420.87 973.75 LINE",
"384.62 973.75 LINE",
"308.62 1050.75 LINE",
"241.62 1050.75 LINE",
"193.12 1001.25 LINE",
"192.12 952.87 LINE"
);
}
);
width = 606;
}
);
leftKerningGroup = B;
note = uni1EC4;
rightKerningGroup = AE;
unicode = 1EC4;
},
{
glyphname = uni0204;
lastChange = "2019-09-03 16:17:47 +0000";
layers = (
{
hints = (
{
horizontal = 1;
place = "{0, 22}";
type = Stem;
},
{
horizontal = 1;
place = "{379.5, 22}";
type = Stem;
},
{
horizontal = 1;
place = "{715, 22}";
type = Stem;
},
{
horizontal = 1;
place = "{794.25, 138.5}";
type = Stem;
},
{
place = "{100, 22}";
type = Stem;
}
);
layerId = "0A44E515-E956-4F85-8EFC-D1601816D0DE";
paths = (
{
closed = 1;
nodes = (
"551 0 LINE",
"551 22 LINE",
"122 22 LINE",
"122 379.5 LINE",
"491.62 379.5 LINE",
"491.62 401.5 LINE",
"122 401.5 LINE",
"122 715 LINE",
"551 715 LINE",
"551 737 LINE",
"100 737 LINE",
"100 0 LINE"
);
},
{
closed = 1;
nodes = (
"282.12 794.25 LINE",
"197.37 932.75 LINE",
"166.62 932.75 LINE",
"261.25 794.25 LINE"
);
},
{
closed = 1;
nodes = (
"392.12 794.25 LINE",
"307.37 932.75 LINE",
"276.62 932.75 LINE",
"371.25 794.25 LINE"
);
}
);
width = 606;
}
);
leftKerningGroup = B;
note = uni0204;
rightKerningGroup = AE;
unicode = 0204;
},
{
glyphname = Edieresis;
lastChange = "2019-09-03 16:17:47 +0000";
layers = (
{
hints = (
{
horizontal = 1;
place = "{0, 22}";
type = Stem;
},
{
horizontal = 1;
place = "{379.5, 22}";
type = Stem;
},
{
horizontal = 1;
place = "{715, 22}";
type = Stem;
},
{
horizontal = 1;
place = "{794.25, 103.5}";
type = Stem;
},
{
place = "{100, 22}";
type = Stem;
},
{
place = "{182.5, 22}";
type = Stem;
},
{
place = "{448.75, 22}";
type = Stem;
}
);
layerId = "0A44E515-E956-4F85-8EFC-D1601816D0DE";
paths = (
{
closed = 1;
nodes = (
"551 0 LINE",
"551 22 LINE",
"122 22 LINE",
"122 379.5 LINE",
"491.62 379.5 LINE",
"491.62 401.5 LINE",
"122 401.5 LINE",
"122 715 LINE",
"551 715 LINE",
"551 737 LINE",
"100 737 LINE",
"100 0 LINE"
);
},
{
closed = 1;
nodes = (
"204.5 794.25 LINE",
"204.5 897.75 LINE",
"182.5 897.75 LINE",
"182.5 794.25 LINE"
);
},
{
closed = 1;
nodes = (
"470.75 794.25 LINE",
"470.75 897.75 LINE",
"448.75 897.75 LINE",
"448.75 794.25 LINE"
);
}
);
width = 606;
}
);
leftKerningGroup = B;
note = Edieresis;
rightKerningGroup = AE;
unicode = 00CB;
},
{
glyphname = Edotaccent;
lastChange = "2019-09-03 16:17:47 +0000";
layers = (
{
hints = (
{
horizontal = 1;
place = "{0, 22}";
type = Stem;
},
{
horizontal = 1;
place = "{379.5, 22}";
type = Stem;
},
{
horizontal = 1;
place = "{715, 22}";
type = Stem;
},
{
horizontal = 1;
place = "{794.25, 103.37}";
type = Stem;
},
{
place = "{100, 22}";
type = Stem;
},
{
place = "{315.62, 22}";
type = Stem;
}
);
layerId = "0A44E515-E956-4F85-8EFC-D1601816D0DE";
paths = (
{
closed = 1;
nodes = (
"551 0 LINE",
"551 22 LINE",
"122 22 LINE",
"122 379.5 LINE",
"491.62 379.5 LINE",
"491.62 401.5 LINE",
"122 401.5 LINE",
"122 715 LINE",
"551 715 LINE",
"551 737 LINE",
"100 737 LINE",
"100 0 LINE"
);
},
{
closed = 1;
nodes = (
"337.62 794.25 LINE",
"337.62 897.62 LINE",
"315.62 897.62 LINE",
"315.62 794.25 LINE"
);
}
);
width = 606;
}
);
leftKerningGroup = B;
note = Edotaccent;
rightKerningGroup = AE;
unicode = 0116;
},
{
glyphname = uni1EB8;
lastChange = "2019-09-03 16:17:47 +0000";
layers = (
{
hints = (
{
horizontal = 1;
place = "{-160.63, 103.38}";
type = Stem;
},
{
horizontal = 1;
place = "{0, 22}";
type = Stem;
},
{
horizontal = 1;
place = "{379.5, 22}";
type = Stem;
},
{
horizontal = 1;
place = "{715, 22}";
type = Stem;
},
{
place = "{100, 22}";
type = Stem;
},
{
place = "{315.62, 22}";
type = Stem;
}
);
layerId = "0A44E515-E956-4F85-8EFC-D1601816D0DE";
paths = (
{
closed = 1;
nodes = (
"551 0 LINE",
"551 22 LINE",
"122 22 LINE",
"122 379.5 LINE",
"491.62 379.5 LINE",
"491.62 401.5 LINE",
"122 401.5 LINE",
"122 715 LINE",
"551 715 LINE",
"551 737 LINE",
"100 737 LINE",
"100 0 LINE"
);
},
{
closed = 1;
nodes = (
"337.62 -160.63 LINE",
"337.62 -57.25 LINE",
"315.62 -57.25 LINE",
"315.62 -160.63 LINE"
);
}
);
width = 606;
}
);
leftKerningGroup = B;
note = uni1EB8;
rightKerningGroup = AE;
unicode = 1EB8;
},
{
glyphname = Egrave;
lastChange = "2019-09-03 16:17:47 +0000";
layers = (
{
hints = (
{
horizontal = 1;
place = "{0, 22}";
type = Stem;
},
{
horizontal = 1;
place = "{379.5, 22}";
type = Stem;
},
{
horizontal = 1;
place = "{715, 22}";
type = Stem;
},
{
place = "{100, 22}";
type = Stem;
}
);
layerId = "0A44E515-E956-4F85-8EFC-D1601816D0DE";
paths = (
{
closed = 1;
nodes = (
"551 0 LINE",
"551 22 LINE",
"122 22 LINE",
"122 379.5 LINE",
"491.62 379.5 LINE",
"491.62 401.5 LINE",
"122 401.5 LINE",
"122 715 LINE",
"551 715 LINE",
"551 737 LINE",
"100 737 LINE",
"100 0 LINE"
);
},
{
closed = 1;
nodes = (
"334.62 794.25 LINE",
"249.87 932.75 LINE",
"219.12 932.75 LINE",
"313.75 794.25 LINE"
);
}
);
width = 606;
}
);
leftKerningGroup = B;
note = Egrave;
rightKerningGroup = AE;
unicode = 00C8;
},
{
glyphname = uni1EBA;
lastChange = "2019-09-03 16:17:47 +0000";
layers = (
{
hints = (
{
horizontal = 1;
place = "{0, 22}";
type = Stem;
},
{
horizontal = 1;
place = "{379.5, 22}";
type = Stem;
},
{
horizontal = 1;
place = "{715, 22}";
type = Stem;
},
{
horizontal = 1;
place = "{794.25, 36.75}";
type = Stem;
},
{
horizontal = 1;
place = "{961, 21.62}";
type = Stem;
},
{
place = "{100, 22}";
type = Stem;
},
{
place = "{318.5, 21.37}";
type = Stem;
},
{
place = "{386, 21.5}";
type = Stem;
}
);
layerId = "0A44E515-E956-4F85-8EFC-D1601816D0DE";
paths = (
{
closed = 1;
nodes = (
"551 0 LINE",
"551 22 LINE",
"122 22 LINE",
"122 379.5 LINE",
"491.62 379.5 LINE",
"491.62 401.5 LINE",
"122 401.5 LINE",
"122 715 LINE",
"551 715 LINE",
"551 737 LINE",
"100 737 LINE",
"100 0 LINE"
);
},
{
closed = 1;
nodes = (
"339.87 794.25 LINE",
"339.87 822.75 LINE",
"407.5 889.12 LINE",
"407.5 949 LINE",
"375.37 982.62 LINE",
"301.75 982.62 LINE",
"264.12 942.37 LINE",
"279.87 927.62 LINE",
"311.12 961 LINE",
"366.37 961 LINE",
"386 940.37 LINE",
"386 897.37 LINE",
"318.5 831 LINE",
"318.5 794.25 LINE"
);
}
);
width = 606;
}
);
leftKerningGroup = B;
note = uni1EBA;
rightKerningGroup = AE;
unicode = 1EBA;
},
{
glyphname = uni0206;
lastChange = "2019-09-03 16:17:47 +0000";
layers = (
{
hints = (
{
horizontal = 1;
place = "{0, 22}";
type = Stem;
},
{
horizontal = 1;
place = "{379.5, 22}";
type = Stem;
},
{
horizontal = 1;
place = "{715, 22}";
type = Stem;
},
{
horizontal = 1;
place = "{889.87, 20.88}";
type = Stem;
},
{
place = "{100, 22}";
type = Stem;
},
{
place = "{214.37, 21}";
type = Stem;
},
{
place = "{417.87, 21}";
type = Stem;
}
);
layerId = "0A44E515-E956-4F85-8EFC-D1601816D0DE";
paths = (
{
closed = 1;
nodes = (
"551 0 LINE",
"551 22 LINE",
"122 22 LINE",
"122 379.5 LINE",
"491.62 379.5 LINE",
"491.62 401.5 LINE",
"122 401.5 LINE",
"122 715 LINE",
"551 715 LINE",
"551 737 LINE",
"100 737 LINE",
"100 0 LINE"
);
},
{
closed = 1;
nodes = (
"235.37 794.25 LINE",
"235.37 854.75 LINE",
"270.5 889.87 LINE",
"382.75 889.87 LINE",
"417.87 854.75 LINE",
"417.87 794.25 LINE",
"438.87 794.25 LINE",
"438.87 861.25 LINE",
"389.37 910.75 LINE",
"263.87 910.75 LINE",
"214.37 861.25 LINE",
"214.37 794.25 LINE"
);
}
);
width = 606;
}
);
leftKerningGroup = B;
note = uni0206;
rightKerningGroup = AE;
unicode = 0206;
},
{
glyphname = Emacron;
lastChange = "2019-09-03 16:17:47 +0000";
layers = (
{
hints = (
{
horizontal = 1;
place = "{0, 22}";
type = Stem;
},
{
horizontal = 1;
place = "{379.5, 22}";
type = Stem;
},
{
horizontal = 1;
place = "{715, 22}";
type = Stem;
},
{
horizontal = 1;
place = "{794.25, 20.87}";
type = Stem;
},
{
place = "{100, 22}";
type = Stem;
}
);
layerId = "0A44E515-E956-4F85-8EFC-D1601816D0DE";
paths = (
{
closed = 1;
nodes = (
"551 0 LINE",
"551 22 LINE",
"122 22 LINE",
"122 379.5 LINE",
"491.62 379.5 LINE",
"491.62 401.5 LINE",
"122 401.5 LINE",
"122 715 LINE",
"551 715 LINE",
"551 737 LINE",
"100 737 LINE",
"100 0 LINE"
);
},
{
closed = 1;
nodes = (
"470.75 794.25 LINE",
"470.75 815.12 LINE",
"182.5 815.12 LINE",
"182.5 794.25 LINE"
);
}
);
width = 606;
}
);
leftKerningGroup = B;
note = Emacron;
rightKerningGroup = AE;
unicode = 0112;
},
{
glyphname = Eogonek;
lastChange = "2019-09-03 18:00:51 +0000";
layers = (
{
hints = (
{
horizontal = 1;
place = "{-138.63, 22}";
type = Stem;
},
{
horizontal = 1;
place = "{0, 22}";
type = Stem;
},
{
horizontal = 1;
place = "{379.5, 22}";
type = Stem;
},
{
horizontal = 1;
place = "{715, 22}";
type = Stem;
},
{
place = "{100, 22}";
type = Stem;
},
{
place = "{478.87, 22}";
type = Stem;
},
{
place = "{520.62, 30.38}";
type = Stem;
},
{
place = "{526.12, 28.63}";
type = Stem;
}
);
layerId = "0A44E515-E956-4F85-8EFC-D1601816D0DE";
paths = (
{
closed = 1;
nodes = (
"551 -139 LINE",
"551 -117 LINE",
"529 -117 LINE",
"497 -85 LINE",
"497 -43 LINE",
"551 0 LINE",
"551 22 LINE",
"122 22 LINE",
"122 379.5 LINE",
"491.62 379.5 LINE",
"491.62 401.5 LINE",
"122 401.5 LINE",
"122 715 LINE",
"551 715 LINE",
"551 737 LINE",
"100 737 LINE",
"100 0 LINE",
"517 0 LINE",
"475 -33 LINE",
"475 -91 LINE",
"522 -139 LINE"
);
}
);
width = 606;
}
);
leftKerningGroup = B;
note = Eogonek;
rightKerningGroup = AE;
unicode = 0118;
},
{
glyphname = uni1EBC;
lastChange = "2019-09-03 16:17:47 +0000";
layers = (
{
hints = (
{
horizontal = 1;
place = "{0, 22}";
type = Stem;
},
{
horizontal = 1;
place = "{379.5, 22}";
type = Stem;
},
{
horizontal = 1;
place = "{715, 22}";
type = Stem;
},
{
horizontal = 1;
place = "{794.25, 20.87}";
type = Stem;
},
{
horizontal = 1;
place = "{871.25, 20.87}";
type = Stem;
},
{
place = "{100, 22}";
type = Stem;
},
{
place = "{183.12, 16.5}";
type = Stem;
},
{
place = "{452.62, 16.5}";
type = Stem;
}
);
layerId = "0A44E515-E956-4F85-8EFC-D1601816D0DE";
paths = (
{
closed = 1;
nodes = (
"551 0 LINE",
"551 22 LINE",
"122 22 LINE",
"122 379.5 LINE",
"491.62 379.5 LINE",
"491.62 401.5 LINE",
"122 401.5 LINE",
"122 715 LINE",
"551 715 LINE",
"551 737 LINE",
"100 737 LINE",
"100 0 LINE"
);
},
{
closed = 1;
nodes = (
"198 794.25 LINE",
"201.25 834.87 LINE",
"240.87 871.25 LINE",
"290.37 871.25 LINE",
"366.25 794.25 LINE",
"420.12 794.25 LINE",
"468.62 843.75 LINE",
"469.62 892.12 LINE",
"454.25 892.12 LINE",
"451 851.37 LINE",
"411.37 815.12 LINE",
"375.12 815.12 LINE",
"299.12 892.12 LINE",
"232.12 892.12 LINE",
"183.62 842.62 LINE",
"182.62 794.25 LINE"
);
}
);
width = 606;
}
);
leftKerningGroup = B;
note = uni1EBC;
rightKerningGroup = AE;
unicode = 1EBC;
},
{
glyphname = F;
lastChange = "2019-09-03 16:17:47 +0000";
layers = (
{
hints = (
{
horizontal = 1;
place = "{363, 22}";
type = Stem;
},
{
horizontal = 1;
place = "{715, 22}";
type = Stem;
},
{
place = "{100, 22}";
type = Stem;
}
);
layerId = "0A44E515-E956-4F85-8EFC-D1601816D0DE";
paths = (
{
closed = 1;
nodes = (
"122 0 LINE",
"122 363 LINE",
"487.25 363 LINE",
"487.25 385 LINE",
"122 385 LINE",
"122 715 LINE",
"540 715 LINE",
"540 737 LINE",
"100 737 LINE",
"100 0 LINE"
);
}
);
width = 565;
}
);
leftKerningGroup = B;
note = F;
rightKerningGroup = F;
unicode = 0046;
},
{
glyphname = G;
lastChange = "2019-09-03 16:17:47 +0000";
layers = (
{
hints = (
{
horizontal = 1;
place = "{0, 22}";
type = Stem;
},
{
horizontal = 1;
place = "{330, 22}";
type = Stem;
},
{
horizontal = 1;
place = "{715, 22}";
type = Stem;
},
{
place = "{85, 22}";
type = Stem;
},
{
place = "{574.5, 22}";
type = Stem;
}
);
layerId = "0A44E515-E956-4F85-8EFC-D1601816D0DE";
paths = (
{
closed = 1;
nodes = (
"470 0 LINE",
"574.5 109.97 LINE",
"574.5 0 LINE",
"596.5 0 LINE",
"596.5 352 LINE",
"401.75 352 LINE",
"401.75 330 LINE",
"574.5 330 LINE",
"574.5 139.35 LINE",
"463.12 22 LINE",
"182.87 22 LINE",
"107 99 LINE",
"107 638 LINE",
"182.87 715 LINE",
"487.5 715 LINE",
"583.25 618.25 LINE",
"597.5 632.5 LINE",
"494.12 737 LINE",
"176.25 737 LINE",
"85 644.62 LINE",
"85 92.37 LINE",
"176.25 0 LINE"
);
}
);
width = 693;
}
);
note = G;
rightKerningGroup = G;
unicode = 0047;
},
{
glyphname = Gbreve;
lastChange = "2019-09-03 16:17:47 +0000";
layers = (
{
hints = (
{
horizontal = 1;
place = "{0, 22}";
type = Stem;
},
{
horizontal = 1;
place = "{330, 22}";
type = Stem;
},
{
horizontal = 1;
place = "{715, 22}";
type = Stem;
},
{
horizontal = 1;
place = "{794.25, 20.87}";
type = Stem;
},
{
place = "{85, 22}";
type = Stem;
},
{
place = "{229, 21}";
type = Stem;
},
{
place = "{432.5, 21}";
type = Stem;
},
{
place = "{574.5, 22}";
type = Stem;
}
);
layerId = "0A44E515-E956-4F85-8EFC-D1601816D0DE";
paths = (
{
closed = 1;
nodes = (
"470 0 LINE",
"574.5 109.97 LINE",
"574.5 0 LINE",
"596.5 0 LINE",
"596.5 352 LINE",
"401.75 352 LINE",
"401.75 330 LINE",
"574.5 330 LINE",
"574.5 139.35 LINE",
"463.12 22 LINE",
"182.87 22 LINE",
"107 99 LINE",
"107 638 LINE",
"182.87 715 LINE",
"487.5 715 LINE",
"583.25 618.25 LINE",
"597.5 632.5 LINE",
"494.12 737 LINE",
"176.25 737 LINE",
"85 644.62 LINE",
"85 92.37 LINE",
"176.25 0 LINE"
);
},
{
closed = 1;
nodes = (
"404 794.25 LINE",
"453.5 843.75 LINE",
"453.5 910.75 LINE",
"432.5 910.75 LINE",
"432.5 850.25 LINE",
"397.37 815.12 LINE",
"285.12 815.12 LINE",
"250 850.25 LINE",
"250 910.75 LINE",
"229 910.75 LINE",
"229 843.75 LINE",
"278.5 794.25 LINE"
);
}
);
width = 693;
}
);
note = Gbreve;
rightKerningGroup = G;
unicode = 011E;
},
{
glyphname = Gcaron;
lastChange = "2019-09-03 16:17:47 +0000";
layers = (
{
hints = (
{
horizontal = 1;
place = "{0, 22}";
type = Stem;
},
{
horizontal = 1;
place = "{330, 22}";
type = Stem;
},
{
horizontal = 1;
place = "{715, 22}";
type = Stem;
},
{
horizontal = 1;
place = "{794.25, 19.87}";
type = Stem;
},
{
place = "{85, 22}";
type = Stem;
},
{
place = "{574.5, 22}";
type = Stem;
}
);
layerId = "0A44E515-E956-4F85-8EFC-D1601816D0DE";
paths = (
{
closed = 1;
nodes = (
"470 0 LINE",
"574.5 109.97 LINE",
"574.5 0 LINE",
"596.5 0 LINE",
"596.5 352 LINE",
"401.75 352 LINE",
"401.75 330 LINE",
"574.5 330 LINE",
"574.5 139.35 LINE",
"463.12 22 LINE",
"182.87 22 LINE",
"107 99 LINE",
"107 638 LINE",
"182.87 715 LINE",
"487.5 715 LINE",
"583.25 618.25 LINE",
"597.5 632.5 LINE",
"494.12 737 LINE",
"176.25 737 LINE",
"85 644.62 LINE",
"85 92.37 LINE",
"176.25 0 LINE"
);
},
{
closed = 1;
nodes = (
"363.25 794.25 LINE",
"467.75 931.75 LINE",
"445.75 931.75 LINE",
"348.87 814.12 LINE",
"331.37 814.12 LINE",
"234.5 931.75 LINE",
"212.5 931.75 LINE",
"317 794.25 LINE"
);
}
);
width = 693;
}
);
note = Gcaron;
rightKerningGroup = G;
unicode = 01E6;
},
{
glyphname = Gcircumflex;
lastChange = "2019-09-03 16:17:47 +0000";
layers = (
{
hints = (
{
horizontal = 1;
place = "{0, 22}";
type = Stem;
},
{
horizontal = 1;
place = "{330, 22}";
type = Stem;
},
{
horizontal = 1;
place = "{715, 22}";
type = Stem;
},
{
horizontal = 1;
place = "{911.87, 19.88}";
type = Stem;
},
{
place = "{85, 22}";
type = Stem;
},
{
place = "{574.5, 22}";
type = Stem;
}
);
layerId = "0A44E515-E956-4F85-8EFC-D1601816D0DE";
paths = (
{
closed = 1;
nodes = (
"470 0 LINE",
"574.5 109.97 LINE",
"574.5 0 LINE",
"596.5 0 LINE",
"596.5 352 LINE",
"401.75 352 LINE",
"401.75 330 LINE",
"574.5 330 LINE",
"574.5 139.35 LINE",
"463.12 22 LINE",
"182.87 22 LINE",
"107 99 LINE",
"107 638 LINE",
"182.87 715 LINE",
"487.5 715 LINE",
"583.25 618.25 LINE",
"597.5 632.5 LINE",
"494.12 737 LINE",
"176.25 737 LINE",
"85 644.62 LINE",
"85 92.37 LINE",
"176.25 0 LINE"
);
},
{
closed = 1;
nodes = (
"235.62 794.25 LINE",
"332.5 911.87 LINE",
"350 911.87 LINE",
"446.87 794.25 LINE",
"468.87 794.25 LINE",
"364.37 931.75 LINE",
"318.12 931.75 LINE",
"213.62 794.25 LINE"
);
}
);
width = 693;
}
);
note = Gcircumflex;
rightKerningGroup = G;
unicode = 011C;
},
{
glyphname = uni0122;
lastChange = "2019-09-03 16:17:47 +0000";
layers = (
{
hints = (
{
horizontal = 1;
place = "{0, 22}";
type = Stem;
},
{
horizontal = 1;
place = "{330, 22}";
type = Stem;
},
{
horizontal = 1;
place = "{715, 22}";
type = Stem;
},
{
place = "{85, 22}";
type = Stem;
},
{
place = "{574.5, 22}";
type = Stem;
}
);
layerId = "0A44E515-E956-4F85-8EFC-D1601816D0DE";
paths = (
{
closed = 1;
nodes = (
"470 0 LINE",
"574.5 109.97 LINE",
"574.5 0 LINE",
"596.5 0 LINE",
"596.5 352 LINE",
"401.75 352 LINE",
"401.75 330 LINE",
"574.5 330 LINE",
"574.5 139.35 LINE",
"463.12 22 LINE",
"182.87 22 LINE",
"107 99 LINE",
"107 638 LINE",
"182.87 715 LINE",
"487.5 715 LINE",
"583.25 618.25 LINE",
"597.5 632.5 LINE",
"494.12 737 LINE",
"176.25 737 LINE",
"85 644.62 LINE",
"85 92.37 LINE",
"176.25 0 LINE"
);
},
{
closed = 1;
nodes = (
"298.5 -216.75 LINE",
"343.62 -57.25 LINE",
"317.25 -57.25 LINE",
"279.75 -216.75 LINE"
);
}
);
width = 693;
}
);
note = uni0122;
rightKerningGroup = G;
unicode = 0122;
},
{
glyphname = Gdotaccent;
lastChange = "2019-09-03 16:17:47 +0000";
layers = (
{
hints = (
{
horizontal = 1;
place = "{0, 22}";
type = Stem;
},
{
horizontal = 1;
place = "{330, 22}";
type = Stem;
},
{
horizontal = 1;
place = "{715, 22}";
type = Stem;
},
{
horizontal = 1;
place = "{794.25, 103.37}";
type = Stem;
},
{
place = "{85, 22}";
type = Stem;
},
{
place = "{330.25, 22}";
type = Stem;
},
{
place = "{574.5, 22}";
type = Stem;
}
);
layerId = "0A44E515-E956-4F85-8EFC-D1601816D0DE";
paths = (
{
closed = 1;
nodes = (
"470 0 LINE",
"574.5 109.97 LINE",
"574.5 0 LINE",
"596.5 0 LINE",
"596.5 352 LINE",
"401.75 352 LINE",
"401.75 330 LINE",
"574.5 330 LINE",
"574.5 139.35 LINE",
"463.12 22 LINE",
"182.87 22 LINE",
"107 99 LINE",
"107 638 LINE",
"182.87 715 LINE",
"487.5 715 LINE",
"583.25 618.25 LINE",
"597.5 632.5 LINE",
"494.12 737 LINE",
"176.25 737 LINE",
"85 644.62 LINE",
"85 92.37 LINE",
"176.25 0 LINE"
);
},
{
closed = 1;
nodes = (
"352.25 794.25 LINE",
"352.25 897.62 LINE",
"330.25 897.62 LINE",
"330.25 794.25 LINE"
);
}
);
width = 693;
}
);
note = Gdotaccent;
rightKerningGroup = G;
unicode = 0120;
},
{
glyphname = H;
lastChange = "2019-09-03 16:17:47 +0000";
layers = (
{
hints = (
{
horizontal = 1;
place = "{379.5, 22}";
type = Stem;
},
{
place = "{100, 22}";
type = Stem;
},
{
place = "{573, 22}";
type = Stem;
}
);
layerId = "0A44E515-E956-4F85-8EFC-D1601816D0DE";
paths = (
{
closed = 1;
nodes = (
"122 0 LINE",
"122 379.5 LINE",
"573 379.5 LINE",
"573 0 LINE",
"595 0 LINE",
"595 737 LINE",
"573 737 LINE",
"573 401.5 LINE",
"122 401.5 LINE",
"122 737 LINE",
"100 737 LINE",
"100 0 LINE"
);
}
);
width = 695;
}
);
leftKerningGroup = B;
note = H;
rightKerningGroup = H;
unicode = 0048;
},
{
glyphname = Hbar;
lastChange = "2019-09-03 16:17:47 +0000";
layers = (
{
hints = (
{
horizontal = 1;
place = "{379.5, 22}";
type = Stem;
},
{
horizontal = 1;
place = "{572, 22}";
type = Stem;
},
{
place = "{100, 22}";
type = Stem;
},
{
place = "{573, 22}";
type = Stem;
}
);
layerId = "0A44E515-E956-4F85-8EFC-D1601816D0DE";
paths = (
{
closed = 1;
nodes = (
"122 0 LINE",
"122 379.5 LINE",
"573 379.5 LINE",
"573 0 LINE",
"595 0 LINE",
"595 572 LINE",
"673 572 LINE",
"673 594 LINE",
"595 594 LINE",
"595 737 LINE",
"573 737 LINE",
"573 594 LINE",
"122 594 LINE",
"122 737 LINE",
"100 737 LINE",
"100 594 LINE",
"22 594 LINE",
"22 572 LINE",
"100 572 LINE",
"100 0 LINE"
);
},
{
closed = 1;
nodes = (
"122 572 LINE",
"573 572 LINE",
"573 401.5 LINE",
"122 401.5 LINE"
);
}
);
width = 695;
}
);
leftKerningGroup = B;
note = Hbar;
rightKerningGroup = H;
unicode = 0126;
},
{
glyphname = Hcircumflex;
lastChange = "2019-09-03 16:17:47 +0000";
layers = (
{
hints = (
{
horizontal = 1;
place = "{379.5, 22}";
type = Stem;
},
{
horizontal = 1;
place = "{911.87, 19.88}";
type = Stem;
},
{
place = "{100, 22}";
type = Stem;
},
{
place = "{573, 22}";
type = Stem;
}
);
layerId = "0A44E515-E956-4F85-8EFC-D1601816D0DE";
paths = (
{
closed = 1;
nodes = (
"122 0 LINE",
"122 379.5 LINE",
"573 379.5 LINE",
"573 0 LINE",
"595 0 LINE",
"595 737 LINE",
"573 737 LINE",
"573 401.5 LINE",
"122 401.5 LINE",
"122 737 LINE",
"100 737 LINE",
"100 0 LINE"
);
},
{
closed = 1;
nodes = (
"236.37 794.25 LINE",
"333.25 911.87 LINE",
"350.75 911.87 LINE",
"447.62 794.25 LINE",
"469.62 794.25 LINE",
"365.12 931.75 LINE",
"318.87 931.75 LINE",
"214.37 794.25 LINE"
);
}
);
width = 695;
}
);
leftKerningGroup = B;
note = Hcircumflex;
rightKerningGroup = H;
unicode = 0124;
},
{
glyphname = I;
lastChange = "2019-09-03 16:17:47 +0000";
layers = (
{
hints = (
{
horizontal = 1;
place = "{0, 22}";
type = Stem;
},
{
horizontal = 1;
place = "{715, 22}";
type = Stem;
},
{
place = "{186, 22}";
type = Stem;
}
);
layerId = "0A44E515-E956-4F85-8EFC-D1601816D0DE";
paths = (
{
closed = 1;
nodes = (
"329 0 LINE",
"329 22 LINE",
"208 22 LINE",
"208 715 LINE",
"329 715 LINE",
"329 737 LINE",
"65 737 LINE",
"65 715 LINE",
"186 715 LINE",
"186 22 LINE",
"65 22 LINE",
"65 0 LINE"
);
}
);
width = 394;
}
);
leftKerningGroup = B;
note = I;
rightKerningGroup = H;
unicode = 0049;
},
{
glyphname = Iacute;
lastChange = "2019-09-03 16:17:47 +0000";
layers = (
{
hints = (
{
horizontal = 1;
place = "{0, 22}";
type = Stem;
},
{
horizontal = 1;
place = "{715, 22}";
type = Stem;
},
{
place = "{186, 22}";
type = Stem;
}
);
layerId = "0A44E515-E956-4F85-8EFC-D1601816D0DE";
paths = (
{
closed = 1;
nodes = (
"329 0 LINE",
"329 22 LINE",
"208 22 LINE",
"208 715 LINE",
"329 715 LINE",
"329 737 LINE",
"65 737 LINE",
"65 715 LINE",
"186 715 LINE",
"186 22 LINE",
"65 22 LINE",
"65 0 LINE"
);
},
{
closed = 1;
nodes = (
"209.37 794.25 LINE",
"304 932.75 LINE",
"273.25 932.75 LINE",
"188.5 794.25 LINE"
);
}
);
width = 394;
}
);
leftKerningGroup = B;
note = Iacute;
rightKerningGroup = H;
unicode = 00CD;
},
{
glyphname = Ibreve;
lastChange = "2019-09-03 16:17:47 +0000";
layers = (
{
hints = (
{
horizontal = 1;
place = "{0, 22}";
type = Stem;
},
{
horizontal = 1;
place = "{715, 22}";
type = Stem;
},
{
horizontal = 1;
place = "{794.25, 20.87}";
type = Stem;
},
{
place = "{84.75, 21}";
type = Stem;
},
{
place = "{186, 22}";
type = Stem;
},
{
place = "{288.25, 21}";
type = Stem;
}
);
layerId = "0A44E515-E956-4F85-8EFC-D1601816D0DE";
paths = (
{
closed = 1;
nodes = (
"329 0 LINE",
"329 22 LINE",
"208 22 LINE",
"208 715 LINE",
"329 715 LINE",
"329 737 LINE",
"65 737 LINE",
"65 715 LINE",
"186 715 LINE",
"186 22 LINE",
"65 22 LINE",
"65 0 LINE"
);
},
{
closed = 1;
nodes = (
"259.75 794.25 LINE",
"309.25 843.75 LINE",
"309.25 910.75 LINE",
"288.25 910.75 LINE",
"288.25 850.25 LINE",
"253.12 815.12 LINE",
"140.87 815.12 LINE",
"105.75 850.25 LINE",
"105.75 910.75 LINE",
"84.75 910.75 LINE",
"84.75 843.75 LINE",
"134.25 794.25 LINE"
);
}
);
width = 394;
}
);
leftKerningGroup = B;
note = Ibreve;
rightKerningGroup = H;
unicode = 012C;
},
{
glyphname = Icircumflex;
lastChange = "2019-09-03 16:17:47 +0000";
layers = (
{
hints = (
{
horizontal = 1;
place = "{0, 22}";
type = Stem;
},
{
horizontal = 1;
place = "{715, 22}";
type = Stem;
},
{
horizontal = 1;
place = "{911.87, 19.88}";
type = Stem;
},
{
place = "{186, 22}";
type = Stem;
}
);
layerId = "0A44E515-E956-4F85-8EFC-D1601816D0DE";
paths = (
{
closed = 1;
nodes = (
"329 0 LINE",
"329 22 LINE",
"208 22 LINE",
"208 715 LINE",
"329 715 LINE",
"329 737 LINE",
"65 737 LINE",
"65 715 LINE",
"186 715 LINE",
"186 22 LINE",
"65 22 LINE",
"65 0 LINE"
);
},
{
closed = 1;
nodes = (
"91.37 794.25 LINE",
"188.25 911.87 LINE",
"205.75 911.87 LINE",
"302.62 794.25 LINE",
"324.62 794.25 LINE",
"220.12 931.75 LINE",
"173.87 931.75 LINE",
"69.37 794.25 LINE"
);
}
);
width = 394;
}
);
leftKerningGroup = B;
note = Icircumflex;
rightKerningGroup = H;
unicode = 00CE;
},
{
glyphname = uni0208;
lastChange = "2019-09-03 16:17:47 +0000";
layers = (
{
hints = (
{
horizontal = 1;
place = "{0, 22}";
type = Stem;
},
{
horizontal = 1;
place = "{715, 22}";
type = Stem;
},
{
horizontal = 1;
place = "{794.25, 138.5}";
type = Stem;
},
{
place = "{186, 22}";
type = Stem;
}
);
layerId = "0A44E515-E956-4F85-8EFC-D1601816D0DE";
paths = (
{
closed = 1;
nodes = (
"329 0 LINE",
"329 22 LINE",
"208 22 LINE",
"208 715 LINE",
"329 715 LINE",
"329 737 LINE",
"65 737 LINE",
"65 715 LINE",
"186 715 LINE",
"186 22 LINE",
"65 22 LINE",
"65 0 LINE"
);
},
{
closed = 1;
nodes = (
"152.5 794.25 LINE",
"67.75 932.75 LINE",
"37 932.75 LINE",
"131.62 794.25 LINE"
);
},
{
closed = 1;
nodes = (
"262.5 794.25 LINE",
"177.75 932.75 LINE",
"147 932.75 LINE",
"241.62 794.25 LINE"
);
}
);
width = 394;
}
);
leftKerningGroup = B;
note = uni0208;
rightKerningGroup = H;
unicode = 0208;
},
{
glyphname = Idieresis;
lastChange = "2019-09-03 16:17:47 +0000";
layers = (
{
hints = (
{
horizontal = 1;
place = "{0, 22}";
type = Stem;
},
{
horizontal = 1;
place = "{715, 22}";
type = Stem;
},
{
horizontal = 1;
place = "{794.25, 103.5}";
type = Stem;
},
{
place = "{52.87, 22}";
type = Stem;
},
{
place = "{186, 22}";
type = Stem;
},
{
place = "{319.12, 22}";
type = Stem;
}
);
layerId = "0A44E515-E956-4F85-8EFC-D1601816D0DE";
paths = (
{
closed = 1;
nodes = (
"329 0 LINE",
"329 22 LINE",
"208 22 LINE",
"208 715 LINE",
"329 715 LINE",
"329 737 LINE",
"65 737 LINE",
"65 715 LINE",
"186 715 LINE",
"186 22 LINE",
"65 22 LINE",
"65 0 LINE"
);
},
{
closed = 1;
nodes = (
"74.87 794.25 LINE",
"74.87 897.75 LINE",
"52.87 897.75 LINE",
"52.87 794.25 LINE"
);
},
{
closed = 1;
nodes = (
"341.12 794.25 LINE",
"341.12 897.75 LINE",
"319.12 897.75 LINE",
"319.12 794.25 LINE"
);
}
);
width = 394;
}
);
leftKerningGroup = B;
note = Idieresis;
rightKerningGroup = H;
unicode = 00CF;
},
{
glyphname = Idotaccent;
lastChange = "2019-09-03 16:17:47 +0000";
layers = (
{
hints = (
{
horizontal = 1;
place = "{0, 22}";
type = Stem;
},
{
horizontal = 1;
place = "{715, 22}";
type = Stem;
},
{
horizontal = 1;
place = "{794.25, 103.37}";
type = Stem;
},
{
place = "{186, 22}";
type = Stem;
}
);
layerId = "0A44E515-E956-4F85-8EFC-D1601816D0DE";
paths = (
{
closed = 1;
nodes = (
"329 0 LINE",
"329 22 LINE",
"208 22 LINE",
"208 715 LINE",
"329 715 LINE",
"329 737 LINE",
"65 737 LINE",
"65 715 LINE",
"186 715 LINE",
"186 22 LINE",
"65 22 LINE",
"65 0 LINE"
);
},
{
closed = 1;
nodes = (
"208 794.25 LINE",
"208 897.62 LINE",
"186 897.62 LINE",
"186 794.25 LINE"
);
}
);
width = 394;
}
);
leftKerningGroup = B;
note = Idotaccent;
rightKerningGroup = H;
unicode = 0130;
},
{
glyphname = uni1ECA;
lastChange = "2019-09-03 16:17:47 +0000";
layers = (
{
hints = (
{
horizontal = 1;
place = "{-160.63, 103.38}";
type = Stem;
},
{
horizontal = 1;
place = "{0, 22}";
type = Stem;
},
{
horizontal = 1;
place = "{715, 22}";
type = Stem;
},
{
place = "{186, 22}";
type = Stem;
}
);
layerId = "0A44E515-E956-4F85-8EFC-D1601816D0DE";
paths = (
{
closed = 1;
nodes = (
"329 0 LINE",
"329 22 LINE",
"208 22 LINE",
"208 715 LINE",
"329 715 LINE",
"329 737 LINE",
"65 737 LINE",
"65 715 LINE",
"186 715 LINE",
"186 22 LINE",
"65 22 LINE",
"65 0 LINE"
);
},
{
closed = 1;
nodes = (
"208 -160.63 LINE",
"208 -57.25 LINE",
"186 -57.25 LINE",
"186 -160.63 LINE"
);
}
);
width = 394;
}
);
leftKerningGroup = B;
note = uni1ECA;
rightKerningGroup = H;
unicode = 1ECA;
},
{
glyphname = Igrave;
lastChange = "2019-09-03 16:17:47 +0000";
layers = (
{
hints = (
{
horizontal = 1;
place = "{0, 22}";
type = Stem;
},
{
horizontal = 1;
place = "{715, 22}";
type = Stem;
},
{
place = "{186, 22}";
type = Stem;
}
);
layerId = "0A44E515-E956-4F85-8EFC-D1601816D0DE";
paths = (
{
closed = 1;
nodes = (
"329 0 LINE",
"329 22 LINE",
"208 22 LINE",
"208 715 LINE",
"329 715 LINE",
"329 737 LINE",
"65 737 LINE",
"65 715 LINE",
"186 715 LINE",
"186 22 LINE",
"65 22 LINE",
"65 0 LINE"
);
},
{
closed = 1;
nodes = (
"205 794.25 LINE",
"120.25 932.75 LINE",
"89.5 932.75 LINE",
"184.12 794.25 LINE"
);
}
);
width = 394;
}
);
leftKerningGroup = B;
note = Igrave;
rightKerningGroup = H;
unicode = 00CC;
},
{
glyphname = uni1EC8;
lastChange = "2019-09-03 16:17:47 +0000";
layers = (
{
hints = (
{
horizontal = 1;
place = "{0, 22}";
type = Stem;
},
{
horizontal = 1;
place = "{715, 22}";
type = Stem;
},
{
horizontal = 1;
place = "{794.25, 36.75}";
type = Stem;
},
{
horizontal = 1;
place = "{961, 21.62}";
type = Stem;
},
{
place = "{186, 22}";
type = Stem;
},
{
place = "{256.37, 21.5}";
type = Stem;
},
{
place = "{188.87, 21.38}";
type = Stem;
}
);
layerId = "0A44E515-E956-4F85-8EFC-D1601816D0DE";
paths = (
{
closed = 1;
nodes = (
"329 0 LINE",
"329 22 LINE",
"208 22 LINE",
"208 715 LINE",
"329 715 LINE",
"329 737 LINE",
"65 737 LINE",
"65 715 LINE",
"186 715 LINE",
"186 22 LINE",
"65 22 LINE",
"65 0 LINE"
);
},
{
closed = 1;
nodes = (
"210.25 794.25 LINE",
"210.25 822.75 LINE",
"277.87 889.12 LINE",
"277.87 949 LINE",
"245.75 982.62 LINE",
"172.12 982.62 LINE",
"134.5 942.37 LINE",
"150.25 927.62 LINE",
"181.5 961 LINE",
"236.75 961 LINE",
"256.37 940.37 LINE",
"256.37 897.37 LINE",
"188.87 831 LINE",
"188.87 794.25 LINE"
);
}
);
width = 394;
}
);
leftKerningGroup = B;
note = uni1EC8;
rightKerningGroup = H;
unicode = 1EC8;
},
{
glyphname = uni020A;
lastChange = "2019-09-03 16:17:47 +0000";
layers = (
{
hints = (
{
horizontal = 1;
place = "{0, 22}";
type = Stem;
},
{
horizontal = 1;
place = "{715, 22}";
type = Stem;
},
{
horizontal = 1;
place = "{889.87, 20.88}";
type = Stem;
},
{
place = "{84.75, 21}";
type = Stem;
},
{
place = "{186, 22}";
type = Stem;
},
{
place = "{288.25, 21}";
type = Stem;
}
);
layerId = "0A44E515-E956-4F85-8EFC-D1601816D0DE";
paths = (
{
closed = 1;
nodes = (
"329 0 LINE",
"329 22 LINE",
"208 22 LINE",
"208 715 LINE",
"329 715 LINE",
"329 737 LINE",
"65 737 LINE",
"65 715 LINE",
"186 715 LINE",
"186 22 LINE",
"65 22 LINE",
"65 0 LINE"
);
},
{
closed = 1;
nodes = (
"105.75 794.25 LINE",
"105.75 854.75 LINE",
"140.87 889.87 LINE",
"253.12 889.87 LINE",
"288.25 854.75 LINE",
"288.25 794.25 LINE",
"309.25 794.25 LINE",
"309.25 861.25 LINE",
"259.75 910.75 LINE",
"134.25 910.75 LINE",
"84.75 861.25 LINE",
"84.75 794.25 LINE"
);
}
);
width = 394;
}
);
leftKerningGroup = B;
note = uni020A;
rightKerningGroup = H;
unicode = 020A;
},
{
glyphname = Imacron;
lastChange = "2019-09-03 16:17:47 +0000";
layers = (
{
hints = (
{
horizontal = 1;
place = "{0, 22}";
type = Stem;
},
{
horizontal = 1;
place = "{715, 22}";
type = Stem;
},
{
horizontal = 1;
place = "{794.25, 20.87}";
type = Stem;
},
{
place = "{186, 22}";
type = Stem;
}
);
layerId = "0A44E515-E956-4F85-8EFC-D1601816D0DE";
paths = (
{
closed = 1;
nodes = (
"329 0 LINE",
"329 22 LINE",
"208 22 LINE",
"208 715 LINE",
"329 715 LINE",
"329 737 LINE",
"65 737 LINE",
"65 715 LINE",
"186 715 LINE",
"186 22 LINE",
"65 22 LINE",
"65 0 LINE"
);
},
{
closed = 1;
nodes = (
"341.12 794.25 LINE",
"341.12 815.12 LINE",
"52.87 815.12 LINE",
"52.87 794.25 LINE"
);
}
);
width = 394;
}
);
leftKerningGroup = B;
note = Imacron;
rightKerningGroup = H;
unicode = 012A;
},
{
glyphname = Iogonek;
lastChange = "2019-09-03 16:17:47 +0000";
layers = (
{
hints = (
{
horizontal = 1;
place = "{-138.63, 22}";
type = Stem;
},
{
horizontal = 1;
place = "{0, 22}";
type = Stem;
},
{
horizontal = 1;
place = "{715, 22}";
type = Stem;
},
{
place = "{186, 22}";
type = Stem;
},
{
place = "{253.12, 22}";
type = Stem;
}
);
layerId = "0A44E515-E956-4F85-8EFC-D1601816D0DE";
paths = (
{
closed = 1;
nodes = (
"329 -138.63 LINE",
"329 -116.63 LINE",
"307 -116.63 LINE",
"275.12 -84.75 LINE",
"275.12 -42.63 LINE",
"329 0 LINE",
"329 22 LINE",
"208 22 LINE",
"208 715 LINE",
"329 715 LINE",
"329 737 LINE",
"65 737 LINE",
"65 715 LINE",
"186 715 LINE",
"186 22 LINE",
"65 22 LINE",
"65 0 LINE",
"294.87 0 LINE",
"253.12 -33 LINE",
"253.12 -91.25 LINE",
"300.37 -138.63 LINE"
);
}
);
width = 394;
}
);
leftKerningGroup = B;
note = Iogonek;
rightKerningGroup = H;
unicode = 012E;
},
{
glyphname = Itilde;
lastChange = "2019-09-03 16:17:47 +0000";
layers = (
{
hints = (
{
horizontal = 1;
place = "{0, 22}";
type = Stem;
},
{
horizontal = 1;
place = "{715, 22}";
type = Stem;
},
{
horizontal = 1;
place = "{794.25, 20.87}";
type = Stem;
},
{
horizontal = 1;
place = "{871.25, 20.87}";
type = Stem;
},
{
place = "{53.5, 16.49}";
type = Stem;
},
{
place = "{186, 22}";
type = Stem;
},
{
place = "{322.99, 16.51}";
type = Stem;
}
);
layerId = "0A44E515-E956-4F85-8EFC-D1601816D0DE";
paths = (
{
closed = 1;
nodes = (
"329 0 LINE",
"329 22 LINE",
"208 22 LINE",
"208 715 LINE",
"329 715 LINE",
"329 737 LINE",
"65 737 LINE",
"65 715 LINE",
"186 715 LINE",
"186 22 LINE",
"65 22 LINE",
"65 0 LINE"
);
},
{
closed = 1;
nodes = (
"68.37 794.25 LINE",
"71.62 834.87 LINE",
"111.25 871.25 LINE",
"160.75 871.25 LINE",
"236.62 794.25 LINE",
"290.5 794.25 LINE",
"339 843.75 LINE",
"340 892.12 LINE",
"324.62 892.12 LINE",
"321.37 851.37 LINE",
"281.75 815.12 LINE",
"245.5 815.12 LINE",
"169.5 892.12 LINE",
"102.5 892.12 LINE",
"54 842.62 LINE",
"53 794.25 LINE"
);
}
);
width = 394;
}
);
leftKerningGroup = B;
note = Itilde;
rightKerningGroup = H;
unicode = 0128;
},
{
glyphname = J;
lastChange = "2019-09-03 16:17:47 +0000";
layers = (
{
hints = (
{
horizontal = 1;
place = "{0, 22}";
type = Stem;
},
{
place = "{70, 22}";
type = Stem;
},
{
place = "{433, 22}";
type = Stem;
}
);
layerId = "0A44E515-E956-4F85-8EFC-D1601816D0DE";
paths = (
{
closed = 1;
nodes = (
"363.75 0 LINE",
"455 92.37 LINE",
"455 737 LINE",
"433 737 LINE",
"433 99 LINE",
"357.12 22 LINE",
"167.87 22 LINE",
"92 99 LINE",
"92 259.62 LINE",
"70 259.62 LINE",
"70 92.37 LINE",
"161.25 0 LINE"
);
}
);
width = 555;
}
);
leftKerningGroup = J;
note = J;
unicode = 004A;
},
{
glyphname = Jcircumflex;
lastChange = "2019-09-03 16:17:47 +0000";
layers = (
{
hints = (
{
horizontal = 1;
place = "{0, 22}";
type = Stem;
},
{
horizontal = 1;
place = "{911.87, 19.88}";
type = Stem;
},
{
place = "{70, 22}";
type = Stem;
},
{
place = "{433, 22}";
type = Stem;
}
);
layerId = "0A44E515-E956-4F85-8EFC-D1601816D0DE";
paths = (
{
closed = 1;
nodes = (
"363.75 0 LINE",
"455 92.37 LINE",
"455 737 LINE",
"433 737 LINE",
"433 99 LINE",
"357.12 22 LINE",
"167.87 22 LINE",
"92 99 LINE",
"92 259.62 LINE",
"70 259.62 LINE",
"70 92.37 LINE",
"161.25 0 LINE"
);
},
{
closed = 1;
nodes = (
"338.37 794.25 LINE",
"435.25 911.87 LINE",
"452.75 911.87 LINE",
"549.62 794.25 LINE",
"571.62 794.25 LINE",
"467.12 931.75 LINE",
"420.87 931.75 LINE",
"316.37 794.25 LINE"
);
}
);
width = 555;
}
);
note = Jcircumflex;
unicode = 0134;
},
{
glyphname = K;
lastChange = "2019-09-30 12:09:41 +0000";
layers = (
{
hints = (
{
horizontal = 1;
place = "{0, 737}";
type = Stem;
},
{
place = "{100, 22}";
type = Stem;
}
);
layerId = "0A44E515-E956-4F85-8EFC-D1601816D0DE";
paths = (
{
closed = 1;
nodes = (
"122 0 LINE",
"122 259.68 LINE",
"253.39 405.15 LINE",
"544 0 LINE",
"568.5 0 LINE",
"267.24 420.48 LINE",
"553.12 737 LINE",
"525.62 737 LINE",
"122 290.37 LINE",
"122 737 LINE",
"100 737 LINE",
"100 0 LINE"
);
}
);
width = 609;
}
);
leftKerningGroup = B;
note = K;
rightKerningGroup = K;
unicode = 004B;
},
{
glyphname = uni0136;
lastChange = "2019-09-03 16:17:47 +0000";
layers = (
{
hints = (
{
horizontal = 1;
place = "{-216.75, 953.75}";
type = Stem;
},
{
place = "{100, 22}";
type = Stem;
}
);
layerId = "0A44E515-E956-4F85-8EFC-D1601816D0DE";
paths = (
{
closed = 1;
nodes = (
"122 0 LINE",
"122 259.68 LINE",
"253.39 405.15 LINE",
"544 0 LINE",
"568.5 0 LINE",
"267.24 420.48 LINE",
"553.12 737 LINE",
"525.62 737 LINE",
"122 290.37 LINE",
"122 737 LINE",
"100 737 LINE",
"100 0 LINE"
);
},
{
closed = 1;
nodes = (
"286.5 -216.75 LINE",
"331.62 -57.25 LINE",
"305.25 -57.25 LINE",
"267.75 -216.75 LINE"
);
}
);
width = 609;
}
);
leftKerningGroup = B;
note = uni0136;
rightKerningGroup = K;
unicode = 0136;
},
{
glyphname = L;
lastChange = "2019-09-03 16:17:47 +0000";
layers = (
{
hints = (
{
horizontal = 1;
place = "{0, 22}";
type = Stem;
},
{
place = "{100, 22}";
type = Stem;
}
);
layerId = "0A44E515-E956-4F85-8EFC-D1601816D0DE";
paths = (
{
closed = 1;
nodes = (
"524.5 0 LINE",
"524.5 22 LINE",
"122 22 LINE",
"122 737 LINE",
"100 737 LINE",
"100 0 LINE"
);
}
);
width = 535;
}
);
leftKerningGroup = B;
note = L;
rightKerningGroup = L;
unicode = 004C;
},
{
glyphname = uni01C7;
lastChange = "2019-09-03 16:17:47 +0000";
layers = (
{
hints = (
{
horizontal = 1;
place = "{0, 22}";
type = Stem;
},
{
place = "{100, 22}";
type = Stem;
},
{
place = "{612.5, 22}";
type = Stem;
},
{
place = "{975.5, 22}";
type = Stem;
}
);
layerId = "0A44E515-E956-4F85-8EFC-D1601816D0DE";
paths = (
{
closed = 1;
nodes = (
"524.5 0 LINE",
"524.5 22 LINE",
"122 22 LINE",
"122 737 LINE",
"100 737 LINE",
"100 0 LINE"
);
},
{
closed = 1;
nodes = (
"906.25 0 LINE",
"997.5 92.37 LINE",
"997.5 737 LINE",
"975.5 737 LINE",
"975.5 99 LINE",
"899.62 22 LINE",
"710.37 22 LINE",
"634.5 99 LINE",
"634.5 259.62 LINE",
"612.5 259.62 LINE",
"612.5 92.37 LINE",
"703.75 0 LINE"
);
}
);
width = 1098;
}
);
leftKerningGroup = B;
note = uni01C7;
unicode = 01C7;
},
{
glyphname = Lacute;
lastChange = "2019-09-03 16:17:47 +0000";
layers = (
{
hints = (
{
horizontal = 1;
place = "{0, 22}";
type = Stem;
},
{
place = "{100, 22}";
type = Stem;
}
);
layerId = "0A44E515-E956-4F85-8EFC-D1601816D0DE";
paths = (
{
closed = 1;
nodes = (
"524.5 0 LINE",
"524.5 22 LINE",
"122 22 LINE",
"122 737 LINE",
"100 737 LINE",
"100 0 LINE"
);
},
{
closed = 1;
nodes = (
"123.37 794.25 LINE",
"218 932.75 LINE",
"187.25 932.75 LINE",
"102.5 794.25 LINE"
);
}
);
width = 535;
}
);
leftKerningGroup = B;
note = Lacute;
rightKerningGroup = L;
unicode = 0139;
},
{
glyphname = Lcaron;
lastChange = "2019-09-03 16:17:47 +0000";
layers = (
{
hints = (
{
horizontal = 1;
place = "{0, 22}";
type = Stem;
},
{
horizontal = 1;
place = "{577.5, 159.5}";
type = Stem;
},
{
place = "{100, 22}";
type = Stem;
}
);
layerId = "0A44E515-E956-4F85-8EFC-D1601816D0DE";
paths = (
{
closed = 1;
nodes = (
"524.5 0 LINE",
"524.5 22 LINE",
"122 22 LINE",
"122 737 LINE",
"100 737 LINE",
"100 0 LINE"
);
},
{
closed = 1;
nodes = (
"329.75 577.5 LINE",
"374.87 737 LINE",
"348.5 737 LINE",
"311 577.5 LINE"
);
}
);
width = 535;
}
);
leftKerningGroup = B;
note = Lcaron;
rightKerningGroup = L;
unicode = 013D;
},
{
glyphname = uni013B;
lastChange = "2019-09-03 16:17:47 +0000";
layers = (
{
hints = (
{
horizontal = 1;
place = "{0, 22}";
type = Stem;
},
{
place = "{100, 22}";
type = Stem;
}
);
layerId = "0A44E515-E956-4F85-8EFC-D1601816D0DE";
paths = (
{
closed = 1;
nodes = (
"524.5 0 LINE",
"524.5 22 LINE",
"122 22 LINE",
"122 737 LINE",
"100 737 LINE",
"100 0 LINE"
);
},
{
closed = 1;
nodes = (
"280.5 -216.75 LINE",
"325.62 -57.25 LINE",
"299.25 -57.25 LINE",
"261.75 -216.75 LINE"
);
}
);
width = 535;
}
);
leftKerningGroup = B;
note = uni013B;
rightKerningGroup = L;
unicode = 013B;
},
{
glyphname = Ldot;
lastChange = "2019-09-03 16:17:47 +0000";
layers = (
{
hints = (
{
horizontal = 1;
place = "{0, 22}";
type = Stem;
},
{
horizontal = 1;
place = "{330.97, 103.38}";
type = Stem;
},
{
place = "{100, 22}";
type = Stem;
},
{
place = "{322.5, 22}";
type = Stem;
}
);
layerId = "0A44E515-E956-4F85-8EFC-D1601816D0DE";
paths = (
{
closed = 1;
nodes = (
"524.5 0 LINE",
"524.5 22 LINE",
"122 22 LINE",
"122 737 LINE",
"100 737 LINE",
"100 0 LINE"
);
},
{
closed = 1;
nodes = (
"344.5 330.97 LINE",
"344.5 434.35 LINE",
"322.5 434.35 LINE",
"322.5 330.97 LINE"
);
}
);
width = 535;
}
);
leftKerningGroup = B;
note = Ldot;
rightKerningGroup = L;
unicode = 013F;
},
{
glyphname = uni01C8;
lastChange = "2019-09-03 16:17:47 +0000";
layers = (
{
hints = (
{
horizontal = 1;
place = "{-187, 22}";
type = Stem;
},
{
horizontal = 1;
place = "{0, 22}";
type = Stem;
},
{
horizontal = 1;
place = "{579.75, 103.37}";
type = Stem;
},
{
place = "{100, 22}";
type = Stem;
},
{
place = "{639.37, 22}";
type = Stem;
}
);
layerId = "0A44E515-E956-4F85-8EFC-D1601816D0DE";
paths = (
{
closed = 1;
nodes = (
"524.5 0 LINE",
"524.5 22 LINE",
"122 22 LINE",
"122 737 LINE",
"100 737 LINE",
"100 0 LINE"
);
},
{
closed = 1;
nodes = (
"586.5 -187 LINE",
"661.37 -111.13 LINE",
"661.37 522.5 LINE",
"639.37 522.5 LINE",
"639.37 -104.5 LINE",
"579.87 -165 LINE",
"468.87 -165 LINE",
"468.87 -187 LINE"
);
},
{
closed = 1;
nodes = (
"661.37 579.75 LINE",
"661.37 683.12 LINE",
"639.37 683.12 LINE",
"639.37 579.75 LINE"
);
}
);
width = 756;
}
);
leftKerningGroup = B;
note = uni01C8;
rightKerningGroup = uni01C8;
unicode = 01C8;
},
{
glyphname = Lslash;
lastChange = "2019-09-03 16:17:47 +0000";
layers = (
{
hints = (
{
horizontal = 1;
place = "{0, 22}";
type = Stem;
},
{
place = "{100, 22}";
type = Stem;
}
);
layerId = "0A44E515-E956-4F85-8EFC-D1601816D0DE";
paths = (
{
closed = 1;
nodes = (
"524.5 0 LINE",
"524.5 22 LINE",
"122 22 LINE",
"122 368.48 LINE",
"338.12 463.12 LINE",
"338.12 486.25 LINE",
"122 391.6 LINE",
"122 737 LINE",
"100 737 LINE",
"100 381.97 LINE",
"29 350.87 LINE",
"29 327.75 LINE",
"100 358.84 LINE",
"100 0 LINE"
);
}
);
width = 535;
}
);
leftKerningGroup = B;
note = Lslash;
rightKerningGroup = L;
unicode = 0141;
},
{
glyphname = M;
lastChange = "2019-09-03 16:17:47 +0000";
layers = (
{
hints = (
{
horizontal = 1;
place = "{715, 22}";
type = Stem;
},
{
place = "{100, 22}";
type = Stem;
},
{
place = "{740.25, 22}";
type = Stem;
}
);
layerId = "0A44E515-E956-4F85-8EFC-D1601816D0DE";
paths = (
{
closed = 1;
nodes = (
"122 0 LINE",
"122 715 LINE",
"141.87 715 LINE",
"424.5 0 LINE",
"437.75 0 LINE",
"720.37 715 LINE",
"740.25 715 LINE",
"740.25 0 LINE",
"762.25 0 LINE",
"762.25 737 LINE",
"707.25 737 LINE",
"431 38.62 LINE",
"154.75 737 LINE",
"100 737 LINE",
"100 0 LINE"
);
}
);
width = 862;
}
);
leftKerningGroup = B;
note = M;
rightKerningGroup = H;
unicode = 004D;
},
{
glyphname = N;
lastChange = "2019-09-03 16:17:47 +0000";
layers = (
{
hints = (
{
horizontal = 1;
place = "{0, 22}";
type = Stem;
},
{
horizontal = 1;
place = "{715, 22}";
type = Stem;
},
{
place = "{100, 22}";
type = Stem;
},
{
place = "{554.25, 22}";
type = Stem;
}
);
layerId = "0A44E515-E956-4F85-8EFC-D1601816D0DE";
paths = (
{
closed = 1;
nodes = (
"122 0 LINE",
"122 715 LINE",
"141.75 715 LINE",
"523.5 0 LINE",
"576.25 0 LINE",
"576.25 737 LINE",
"554.25 737 LINE",
"554.25 22 LINE",
"534.5 22 LINE",
"152.75 737 LINE",
"100 737 LINE",
"100 0 LINE"
);
}
);
width = 676;
}
);
leftKerningGroup = B;
note = N;
rightKerningGroup = H;
unicode = 004E;
},
{
glyphname = uni01CA;
lastChange = "2019-09-03 16:17:47 +0000";
layers = (
{
hints = (
{
horizontal = 1;
place = "{0, 22}";
type = Stem;
},
{
horizontal = 1;
place = "{715, 22}";
type = Stem;
},
{
place = "{100, 22}";
type = Stem;
},
{
place = "{554.25, 22}";
type = Stem;
},
{
place = "{769, 22}";
type = Stem;
},
{
place = "{1132, 22}";
type = Stem;
}
);
layerId = "0A44E515-E956-4F85-8EFC-D1601816D0DE";
paths = (
{
closed = 1;
nodes = (
"122 0 LINE",
"122 715 LINE",
"141.75 715 LINE",
"523.5 0 LINE",
"576.25 0 LINE",
"576.25 737 LINE",
"554.25 737 LINE",
"554.25 22 LINE",
"534.5 22 LINE",
"152.75 737 LINE",
"100 737 LINE",
"100 0 LINE"
);
},
{
closed = 1;
nodes = (
"1062.75 0 LINE",
"1154 92.37 LINE",
"1154 737 LINE",
"1132 737 LINE",
"1132 99 LINE",
"1056.12 22 LINE",
"866.87 22 LINE",
"791 99 LINE",
"791 259.62 LINE",
"769 259.62 LINE",
"769 92.37 LINE",
"860.25 0 LINE"
);
}
);
width = 1254;
}
);
leftKerningGroup = B;
note = uni01CA;
unicode = 01CA;
},
{
glyphname = Nacute;
lastChange = "2019-09-03 16:17:47 +0000";
layers = (
{
hints = (
{
horizontal = 1;
place = "{0, 22}";
type = Stem;
},
{
horizontal = 1;
place = "{715, 22}";
type = Stem;
},
{
place = "{100, 22}";
type = Stem;
},
{
place = "{554.25, 22}";
type = Stem;
}
);
layerId = "0A44E515-E956-4F85-8EFC-D1601816D0DE";
paths = (
{
closed = 1;
nodes = (
"122 0 LINE",
"122 715 LINE",
"141.75 715 LINE",
"523.5 0 LINE",
"576.25 0 LINE",
"576.25 737 LINE",
"554.25 737 LINE",
"554.25 22 LINE",
"534.5 22 LINE",
"152.75 737 LINE",
"100 737 LINE",
"100 0 LINE"
);
},
{
closed = 1;
nodes = (
"367.25 794.25 LINE",
"461.87 932.75 LINE",
"431.12 932.75 LINE",
"346.37 794.25 LINE"
);
}
);
width = 676;
}
);
leftKerningGroup = B;
note = Nacute;
rightKerningGroup = H;
unicode = 0143;
},
{
glyphname = Ncaron;
lastChange = "2019-09-03 16:17:47 +0000";
layers = (
{
hints = (
{
horizontal = 1;
place = "{0, 22}";
type = Stem;
},
{
horizontal = 1;
place = "{715, 22}";
type = Stem;
},
{
horizontal = 1;
place = "{794.25, 19.87}";
type = Stem;
},
{
place = "{100, 22}";
type = Stem;
},
{
place = "{554.25, 22}";
type = Stem;
}
);
layerId = "0A44E515-E956-4F85-8EFC-D1601816D0DE";
paths = (
{
closed = 1;
nodes = (
"122 0 LINE",
"122 715 LINE",
"141.75 715 LINE",
"523.5 0 LINE",
"576.25 0 LINE",
"576.25 737 LINE",
"554.25 737 LINE",
"554.25 22 LINE",
"534.5 22 LINE",
"152.75 737 LINE",
"100 737 LINE",
"100 0 LINE"
);
},
{
closed = 1;
nodes = (
"376.87 794.25 LINE",
"481.37 931.75 LINE",
"459.37 931.75 LINE",
"362.5 814.12 LINE",
"345 814.12 LINE",
"248.12 931.75 LINE",
"226.12 931.75 LINE",
"330.62 794.25 LINE"
);
}
);
width = 676;
}
);
leftKerningGroup = B;
note = Ncaron;
rightKerningGroup = H;
unicode = 0147;
},
{
glyphname = uni0145;
lastChange = "2019-09-03 16:17:47 +0000";
layers = (
{
hints = (
{
horizontal = 1;
place = "{0, 22}";
type = Stem;
},
{
horizontal = 1;
place = "{715, 22}";
type = Stem;
},
{
place = "{100, 22}";
type = Stem;
},
{
place = "{554.25, 22}";
type = Stem;
}
);
layerId = "0A44E515-E956-4F85-8EFC-D1601816D0DE";
paths = (
{
closed = 1;
nodes = (
"122 0 LINE",
"122 715 LINE",
"141.75 715 LINE",
"523.5 0 LINE",
"576.25 0 LINE",
"576.25 737 LINE",
"554.25 737 LINE",
"554.25 22 LINE",
"534.5 22 LINE",
"152.75 737 LINE",
"100 737 LINE",
"100 0 LINE"
);
},
{
closed = 1;
nodes = (
"309.12 -216.75 LINE",
"354.25 -57.25 LINE",
"327.87 -57.25 LINE",
"290.37 -216.75 LINE"
);
}
);
width = 676;
}
);
leftKerningGroup = B;
note = uni0145;
rightKerningGroup = H;
unicode = 0145;
},
{
glyphname = Eng;
lastChange = "2019-09-03 16:17:47 +0000";
layers = (
{
hints = (
{
horizontal = 1;
place = "{-187, 22}";
type = Stem;
},
{
horizontal = 1;
place = "{0, 22}";
type = Stem;
},
{
horizontal = 1;
place = "{715, 22}";
type = Stem;
},
{
place = "{100, 22}";
type = Stem;
},
{
place = "{554.25, 22}";
type = Stem;
}
);
layerId = "0A44E515-E956-4F85-8EFC-D1601816D0DE";
paths = (
{
closed = 1;
nodes = (
"505.87 -187 LINE",
"576.25 -111.13 LINE",
"576.25 737 LINE",
"554.25 737 LINE",
"554.25 22 LINE",
"534.5 22 LINE",
"152.75 737 LINE",
"100 737 LINE",
"100 0 LINE",
"122 0 LINE",
"122 715 LINE",
"141.75 715 LINE",
"523.5 0 LINE",
"554.25 0 LINE",
"554.25 -102.25 LINE",
"496 -165 LINE",
"383.75 -165 LINE",
"383.75 -187 LINE"
);
}
);
width = 676;
}
);
leftKerningGroup = B;
note = Eng;
rightKerningGroup = H;
unicode = 014A;
},
{
glyphname = uni01CB;
lastChange = "2019-09-03 16:17:47 +0000";
layers = (
{
hints = (
{
horizontal = 1;
place = "{-187, 22}";
type = Stem;
},
{
horizontal = 1;
place = "{0, 22}";
type = Stem;
},
{
horizontal = 1;
place = "{579.75, 103.37}";
type = Stem;
},
{
horizontal = 1;
place = "{715, 22}";
type = Stem;
},
{
place = "{100, 22}";
type = Stem;
},
{
place = "{554.25, 22}";
type = Stem;
},
{
place = "{796.5, 22}";
type = Stem;
}
);
layerId = "0A44E515-E956-4F85-8EFC-D1601816D0DE";
paths = (
{
closed = 1;
nodes = (
"122 0 LINE",
"122 715 LINE",
"141.75 715 LINE",
"523.5 0 LINE",
"576.25 0 LINE",
"576.25 737 LINE",
"554.25 737 LINE",
"554.25 22 LINE",
"534.5 22 LINE",
"152.75 737 LINE",
"100 737 LINE",
"100 0 LINE"
);
},
{
closed = 1;
nodes = (
"743.62 -187 LINE",
"818.5 -111.13 LINE",
"818.5 522.5 LINE",
"796.5 522.5 LINE",
"796.5 -104.5 LINE",
"737 -165 LINE",
"626 -165 LINE",
"626 -187 LINE"
);
},
{
closed = 1;
nodes = (
"818.5 579.75 LINE",
"818.5 683.12 LINE",
"796.5 683.12 LINE",
"796.5 579.75 LINE"
);
}
);
width = 914;
}
);
leftKerningGroup = B;
note = uni01CB;
rightKerningGroup = uni01C8;
unicode = 01CB;
},
{
glyphname = Ntilde;
lastChange = "2019-09-03 16:17:47 +0000";
layers = (
{
hints = (
{
horizontal = 1;
place = "{0, 22}";
type = Stem;
},
{
horizontal = 1;
place = "{715, 22}";
type = Stem;
},
{
horizontal = 1;
place = "{794.25, 20.87}";
type = Stem;
},
{
horizontal = 1;
place = "{871.25, 20.87}";
type = Stem;
},
{
place = "{100, 22}";
type = Stem;
},
{
place = "{211.37, 16.5}";
type = Stem;
},
{
place = "{480.87, 16.5}";
type = Stem;
},
{
place = "{554.25, 22}";
type = Stem;
}
);
layerId = "0A44E515-E956-4F85-8EFC-D1601816D0DE";
paths = (
{
closed = 1;
nodes = (
"122 0 LINE",
"122 715 LINE",
"141.75 715 LINE",
"523.5 0 LINE",
"576.25 0 LINE",
"576.25 737 LINE",
"554.25 737 LINE",
"554.25 22 LINE",
"534.5 22 LINE",
"152.75 737 LINE",
"100 737 LINE",
"100 0 LINE"
);
},
{
closed = 1;
nodes = (
"226.25 794.25 LINE",
"229.5 834.87 LINE",
"269.12 871.25 LINE",
"318.62 871.25 LINE",
"394.5 794.25 LINE",
"448.37 794.25 LINE",
"496.87 843.75 LINE",
"497.87 892.12 LINE",
"482.5 892.12 LINE",
"479.25 851.37 LINE",
"439.62 815.12 LINE",
"403.37 815.12 LINE",
"327.37 892.12 LINE",
"260.37 892.12 LINE",
"211.87 842.62 LINE",
"210.87 794.25 LINE"
);
}
);
width = 676;
}
);
leftKerningGroup = B;
note = Ntilde;
rightKerningGroup = H;
unicode = 00D1;
},
{
glyphname = O;
lastChange = "2019-09-03 16:17:47 +0000";
layers = (
{
hints = (
{
horizontal = 1;
place = "{0, 22}";
type = Stem;
},
{
horizontal = 1;
place = "{715, 22}";
type = Stem;
},
{
place = "{85, 22}";
type = Stem;
},
{
place = "{569, 22}";
type = Stem;
}
);
layerId = "0A44E515-E956-4F85-8EFC-D1601816D0DE";
paths = (
{
closed = 1;
nodes = (
"499.75 0 LINE",
"591 92.37 LINE",
"591 644.62 LINE",
"499.75 737 LINE",
"176.25 737 LINE",
"85 644.62 LINE",
"85 92.37 LINE",
"176.25 0 LINE"
);
},
{
closed = 1;
nodes = (
"107 99 LINE",
"107 638 LINE",
"182.87 715 LINE",
"493.12 715 LINE",
"569 638 LINE",
"569 99 LINE",
"493.12 22 LINE",
"182.87 22 LINE"
);
}
);
width = 676;
}
);
note = O;
rightKerningGroup = O;
unicode = 004F;
},
{
glyphname = Oacute;
lastChange = "2019-09-03 16:17:47 +0000";
layers = (
{
hints = (
{
horizontal = 1;
place = "{0, 22}";
type = Stem;
},
{
horizontal = 1;
place = "{715, 22}";
type = Stem;
},
{
place = "{85, 22}";
type = Stem;
},
{
place = "{569, 22}";
type = Stem;
}
);
layerId = "0A44E515-E956-4F85-8EFC-D1601816D0DE";
paths = (
{
closed = 1;
nodes = (
"499.75 0 LINE",
"591 92.37 LINE",
"591 644.62 LINE",
"499.75 737 LINE",
"176.25 737 LINE",
"85 644.62 LINE",
"85 92.37 LINE",
"176.25 0 LINE"
);
},
{
closed = 1;
nodes = (
"107 99 LINE",
"107 638 LINE",
"182.87 715 LINE",
"493.12 715 LINE",
"569 638 LINE",
"569 99 LINE",
"493.12 22 LINE",
"182.87 22 LINE"
);
},
{
closed = 1;
nodes = (
"350.37 794.25 LINE",
"445 932.75 LINE",
"414.25 932.75 LINE",
"329.5 794.25 LINE"
);
}
);
width = 676;
}
);
note = Oacute;
rightKerningGroup = O;
unicode = 00D3;
},
{
glyphname = Obreve;
lastChange = "2019-09-03 16:17:47 +0000";
layers = (
{
hints = (
{
horizontal = 1;
place = "{0, 22}";
type = Stem;
},
{
horizontal = 1;
place = "{715, 22}";
type = Stem;
},
{
horizontal = 1;
place = "{794.25, 20.87}";
type = Stem;
},
{
place = "{85, 22}";
type = Stem;
},
{
place = "{225.75, 21}";
type = Stem;
},
{
place = "{429.25, 21}";
type = Stem;
},
{
place = "{569, 22}";
type = Stem;
}
);
layerId = "0A44E515-E956-4F85-8EFC-D1601816D0DE";
paths = (
{
closed = 1;
nodes = (
"499.75 0 LINE",
"591 92.37 LINE",
"591 644.62 LINE",
"499.75 737 LINE",
"176.25 737 LINE",
"85 644.62 LINE",
"85 92.37 LINE",
"176.25 0 LINE"
);
},
{
closed = 1;
nodes = (
"107 99 LINE",
"107 638 LINE",
"182.87 715 LINE",
"493.12 715 LINE",
"569 638 LINE",
"569 99 LINE",
"493.12 22 LINE",
"182.87 22 LINE"
);
},
{
closed = 1;
nodes = (
"400.75 794.25 LINE",
"450.25 843.75 LINE",
"450.25 910.75 LINE",
"429.25 910.75 LINE",
"429.25 850.25 LINE",
"394.12 815.12 LINE",
"281.87 815.12 LINE",
"246.75 850.25 LINE",
"246.75 910.75 LINE",
"225.75 910.75 LINE",
"225.75 843.75 LINE",
"275.25 794.25 LINE"
);
}
);
width = 676;
}
);
note = Obreve;
rightKerningGroup = O;
unicode = 014E;
},
{
glyphname = Ocircumflex;
lastChange = "2019-09-03 16:17:47 +0000";
layers = (
{
hints = (
{
horizontal = 1;
place = "{0, 22}";
type = Stem;
},
{
horizontal = 1;
place = "{715, 22}";
type = Stem;
},
{
horizontal = 1;
place = "{911.87, 19.88}";
type = Stem;
},
{
place = "{85, 22}";
type = Stem;
},
{
place = "{569, 22}";
type = Stem;
}
);
layerId = "0A44E515-E956-4F85-8EFC-D1601816D0DE";
paths = (
{
closed = 1;
nodes = (
"499.75 0 LINE",
"591 92.37 LINE",
"591 644.62 LINE",
"499.75 737 LINE",
"176.25 737 LINE",
"85 644.62 LINE",
"85 92.37 LINE",
"176.25 0 LINE"
);
},
{
closed = 1;
nodes = (
"107 99 LINE",
"107 638 LINE",
"182.87 715 LINE",
"493.12 715 LINE",
"569 638 LINE",
"569 99 LINE",
"493.12 22 LINE",
"182.87 22 LINE"
);
},
{
closed = 1;
nodes = (
"232.37 794.25 LINE",
"329.25 911.87 LINE",
"346.75 911.87 LINE",
"443.62 794.25 LINE",
"465.62 794.25 LINE",
"361.12 931.75 LINE",
"314.87 931.75 LINE",
"210.37 794.25 LINE"
);
}
);
width = 676;
}
);
note = Ocircumflex;
rightKerningGroup = O;
unicode = 00D4;
},
{
glyphname = uni1ED0;
lastChange = "2019-09-03 16:17:47 +0000";
layers = (
{
hints = (
{
horizontal = 1;
place = "{0, 22}";
type = Stem;
},
{
horizontal = 1;
place = "{715, 22}";
type = Stem;
},
{
horizontal = 1;
place = "{911.87, 19.88}";
type = Stem;
},
{
place = "{85, 22}";
type = Stem;
},
{
place = "{569, 22}";
type = Stem;
}
);
layerId = "0A44E515-E956-4F85-8EFC-D1601816D0DE";
paths = (
{
closed = 1;
nodes = (
"499.75 0 LINE",
"591 92.37 LINE",
"591 644.62 LINE",
"499.75 737 LINE",
"176.25 737 LINE",
"85 644.62 LINE",
"85 92.37 LINE",
"176.25 0 LINE"
);
},
{
closed = 1;
nodes = (
"107 99 LINE",
"107 638 LINE",
"182.87 715 LINE",
"493.12 715 LINE",
"569 638 LINE",
"569 99 LINE",
"493.12 22 LINE",
"182.87 22 LINE"
);
},
{
closed = 1;
nodes = (
"232.37 794.25 LINE",
"329.25 911.87 LINE",
"346.75 911.87 LINE",
"443.62 794.25 LINE",
"465.62 794.25 LINE",
"361.12 931.75 LINE",
"314.87 931.75 LINE",
"210.37 794.25 LINE"
);
},
{
closed = 1;
nodes = (
"485.25 859.75 LINE",
"579.87 998.25 LINE",
"549.12 998.25 LINE",
"464.37 859.75 LINE"
);
}
);
width = 676;
}
);
note = uni1ED0;
rightKerningGroup = O;
unicode = 1ED0;
},
{
glyphname = uni1ED8;
lastChange = "2019-09-03 16:17:47 +0000";
layers = (
{
hints = (
{
horizontal = 1;
place = "{-160.63, 103.38}";
type = Stem;
},
{
horizontal = 1;
place = "{0, 22}";
type = Stem;
},
{
horizontal = 1;
place = "{715, 22}";
type = Stem;
},
{
horizontal = 1;
place = "{911.87, 19.88}";
type = Stem;
},
{
place = "{85, 22}";
type = Stem;
},
{
place = "{327, 22}";
type = Stem;
},
{
place = "{569, 22}";
type = Stem;
}
);
layerId = "0A44E515-E956-4F85-8EFC-D1601816D0DE";
paths = (
{
closed = 1;
nodes = (
"499.75 0 LINE",
"591 92.37 LINE",
"591 644.62 LINE",
"499.75 737 LINE",
"176.25 737 LINE",
"85 644.62 LINE",
"85 92.37 LINE",
"176.25 0 LINE"
);
},
{
closed = 1;
nodes = (
"349 -160.63 LINE",
"349 -57.25 LINE",
"327 -57.25 LINE",
"327 -160.63 LINE"
);
},
{
closed = 1;
nodes = (
"107 99 LINE",
"107 638 LINE",
"182.87 715 LINE",
"493.12 715 LINE",
"569 638 LINE",
"569 99 LINE",
"493.12 22 LINE",
"182.87 22 LINE"
);
},
{
closed = 1;
nodes = (
"232.37 794.25 LINE",
"329.25 911.87 LINE",
"346.75 911.87 LINE",
"443.62 794.25 LINE",
"465.62 794.25 LINE",
"361.12 931.75 LINE",
"314.87 931.75 LINE",
"210.37 794.25 LINE"
);
}
);
width = 676;
}
);
note = uni1ED8;
rightKerningGroup = O;
unicode = 1ED8;
},
{
glyphname = uni1ED2;
lastChange = "2019-09-03 16:17:47 +0000";
layers = (
{
hints = (
{
horizontal = 1;
place = "{0, 22}";
type = Stem;
},
{
horizontal = 1;
place = "{715, 22}";
type = Stem;
},
{
horizontal = 1;
place = "{911.87, 19.88}";
type = Stem;
},
{
place = "{85, 22}";
type = Stem;
},
{
place = "{569, 22}";
type = Stem;
}
);
layerId = "0A44E515-E956-4F85-8EFC-D1601816D0DE";
paths = (
{
closed = 1;
nodes = (
"499.75 0 LINE",
"591 92.37 LINE",
"591 644.62 LINE",
"499.75 737 LINE",
"176.25 737 LINE",
"85 644.62 LINE",
"85 92.37 LINE",
"176.25 0 LINE"
);
},
{
closed = 1;
nodes = (
"107 99 LINE",
"107 638 LINE",
"182.87 715 LINE",
"493.12 715 LINE",
"569 638 LINE",
"569 99 LINE",
"493.12 22 LINE",
"182.87 22 LINE"
);
},
{
closed = 1;
nodes = (
"223 859.75 LINE",
"138.25 998.25 LINE",
"107.5 998.25 LINE",
"202.12 859.75 LINE"
);
},
{
closed = 1;
nodes = (
"232.37 794.25 LINE",
"329.25 911.87 LINE",
"346.75 911.87 LINE",
"443.62 794.25 LINE",
"465.62 794.25 LINE",
"361.12 931.75 LINE",
"314.87 931.75 LINE",
"210.37 794.25 LINE"
);
}
);
width = 676;
}
);
note = uni1ED2;
rightKerningGroup = O;
unicode = 1ED2;
},
{
glyphname = uni1ED4;
lastChange = "2019-09-03 16:17:47 +0000";
layers = (
{
hints = (
{
horizontal = 1;
place = "{0, 22}";
type = Stem;
},
{
horizontal = 1;
place = "{715, 22}";
type = Stem;
},
{
horizontal = 1;
place = "{859.75, 36.75}";
type = Stem;
},
{
horizontal = 1;
place = "{911.87, 19.88}";
type = Stem;
},
{
horizontal = 1;
place = "{1026.5, 21.62}";
type = Stem;
},
{
place = "{85, 22}";
type = Stem;
},
{
place = "{452, 21.37}";
type = Stem;
},
{
place = "{519.5, 21.5}";
type = Stem;
},
{
place = "{569, 22}";
type = Stem;
}
);
layerId = "0A44E515-E956-4F85-8EFC-D1601816D0DE";
paths = (
{
closed = 1;
nodes = (
"499.75 0 LINE",
"591 92.37 LINE",
"591 644.62 LINE",
"499.75 737 LINE",
"176.25 737 LINE",
"85 644.62 LINE",
"85 92.37 LINE",
"176.25 0 LINE"
);
},
{
closed = 1;
nodes = (
"107 99 LINE",
"107 638 LINE",
"182.87 715 LINE",
"493.12 715 LINE",
"569 638 LINE",
"569 99 LINE",
"493.12 22 LINE",
"182.87 22 LINE"
);
},
{
closed = 1;
nodes = (
"232.37 794.25 LINE",
"329.25 911.87 LINE",
"346.75 911.87 LINE",
"443.62 794.25 LINE",
"465.62 794.25 LINE",
"361.12 931.75 LINE",
"314.87 931.75 LINE",
"210.37 794.25 LINE"
);
},
{
closed = 1;
nodes = (
"473.37 859.75 LINE",
"473.37 888.25 LINE",
"541 954.62 LINE",
"541 1014.5 LINE",
"508.87 1048.12 LINE",
"435.25 1048.12 LINE",
"397.62 1007.87 LINE",
"413.37 993.12 LINE",
"444.62 1026.5 LINE",
"499.87 1026.5 LINE",
"519.5 1005.87 LINE",
"519.5 962.87 LINE",
"452 896.5 LINE",
"452 859.75 LINE"
);
}
);
width = 676;
}
);
note = uni1ED4;
rightKerningGroup = O;
unicode = 1ED4;
},
{
glyphname = uni1ED6;
lastChange = "2019-09-03 16:17:47 +0000";
layers = (
{
hints = (
{
horizontal = 1;
place = "{0, 22}";
type = Stem;
},
{
horizontal = 1;
place = "{715, 22}";
type = Stem;
},
{
horizontal = 1;
place = "{952.87, 20.88}";
type = Stem;
},
{
horizontal = 1;
place = "{1029.87, 20.88}";
type = Stem;
},
{
place = "{85, 22}";
type = Stem;
},
{
place = "{204, 16.49}";
type = Stem;
},
{
place = "{473.49, 16.51}";
type = Stem;
},
{
place = "{569, 22}";
type = Stem;
},
{
horizontal = 1;
place = "{911.87, 19.88}";
type = Stem;
}
);
layerId = "0A44E515-E956-4F85-8EFC-D1601816D0DE";
paths = (
{
closed = 1;
nodes = (
"499.75 0 LINE",
"591 92.37 LINE",
"591 644.62 LINE",
"499.75 737 LINE",
"176.25 737 LINE",
"85 644.62 LINE",
"85 92.37 LINE",
"176.25 0 LINE"
);
},
{
closed = 1;
nodes = (
"107 99 LINE",
"107 638 LINE",
"182.87 715 LINE",
"493.12 715 LINE",
"569 638 LINE",
"569 99 LINE",
"493.12 22 LINE",
"182.87 22 LINE"
);
},
{
closed = 1;
nodes = (
"232.37 794.25 LINE",
"329.25 911.87 LINE",
"346.75 911.87 LINE",
"443.62 794.25 LINE",
"465.62 794.25 LINE",
"361.12 931.75 LINE",
"314.87 931.75 LINE",
"210.37 794.25 LINE"
);
},
{
closed = 1;
nodes = (
"218.87 952.87 LINE",
"222.12 993.5 LINE",
"261.75 1029.87 LINE",
"311.25 1029.87 LINE",
"387.12 952.87 LINE",
"441 952.87 LINE",
"489.5 1002.37 LINE",
"490.5 1050.75 LINE",
"475.12 1050.75 LINE",
"471.87 1010 LINE",
"432.25 973.75 LINE",
"396 973.75 LINE",
"320 1050.75 LINE",
"253 1050.75 LINE",
"204.5 1001.25 LINE",
"203.5 952.87 LINE"
);
}
);
width = 676;
}
);
note = uni1ED6;
rightKerningGroup = O;
unicode = 1ED6;
},
{
glyphname = uni020C;
lastChange = "2019-09-03 16:17:47 +0000";
layers = (
{
hints = (
{
horizontal = 1;
place = "{0, 22}";
type = Stem;
},
{
horizontal = 1;
place = "{715, 22}";
type = Stem;
},
{
horizontal = 1;
place = "{794.25, 138.5}";
type = Stem;
},
{
place = "{85, 22}";
type = Stem;
},
{
place = "{569, 22}";
type = Stem;
}
);
layerId = "0A44E515-E956-4F85-8EFC-D1601816D0DE";
paths = (
{
closed = 1;
nodes = (
"499.75 0 LINE",
"591 92.37 LINE",
"591 644.62 LINE",
"499.75 737 LINE",
"176.25 737 LINE",
"85 644.62 LINE",
"85 92.37 LINE",
"176.25 0 LINE"
);
},
{
closed = 1;
nodes = (
"107 99 LINE",
"107 638 LINE",
"182.87 715 LINE",
"493.12 715 LINE",
"569 638 LINE",
"569 99 LINE",
"493.12 22 LINE",
"182.87 22 LINE"
);
},
{
closed = 1;
nodes = (
"293.5 794.25 LINE",
"208.75 932.75 LINE",
"178 932.75 LINE",
"272.62 794.25 LINE"
);
},
{
closed = 1;
nodes = (
"403.5 794.25 LINE",
"318.75 932.75 LINE",
"288 932.75 LINE",
"382.62 794.25 LINE"
);
}
);
width = 676;
}
);
note = uni020C;
rightKerningGroup = O;
unicode = 020C;
},
{
glyphname = Odieresis;
lastChange = "2019-09-03 16:17:47 +0000";
layers = (
{
hints = (
{
horizontal = 1;
place = "{0, 22}";
type = Stem;
},
{
horizontal = 1;
place = "{715, 22}";
type = Stem;
},
{
horizontal = 1;
place = "{794.25, 103.5}";
type = Stem;
},
{
place = "{85, 22}";
type = Stem;
},
{
place = "{193.87, 22}";
type = Stem;
},
{
place = "{460.12, 22}";
type = Stem;
},
{
place = "{569, 22}";
type = Stem;
}
);
layerId = "0A44E515-E956-4F85-8EFC-D1601816D0DE";
paths = (
{
closed = 1;
nodes = (
"499.75 0 LINE",
"591 92.37 LINE",
"591 644.62 LINE",
"499.75 737 LINE",
"176.25 737 LINE",
"85 644.62 LINE",
"85 92.37 LINE",
"176.25 0 LINE"
);
},
{
closed = 1;
nodes = (
"107 99 LINE",
"107 638 LINE",
"182.87 715 LINE",
"493.12 715 LINE",
"569 638 LINE",
"569 99 LINE",
"493.12 22 LINE",
"182.87 22 LINE"
);
},
{
closed = 1;
nodes = (
"215.87 794.25 LINE",
"215.87 897.75 LINE",
"193.87 897.75 LINE",
"193.87 794.25 LINE"
);
},
{
closed = 1;
nodes = (
"482.12 794.25 LINE",
"482.12 897.75 LINE",
"460.12 897.75 LINE",
"460.12 794.25 LINE"
);
}
);
width = 676;
}
);
note = Odieresis;
rightKerningGroup = O;
unicode = 00D6;
},
{
glyphname = uni022A;
lastChange = "2019-09-03 16:17:47 +0000";
layers = (
{
hints = (
{
horizontal = 1;
place = "{0, 22}";
type = Stem;
},
{
horizontal = 1;
place = "{715, 22}";
type = Stem;
},
{
horizontal = 1;
place = "{931.37, 20.88}";
type = Stem;
},
{
place = "{85, 22}";
type = Stem;
},
{
place = "{193.87, 22}";
type = Stem;
},
{
place = "{460.12, 22}";
type = Stem;
},
{
place = "{569, 22}";
type = Stem;
}
);
layerId = "0A44E515-E956-4F85-8EFC-D1601816D0DE";
paths = (
{
closed = 1;
nodes = (
"499.75 0 LINE",
"591 92.37 LINE",
"591 644.62 LINE",
"499.75 737 LINE",
"176.25 737 LINE",
"85 644.62 LINE",
"85 92.37 LINE",
"176.25 0 LINE"
);
},
{
closed = 1;
nodes = (
"107 99 LINE",
"107 638 LINE",
"182.87 715 LINE",
"493.12 715 LINE",
"569 638 LINE",
"569 99 LINE",
"493.12 22 LINE",
"182.87 22 LINE"
);
},
{
closed = 1;
nodes = (
"215.87 794.25 LINE",
"215.87 897.75 LINE",
"193.87 897.75 LINE",
"193.87 794.25 LINE"
);
},
{
closed = 1;
nodes = (
"482.12 931.37 LINE",
"482.12 952.25 LINE",
"193.87 952.25 LINE",
"193.87 931.37 LINE"
);
},
{
closed = 1;
nodes = (
"482.12 794.25 LINE",
"482.12 897.75 LINE",
"460.12 897.75 LINE",
"460.12 794.25 LINE"
);
}
);
width = 676;
}
);
note = uni022A;
rightKerningGroup = O;
unicode = 022A;
},
{
glyphname = uni0230;
lastChange = "2019-09-03 16:17:47 +0000";
layers = (
{
hints = (
{
horizontal = 1;
place = "{0, 22}";
type = Stem;
},
{
horizontal = 1;
place = "{715, 22}";
type = Stem;
},
{
horizontal = 1;
place = "{794.25, 103.37}";
type = Stem;
},
{
horizontal = 1;
place = "{931.37, 20.88}";
type = Stem;
},
{
place = "{85, 22}";
type = Stem;
},
{
place = "{327, 22}";
type = Stem;
},
{
place = "{569, 22}";
type = Stem;
}
);
layerId = "0A44E515-E956-4F85-8EFC-D1601816D0DE";
paths = (
{
closed = 1;
nodes = (
"499.75 0 LINE",
"591 92.37 LINE",
"591 644.62 LINE",
"499.75 737 LINE",
"176.25 737 LINE",
"85 644.62 LINE",
"85 92.37 LINE",
"176.25 0 LINE"
);
},
{
closed = 1;
nodes = (
"107 99 LINE",
"107 638 LINE",
"182.87 715 LINE",
"493.12 715 LINE",
"569 638 LINE",
"569 99 LINE",
"493.12 22 LINE",
"182.87 22 LINE"
);
},
{
closed = 1;
nodes = (
"349 794.25 LINE",
"349 897.62 LINE",
"327 897.62 LINE",
"327 794.25 LINE"
);
},
{
closed = 1;
nodes = (
"482.12 931.37 LINE",
"482.12 952.25 LINE",
"193.87 952.25 LINE",
"193.87 931.37 LINE"
);
}
);
width = 676;
}
);
note = uni0230;
rightKerningGroup = O;
unicode = 0230;
},
{
glyphname = uni1ECC;
lastChange = "2019-09-03 16:17:47 +0000";
layers = (
{
hints = (
{
horizontal = 1;
place = "{-160.63, 103.38}";
type = Stem;
},
{
horizontal = 1;
place = "{0, 22}";
type = Stem;
},
{
horizontal = 1;
place = "{715, 22}";
type = Stem;
},
{
place = "{85, 22}";
type = Stem;
},
{
place = "{327, 22}";
type = Stem;
},
{
place = "{569, 22}";
type = Stem;
}
);
layerId = "0A44E515-E956-4F85-8EFC-D1601816D0DE";
paths = (
{
closed = 1;
nodes = (
"499.75 0 LINE",
"591 92.37 LINE",
"591 644.62 LINE",
"499.75 737 LINE",
"176.25 737 LINE",
"85 644.62 LINE",
"85 92.37 LINE",
"176.25 0 LINE"
);
},
{
closed = 1;
nodes = (
"349 -160.63 LINE",
"349 -57.25 LINE",
"327 -57.25 LINE",
"327 -160.63 LINE"
);
},
{
closed = 1;
nodes = (
"107 99 LINE",
"107 638 LINE",
"182.87 715 LINE",
"493.12 715 LINE",
"569 638 LINE",
"569 99 LINE",
"493.12 22 LINE",
"182.87 22 LINE"
);
}
);
width = 676;
}
);
note = uni1ECC;
rightKerningGroup = O;
unicode = 1ECC;
},
{
glyphname = Ograve;
lastChange = "2019-09-03 16:17:47 +0000";
layers = (
{
hints = (
{
horizontal = 1;
place = "{0, 22}";
type = Stem;
},
{
horizontal = 1;
place = "{715, 22}";
type = Stem;
},
{
place = "{85, 22}";
type = Stem;
},
{
place = "{569, 22}";
type = Stem;
}
);
layerId = "0A44E515-E956-4F85-8EFC-D1601816D0DE";
paths = (
{
closed = 1;
nodes = (
"499.75 0 LINE",
"591 92.37 LINE",
"591 644.62 LINE",
"499.75 737 LINE",
"176.25 737 LINE",
"85 644.62 LINE",
"85 92.37 LINE",
"176.25 0 LINE"
);
},
{
closed = 1;
nodes = (
"107 99 LINE",
"107 638 LINE",
"182.87 715 LINE",
"493.12 715 LINE",
"569 638 LINE",
"569 99 LINE",
"493.12 22 LINE",
"182.87 22 LINE"
);
},
{
closed = 1;
nodes = (
"346 794.25 LINE",
"261.25 932.75 LINE",
"230.5 932.75 LINE",
"325.12 794.25 LINE"
);
}
);
width = 676;
}
);
note = Ograve;
rightKerningGroup = O;
unicode = 00D2;
},
{
glyphname = uni1ECE;
lastChange = "2019-09-03 16:17:47 +0000";
layers = (
{
hints = (
{
horizontal = 1;
place = "{0, 22}";
type = Stem;
},
{
horizontal = 1;
place = "{715, 22}";
type = Stem;
},
{
horizontal = 1;
place = "{794.25, 36.75}";
type = Stem;
},
{
horizontal = 1;
place = "{961, 21.62}";
type = Stem;
},
{
place = "{85, 22}";
type = Stem;
},
{
place = "{329.87, 21.38}";
type = Stem;
},
{
place = "{397.37, 21.5}";
type = Stem;
},
{
place = "{569, 22}";
type = Stem;
}
);
layerId = "0A44E515-E956-4F85-8EFC-D1601816D0DE";
paths = (
{
closed = 1;
nodes = (
"499.75 0 LINE",
"591 92.37 LINE",
"591 644.62 LINE",
"499.75 737 LINE",
"176.25 737 LINE",
"85 644.62 LINE",
"85 92.37 LINE",
"176.25 0 LINE"
);
},
{
closed = 1;
nodes = (
"107 99 LINE",
"107 638 LINE",
"182.87 715 LINE",
"493.12 715 LINE",
"569 638 LINE",
"569 99 LINE",
"493.12 22 LINE",
"182.87 22 LINE"
);
},
{
closed = 1;
nodes = (
"351.25 794.25 LINE",
"351.25 822.75 LINE",
"418.87 889.12 LINE",
"418.87 949 LINE",
"386.75 982.62 LINE",
"313.12 982.62 LINE",
"275.5 942.37 LINE",
"291.25 927.62 LINE",
"322.5 961 LINE",
"377.75 961 LINE",
"397.37 940.37 LINE",
"397.37 897.37 LINE",
"329.87 831 LINE",
"329.87 794.25 LINE"
);
}
);
width = 676;
}
);
note = uni1ECE;
rightKerningGroup = O;
unicode = 1ECE;
},
{
glyphname = Ohorn;
lastChange = "2019-09-03 16:17:47 +0000";
layers = (
{
hints = (
{
horizontal = 1;
place = "{0, 22}";
type = Stem;
},
{
horizontal = 1;
place = "{633.62, 21.5}";
type = Stem;
},
{
horizontal = 1;
place = "{715, 22}";
type = Stem;
},
{
place = "{85, 22}";
type = Stem;
},
{
place = "{569, 22}";
type = Stem;
}
);
layerId = "0A44E515-E956-4F85-8EFC-D1601816D0DE";
paths = (
{
closed = 1;
nodes = (
"499.75 0 LINE",
"591 92.37 LINE",
"591 633.62 LINE",
"639.62 633.62 LINE",
"684.75 803 LINE",
"659.37 803 LINE",
"625 655.12 LINE",
"580.63 655.12 LINE",
"499.75 737 LINE",
"176.25 737 LINE",
"85 644.62 LINE",
"85 92.37 LINE",
"176.25 0 LINE"
);
},
{
closed = 1;
nodes = (
"107 99 LINE",
"107 638 LINE",
"182.87 715 LINE",
"493.12 715 LINE",
"569 638 LINE",
"569 99 LINE",
"493.12 22 LINE",
"182.87 22 LINE"
);
}
);
width = 676;
}
);
note = Ohorn;
rightKerningGroup = O;
unicode = 01A0;
},
{
glyphname = uni1EDA;
lastChange = "2019-09-03 16:17:47 +0000";
layers = (
{
hints = (
{
horizontal = 1;
place = "{0, 22}";
type = Stem;
},
{
horizontal = 1;
place = "{633.62, 21.5}";
type = Stem;
},
{
horizontal = 1;
place = "{715, 22}";
type = Stem;
},
{
place = "{85, 22}";
type = Stem;
},
{
place = "{569, 22}";
type = Stem;
}
);
layerId = "0A44E515-E956-4F85-8EFC-D1601816D0DE";
paths = (
{
closed = 1;
nodes = (
"499.75 0 LINE",
"591 92.37 LINE",
"591 633.62 LINE",
"639.62 633.62 LINE",
"684.75 803 LINE",
"659.37 803 LINE",
"625 655.12 LINE",
"580.63 655.12 LINE",
"499.75 737 LINE",
"176.25 737 LINE",
"85 644.62 LINE",
"85 92.37 LINE",
"176.25 0 LINE"
);
},
{
closed = 1;
nodes = (
"107 99 LINE",
"107 638 LINE",
"182.87 715 LINE",
"493.12 715 LINE",
"569 638 LINE",
"569 99 LINE",
"493.12 22 LINE",
"182.87 22 LINE"
);
},
{
closed = 1;
nodes = (
"350.37 794.25 LINE",
"445 932.75 LINE",
"414.25 932.75 LINE",
"329.5 794.25 LINE"
);
}
);
width = 676;
}
);
note = uni1EDA;
rightKerningGroup = O;
unicode = 1EDA;
},
{
glyphname = uni1EE2;
lastChange = "2019-09-03 16:17:47 +0000";
layers = (
{
hints = (
{
horizontal = 1;
place = "{-160.63, 103.38}";
type = Stem;
},
{
horizontal = 1;
place = "{0, 22}";
type = Stem;
},
{
horizontal = 1;
place = "{633.62, 21.5}";
type = Stem;
},
{
horizontal = 1;
place = "{715, 22}";
type = Stem;
},
{
place = "{85, 22}";
type = Stem;
},
{
place = "{327, 22}";
type = Stem;
},
{
place = "{569, 22}";
type = Stem;
}
);
layerId = "0A44E515-E956-4F85-8EFC-D1601816D0DE";
paths = (
{
closed = 1;
nodes = (
"499.75 0 LINE",
"591 92.37 LINE",
"591 633.62 LINE",
"639.62 633.62 LINE",
"684.75 803 LINE",
"659.37 803 LINE",
"625 655.12 LINE",
"580.63 655.12 LINE",
"499.75 737 LINE",
"176.25 737 LINE",
"85 644.62 LINE",
"85 92.37 LINE",
"176.25 0 LINE"
);
},
{
closed = 1;
nodes = (
"349 -160.63 LINE",
"349 -57.25 LINE",
"327 -57.25 LINE",
"327 -160.63 LINE"
);
},
{
closed = 1;
nodes = (
"107 99 LINE",
"107 638 LINE",
"182.87 715 LINE",
"493.12 715 LINE",
"569 638 LINE",
"569 99 LINE",
"493.12 22 LINE",
"182.87 22 LINE"
);
}
);
width = 676;
}
);
note = uni1EE2;
rightKerningGroup = O;
unicode = 1EE2;
},
{
glyphname = uni1EDC;
lastChange = "2019-09-03 16:17:47 +0000";
layers = (
{
hints = (
{
horizontal = 1;
place = "{0, 22}";
type = Stem;
},
{
horizontal = 1;
place = "{633.62, 21.5}";
type = Stem;
},
{
horizontal = 1;
place = "{715, 22}";
type = Stem;
},
{
place = "{85, 22}";
type = Stem;
},
{
place = "{569, 22}";
type = Stem;
}
);
layerId = "0A44E515-E956-4F85-8EFC-D1601816D0DE";
paths = (
{
closed = 1;
nodes = (
"499.75 0 LINE",
"591 92.37 LINE",
"591 633.62 LINE",
"639.62 633.62 LINE",
"684.75 803 LINE",
"659.37 803 LINE",
"625 655.12 LINE",
"580.63 655.12 LINE",
"499.75 737 LINE",
"176.25 737 LINE",
"85 644.62 LINE",
"85 92.37 LINE",
"176.25 0 LINE"
);
},
{
closed = 1;
nodes = (
"107 99 LINE",
"107 638 LINE",
"182.87 715 LINE",
"493.12 715 LINE",
"569 638 LINE",
"569 99 LINE",
"493.12 22 LINE",
"182.87 22 LINE"
);
},
{
closed = 1;
nodes = (
"346 794.25 LINE",
"261.25 932.75 LINE",
"230.5 932.75 LINE",
"325.12 794.25 LINE"
);
}
);
width = 676;
}
);
note = uni1EDC;
rightKerningGroup = O;
unicode = 1EDC;
},
{
glyphname = uni1EDE;
lastChange = "2019-09-03 16:17:47 +0000";
layers = (
{
hints = (
{
horizontal = 1;
place = "{0, 22}";
type = Stem;
},
{
horizontal = 1;
place = "{633.62, 21.5}";
type = Stem;
},
{
horizontal = 1;
place = "{715, 22}";
type = Stem;
},
{
horizontal = 1;
place = "{794.25, 36.75}";
type = Stem;
},
{
horizontal = 1;
place = "{961, 21.62}";
type = Stem;
},
{
place = "{85, 22}";
type = Stem;
},
{
place = "{329.87, 21.38}";
type = Stem;
},
{
place = "{397.37, 21.5}";
type = Stem;
},
{
place = "{569, 22}";
type = Stem;
}
);
layerId = "0A44E515-E956-4F85-8EFC-D1601816D0DE";
paths = (
{
closed = 1;
nodes = (
"499.75 0 LINE",
"591 92.37 LINE",
"591 633.62 LINE",
"639.62 633.62 LINE",
"684.75 803 LINE",
"659.37 803 LINE",
"625 655.12 LINE",
"580.63 655.12 LINE",
"499.75 737 LINE",
"176.25 737 LINE",
"85 644.62 LINE",
"85 92.37 LINE",
"176.25 0 LINE"
);
},
{
closed = 1;
nodes = (
"107 99 LINE",
"107 638 LINE",
"182.87 715 LINE",
"493.12 715 LINE",
"569 638 LINE",
"569 99 LINE",
"493.12 22 LINE",
"182.87 22 LINE"
);
},
{
closed = 1;
nodes = (
"351.25 794.25 LINE",
"351.25 822.75 LINE",
"418.87 889.12 LINE",
"418.87 949 LINE",
"386.75 982.62 LINE",
"313.12 982.62 LINE",
"275.5 942.37 LINE",
"291.25 927.62 LINE",
"322.5 961 LINE",
"377.75 961 LINE",
"397.37 940.37 LINE",
"397.37 897.37 LINE",
"329.87 831 LINE",
"329.87 794.25 LINE"
);
}
);
width = 676;
}
);
note = uni1EDE;
rightKerningGroup = O;
unicode = 1EDE;
},
{
glyphname = uni1EE0;
lastChange = "2019-09-03 16:17:47 +0000";
layers = (
{
hints = (
{
horizontal = 1;
place = "{0, 22}";
type = Stem;
},
{
horizontal = 1;
place = "{633.62, 21.5}";
type = Stem;
},
{
horizontal = 1;
place = "{715, 22}";
type = Stem;
},
{
horizontal = 1;
place = "{794.25, 20.87}";
type = Stem;
},
{
horizontal = 1;
place = "{871.25, 20.87}";
type = Stem;
},
{
place = "{85, 22}";
type = Stem;
},
{
place = "{194.5, 16.49}";
type = Stem;
},
{
place = "{463.99, 16.51}";
type = Stem;
},
{
place = "{569, 22}";
type = Stem;
}
);
layerId = "0A44E515-E956-4F85-8EFC-D1601816D0DE";
paths = (
{
closed = 1;
nodes = (
"499.75 0 LINE",
"591 92.37 LINE",
"591 633.62 LINE",
"639.62 633.62 LINE",
"684.75 803 LINE",
"659.37 803 LINE",
"625 655.12 LINE",
"580.63 655.12 LINE",
"499.75 737 LINE",
"176.25 737 LINE",
"85 644.62 LINE",
"85 92.37 LINE",
"176.25 0 LINE"
);
},
{
closed = 1;
nodes = (
"107 99 LINE",
"107 638 LINE",
"182.87 715 LINE",
"493.12 715 LINE",
"569 638 LINE",
"569 99 LINE",
"493.12 22 LINE",
"182.87 22 LINE"
);
},
{
closed = 1;
nodes = (
"209.37 794.25 LINE",
"212.62 834.87 LINE",
"252.25 871.25 LINE",
"301.75 871.25 LINE",
"377.62 794.25 LINE",
"431.5 794.25 LINE",
"480 843.75 LINE",
"481 892.12 LINE",
"465.62 892.12 LINE",
"462.37 851.37 LINE",
"422.75 815.12 LINE",
"386.5 815.12 LINE",
"310.5 892.12 LINE",
"243.5 892.12 LINE",
"195 842.62 LINE",
"194 794.25 LINE"
);
}
);
width = 676;
}
);
note = uni1EE0;
rightKerningGroup = O;
unicode = 1EE0;
},
{
glyphname = Ohungarumlaut;
lastChange = "2019-09-03 16:17:47 +0000";
layers = (
{
hints = (
{
horizontal = 1;
place = "{0, 22}";
type = Stem;
},
{
horizontal = 1;
place = "{715, 22}";
type = Stem;
},
{
horizontal = 1;
place = "{794.25, 138.5}";
type = Stem;
},
{
place = "{85, 22}";
type = Stem;
},
{
place = "{569, 22}";
type = Stem;
}
);
layerId = "0A44E515-E956-4F85-8EFC-D1601816D0DE";
paths = (
{
closed = 1;
nodes = (
"499.75 0 LINE",
"591 92.37 LINE",
"591 644.62 LINE",
"499.75 737 LINE",
"176.25 737 LINE",
"85 644.62 LINE",
"85 92.37 LINE",
"176.25 0 LINE"
);
},
{
closed = 1;
nodes = (
"107 99 LINE",
"107 638 LINE",
"182.87 715 LINE",
"493.12 715 LINE",
"569 638 LINE",
"569 99 LINE",
"493.12 22 LINE",
"182.87 22 LINE"
);
},
{
closed = 1;
nodes = (
"286.25 794.25 LINE",
"380.87 932.75 LINE",
"350.12 932.75 LINE",
"265.37 794.25 LINE"
);
},
{
closed = 1;
nodes = (
"396.25 794.25 LINE",
"490.87 932.75 LINE",
"460.12 932.75 LINE",
"375.37 794.25 LINE"
);
}
);
width = 676;
}
);
note = Ohungarumlaut;
rightKerningGroup = O;
unicode = 0150;
},
{
glyphname = uni020E;
lastChange = "2019-09-03 16:17:47 +0000";
layers = (
{
hints = (
{
horizontal = 1;
place = "{0, 22}";
type = Stem;
},
{
horizontal = 1;
place = "{715, 22}";
type = Stem;
},
{
horizontal = 1;
place = "{889.87, 20.88}";
type = Stem;
},
{
place = "{85, 22}";
type = Stem;
},
{
place = "{225.75, 21}";
type = Stem;
},
{
place = "{429.25, 21}";
type = Stem;
},
{
place = "{569, 22}";
type = Stem;
}
);
layerId = "0A44E515-E956-4F85-8EFC-D1601816D0DE";
paths = (
{
closed = 1;
nodes = (
"499.75 0 LINE",
"591 92.37 LINE",
"591 644.62 LINE",
"499.75 737 LINE",
"176.25 737 LINE",
"85 644.62 LINE",
"85 92.37 LINE",
"176.25 0 LINE"
);
},
{
closed = 1;
nodes = (
"107 99 LINE",
"107 638 LINE",
"182.87 715 LINE",
"493.12 715 LINE",
"569 638 LINE",
"569 99 LINE",
"493.12 22 LINE",
"182.87 22 LINE"
);
},
{
closed = 1;
nodes = (
"246.75 794.25 LINE",
"246.75 854.75 LINE",
"281.87 889.87 LINE",
"394.12 889.87 LINE",
"429.25 854.75 LINE",
"429.25 794.25 LINE",
"450.25 794.25 LINE",
"450.25 861.25 LINE",
"400.75 910.75 LINE",
"275.25 910.75 LINE",
"225.75 861.25 LINE",
"225.75 794.25 LINE"
);
}
);
width = 676;
}
);
note = uni020E;
rightKerningGroup = O;
unicode = 020E;
},
{
glyphname = Omacron;
lastChange = "2019-09-03 16:17:47 +0000";
layers = (
{
hints = (
{
horizontal = 1;
place = "{0, 22}";
type = Stem;
},
{
horizontal = 1;
place = "{715, 22}";
type = Stem;
},
{
horizontal = 1;
place = "{794.25, 20.87}";
type = Stem;
},
{
place = "{85, 22}";
type = Stem;
},
{
place = "{569, 22}";
type = Stem;
}
);
layerId = "0A44E515-E956-4F85-8EFC-D1601816D0DE";
paths = (
{
closed = 1;
nodes = (
"499.75 0 LINE",
"591 92.37 LINE",
"591 644.62 LINE",
"499.75 737 LINE",
"176.25 737 LINE",
"85 644.62 LINE",
"85 92.37 LINE",
"176.25 0 LINE"
);
},
{
closed = 1;
nodes = (
"107 99 LINE",
"107 638 LINE",
"182.87 715 LINE",
"493.12 715 LINE",
"569 638 LINE",
"569 99 LINE",
"493.12 22 LINE",
"182.87 22 LINE"
);
},
{
closed = 1;
nodes = (
"482.12 794.25 LINE",
"482.12 815.12 LINE",
"193.87 815.12 LINE",
"193.87 794.25 LINE"
);
}
);
width = 676;
}
);
note = Omacron;
rightKerningGroup = O;
unicode = 014C;
},
{
glyphname = uni01EA;
lastChange = "2019-09-03 18:02:08 +0000";
layers = (
{
hints = (
{
horizontal = 1;
place = "{-138.63, 22}";
type = Stem;
},
{
horizontal = 1;
place = "{0, 22}";
type = Stem;
},
{
horizontal = 1;
place = "{715, 22}";
type = Stem;
},
{
place = "{85, 22}";
type = Stem;
},
{
place = "{436, 22}";
type = Stem;
},
{
place = "{569, 22}";
type = Stem;
},
{
place = "{483.25, 28.62}";
type = Stem;
}
);
layerId = "0A44E515-E956-4F85-8EFC-D1601816D0DE";
paths = (
{
closed = 1;
nodes = (
"511.87 -138.63 LINE",
"511.87 -116.63 LINE",
"489.87 -116.63 LINE",
"458 -84.75 LINE",
"458 -44.88 LINE",
"591 92.37 LINE",
"591 644.62 LINE",
"499.75 737 LINE",
"176.25 737 LINE",
"85 644.62 LINE",
"85 92.37 LINE",
"176.25 0 LINE",
"472.5 0 LINE",
"436 -37.5 LINE",
"436 -91.25 LINE",
"483.25 -138.63 LINE"
);
},
{
closed = 1;
nodes = (
"107 99 LINE",
"107 638 LINE",
"182.87 715 LINE",
"493.12 715 LINE",
"569 638 LINE",
"569 99 LINE",
"493.12 22 LINE",
"182.87 22 LINE"
);
}
);
width = 676;
}
);
note = uni01EA;
rightKerningGroup = O;
unicode = 01EA;
},
{
glyphname = Oslash;
lastChange = "2019-09-03 16:17:47 +0000";
layers = (
{
hints = (
{
horizontal = 1;
place = "{0, 22}";
type = Stem;
},
{
horizontal = 1;
place = "{715, 22}";
type = Stem;
},
{
place = "{85, 22}";
type = Stem;
},
{
place = "{569, 22}";
type = Stem;
}
);
layerId = "0A44E515-E956-4F85-8EFC-D1601816D0DE";
paths = (
{
closed = 1;
nodes = (
"499.75 0 LINE",
"591 92.37 LINE",
"591 644.62 LINE",
"499.75 737 LINE",
"176.25 737 LINE",
"85 644.62 LINE",
"85 92.37 LINE",
"176.25 0 LINE"
);
},
{
closed = 1;
nodes = (
"152.32 53 LINE",
"539.72 667.71 LINE",
"569 638 LINE",
"569 99 LINE",
"493.12 22 LINE",
"182.87 22 LINE"
);
},
{
closed = 1;
nodes = (
"107 99 LINE",
"107 638 LINE",
"182.87 715 LINE",
"493.12 715 LINE",
"523.63 684.04 LINE",
"136.27 69.29 LINE"
);
}
);
width = 676;
}
);
note = Oslash;
rightKerningGroup = O;
unicode = 00D8;
},
{
glyphname = Oslashacute;
lastChange = "2019-09-03 16:17:47 +0000";
layers = (
{
hints = (
{
horizontal = 1;
place = "{0, 22}";
type = Stem;
},
{
horizontal = 1;
place = "{715, 22}";
type = Stem;
},
{
place = "{85, 22}";
type = Stem;
},
{
place = "{569, 22}";
type = Stem;
}
);
layerId = "0A44E515-E956-4F85-8EFC-D1601816D0DE";
paths = (
{
closed = 1;
nodes = (
"499.75 0 LINE",
"591 92.37 LINE",
"591 644.62 LINE",
"499.75 737 LINE",
"176.25 737 LINE",
"85 644.62 LINE",
"85 92.37 LINE",
"176.25 0 LINE"
);
},
{
closed = 1;
nodes = (
"152.32 53 LINE",
"539.72 667.71 LINE",
"569 638 LINE",
"569 99 LINE",
"493.12 22 LINE",
"182.87 22 LINE"
);
},
{
closed = 1;
nodes = (
"107 99 LINE",
"107 638 LINE",
"182.87 715 LINE",
"493.12 715 LINE",
"523.63 684.04 LINE",
"136.27 69.29 LINE"
);
},
{
closed = 1;
nodes = (
"350.37 794.25 LINE",
"445 932.75 LINE",
"414.25 932.75 LINE",
"329.5 794.25 LINE"
);
}
);
width = 676;
}
);
note = Oslashacute;
rightKerningGroup = O;
unicode = 01FE;
},
{
glyphname = Otilde;
lastChange = "2019-09-03 16:17:47 +0000";
layers = (
{
hints = (
{
horizontal = 1;
place = "{0, 22}";
type = Stem;
},
{
horizontal = 1;
place = "{715, 22}";
type = Stem;
},
{
horizontal = 1;
place = "{794.25, 20.87}";
type = Stem;
},
{
horizontal = 1;
place = "{871.25, 20.87}";
type = Stem;
},
{
place = "{85, 22}";
type = Stem;
},
{
place = "{194.5, 16.49}";
type = Stem;
},
{
place = "{463.99, 16.51}";
type = Stem;
},
{
place = "{569, 22}";
type = Stem;
}
);
layerId = "0A44E515-E956-4F85-8EFC-D1601816D0DE";
paths = (
{
closed = 1;
nodes = (
"499.75 0 LINE",
"591 92.37 LINE",
"591 644.62 LINE",
"499.75 737 LINE",
"176.25 737 LINE",
"85 644.62 LINE",
"85 92.37 LINE",
"176.25 0 LINE"
);
},
{
closed = 1;
nodes = (
"107 99 LINE",
"107 638 LINE",
"182.87 715 LINE",
"493.12 715 LINE",
"569 638 LINE",
"569 99 LINE",
"493.12 22 LINE",
"182.87 22 LINE"
);
},
{
closed = 1;
nodes = (
"209.37 794.25 LINE",
"212.62 834.87 LINE",
"252.25 871.25 LINE",
"301.75 871.25 LINE",
"377.62 794.25 LINE",
"431.5 794.25 LINE",
"480 843.75 LINE",
"481 892.12 LINE",
"465.62 892.12 LINE",
"462.37 851.37 LINE",
"422.75 815.12 LINE",
"386.5 815.12 LINE",
"310.5 892.12 LINE",
"243.5 892.12 LINE",
"195 842.62 LINE",
"194 794.25 LINE"
);
}
);
width = 676;
}
);
note = Otilde;
rightKerningGroup = O;
unicode = 00D5;
},
{
glyphname = uni022C;
lastChange = "2019-09-03 16:17:47 +0000";
layers = (
{
hints = (
{
horizontal = 1;
place = "{0, 22}";
type = Stem;
},
{
horizontal = 1;
place = "{715, 22}";
type = Stem;
},
{
horizontal = 1;
place = "{794.25, 20.87}";
type = Stem;
},
{
horizontal = 1;
place = "{871.25, 20.87}";
type = Stem;
},
{
horizontal = 1;
place = "{931.37, 20.88}";
type = Stem;
},
{
place = "{85, 22}";
type = Stem;
},
{
place = "{194.5, 16.49}";
type = Stem;
},
{
place = "{463.99, 16.51}";
type = Stem;
},
{
place = "{569, 22}";
type = Stem;
}
);
layerId = "0A44E515-E956-4F85-8EFC-D1601816D0DE";
paths = (
{
closed = 1;
nodes = (
"499.75 0 LINE",
"591 92.37 LINE",
"591 644.62 LINE",
"499.75 737 LINE",
"176.25 737 LINE",
"85 644.62 LINE",
"85 92.37 LINE",
"176.25 0 LINE"
);
},
{
closed = 1;
nodes = (
"107 99 LINE",
"107 638 LINE",
"182.87 715 LINE",
"493.12 715 LINE",
"569 638 LINE",
"569 99 LINE",
"493.12 22 LINE",
"182.87 22 LINE"
);
},
{
closed = 1;
nodes = (
"209.37 794.25 LINE",
"212.62 834.87 LINE",
"252.25 871.25 LINE",
"301.75 871.25 LINE",
"377.62 794.25 LINE",
"431.5 794.25 LINE",
"480 843.75 LINE",
"481 892.12 LINE",
"465.62 892.12 LINE",
"462.37 851.37 LINE",
"422.75 815.12 LINE",
"386.5 815.12 LINE",
"310.5 892.12 LINE",
"243.5 892.12 LINE",
"195 842.62 LINE",
"194 794.25 LINE"
);
},
{
closed = 1;
nodes = (
"482.12 931.37 LINE",
"482.12 952.25 LINE",
"193.87 952.25 LINE",
"193.87 931.37 LINE"
);
}
);
width = 676;
}
);
note = uni022C;
rightKerningGroup = O;
unicode = 022C;
},
{
glyphname = OE;
lastChange = "2019-09-03 16:17:47 +0000";
layers = (
{
hints = (
{
horizontal = 1;
place = "{0, 22}";
type = Stem;
},
{
horizontal = 1;
place = "{379.5, 22}";
type = Stem;
},
{
horizontal = 1;
place = "{715, 22}";
type = Stem;
},
{
place = "{85, 22}";
type = Stem;
},
{
place = "{569, 22}";
type = Stem;
}
);
layerId = "0A44E515-E956-4F85-8EFC-D1601816D0DE";
paths = (
{
closed = 1;
nodes = (
"499.75 0 LINE",
"569 70.1 LINE",
"569 0 LINE",
"1020 0 LINE",
"1020 22 LINE",
"591 22 LINE",
"591 379.5 LINE",
"960.62 379.5 LINE",
"960.62 401.5 LINE",
"591 401.5 LINE",
"591 715 LINE",
"1020 715 LINE",
"1020 737 LINE",
"569 737 LINE",
"569 666.89 LINE",
"499.75 737 LINE",
"176.25 737 LINE",
"85 644.62 LINE",
"85 92.37 LINE",
"176.25 0 LINE"
);
},
{
closed = 1;
nodes = (
"107 99 LINE",
"107 638 LINE",
"182.87 715 LINE",
"493.12 715 LINE",
"569 638 LINE",
"569 99 LINE",
"493.12 22 LINE",
"182.87 22 LINE"
);
}
);
width = 1075;
}
);
note = OE;
rightKerningGroup = AE;
unicode = 0152;
},
{
glyphname = P;
lastChange = "2019-09-03 16:17:47 +0000";
layers = (
{
hints = (
{
horizontal = 1;
place = "{313.5, 22}";
type = Stem;
},
{
horizontal = 1;
place = "{715, 22}";
type = Stem;
},
{
place = "{100, 22}";
type = Stem;
},
{
place = "{507, 22}";
type = Stem;
}
);
layerId = "0A44E515-E956-4F85-8EFC-D1601816D0DE";
paths = (
{
closed = 1;
nodes = (
"122 0 LINE",
"122 313.5 LINE",
"437.75 313.5 LINE",
"529 405.87 LINE",
"529 644.62 LINE",
"437.75 737 LINE",
"100 737 LINE",
"100 0 LINE"
);
},
{
closed = 1;
nodes = (
"122 715 LINE",
"431.12 715 LINE",
"507 638 LINE",
"507 412.5 LINE",
"431.12 335.5 LINE",
"122 335.5 LINE"
);
}
);
width = 579;
}
);
leftKerningGroup = B;
note = P;
rightKerningGroup = P;
unicode = 0050;
},
{
glyphname = Thorn;
lastChange = "2019-09-03 16:17:47 +0000";
layers = (
{
hints = (
{
horizontal = 1;
place = "{168.25, 22}";
type = Stem;
},
{
horizontal = 1;
place = "{569.75, 22}";
type = Stem;
},
{
place = "{100, 22}";
type = Stem;
},
{
place = "{507, 22}";
type = Stem;
}
);
layerId = "0A44E515-E956-4F85-8EFC-D1601816D0DE";
paths = (
{
closed = 1;
nodes = (
"122 0 LINE",
"122 168.25 LINE",
"437.75 168.25 LINE",
"529 260.75 LINE",
"529 499.37 LINE",
"437.75 591.75 LINE",
"122 591.75 LINE",
"122 737 LINE",
"100 737 LINE",
"100 0 LINE"
);
},
{
closed = 1;
nodes = (
"122 569.75 LINE",
"431.12 569.75 LINE",
"507 492.75 LINE",
"507 267.25 LINE",
"431.12 190.25 LINE",
"122 190.25 LINE"
);
}
);
width = 579;
}
);
leftKerningGroup = B;
note = Thorn;
rightKerningGroup = Thorn;
unicode = 00DE;
},
{
glyphname = Q;
lastChange = "2019-09-03 16:17:47 +0000";
layers = (
{
hints = (
{
horizontal = 1;
place = "{0, 22}";
type = Stem;
},
{
horizontal = 1;
place = "{715, 22}";
type = Stem;
},
{
place = "{85, 22}";
type = Stem;
},
{
place = "{327, 22}";
type = Stem;
},
{
place = "{569, 22}";
type = Stem;
}
);
layerId = "0A44E515-E956-4F85-8EFC-D1601816D0DE";
paths = (
{
closed = 1;
nodes = (
"349 -128.75 LINE",
"349 0 LINE",
"499.75 0 LINE",
"591 92.37 LINE",
"591 644.62 LINE",
"499.75 737 LINE",
"176.25 737 LINE",
"85 644.62 LINE",
"85 92.37 LINE",
"176.25 0 LINE",
"327 0 LINE",
"327 -128.75 LINE"
);
},
{
closed = 1;
nodes = (
"107 99 LINE",
"107 638 LINE",
"182.87 715 LINE",
"493.12 715 LINE",
"569 638 LINE",
"569 99 LINE",
"493.12 22 LINE",
"349 22 LINE",
"349 144.12 LINE",
"327 144.12 LINE",
"327 22 LINE",
"182.87 22 LINE"
);
}
);
width = 676;
}
);
note = Q;
rightKerningGroup = O;
unicode = 0051;
},
{
glyphname = R;
lastChange = "2019-09-03 16:17:47 +0000";
layers = (
{
hints = (
{
horizontal = 1;
place = "{335.5, 22}";
type = Stem;
},
{
horizontal = 1;
place = "{715, 22}";
type = Stem;
},
{
place = "{100, 22}";
type = Stem;
},
{
place = "{520.25, 22}";
type = Stem;
}
);
layerId = "0A44E515-E956-4F85-8EFC-D1601816D0DE";
paths = (
{
closed = 1;
nodes = (
"122 0 LINE",
"122 335.5 LINE",
"377.91 335.5 LINE",
"550.5 0 LINE",
"573 0 LINE",
"400.41 335.5 LINE",
"450.87 335.5 LINE",
"542.25 427.87 LINE",
"542.25 644.62 LINE",
"450.87 737 LINE",
"100 737 LINE",
"100 0 LINE"
);
},
{
closed = 1;
nodes = (
"122 715 LINE",
"444.25 715 LINE",
"520.25 638 LINE",
"520.25 434.5 LINE",
"444.25 357.5 LINE",
"122 357.5 LINE"
);
}
);
width = 643;
}
);
leftKerningGroup = B;
note = R;
rightKerningGroup = R;
unicode = 0052;
},
{
glyphname = Racute;
lastChange = "2019-09-03 16:17:47 +0000";
layers = (
{
hints = (
{
horizontal = 1;
place = "{335.5, 22}";
type = Stem;
},
{
horizontal = 1;
place = "{715, 22}";
type = Stem;
},
{
place = "{100, 22}";
type = Stem;
},
{
place = "{520.25, 22}";
type = Stem;
}
);
layerId = "0A44E515-E956-4F85-8EFC-D1601816D0DE";
paths = (
{
closed = 1;
nodes = (
"122 0 LINE",
"122 335.5 LINE",
"377.91 335.5 LINE",
"550.5 0 LINE",
"573 0 LINE",
"400.41 335.5 LINE",
"450.87 335.5 LINE",
"542.25 427.87 LINE",
"542.25 644.62 LINE",
"450.87 737 LINE",
"100 737 LINE",
"100 0 LINE"
);
},
{
closed = 1;
nodes = (
"122 715 LINE",
"444.25 715 LINE",
"520.25 638 LINE",
"520.25 434.5 LINE",
"444.25 357.5 LINE",
"122 357.5 LINE"
);
},
{
closed = 1;
nodes = (
"304.87 794.25 LINE",
"399.5 932.75 LINE",
"368.75 932.75 LINE",
"284 794.25 LINE"
);
}
);
width = 643;
}
);
leftKerningGroup = B;
note = Racute;
rightKerningGroup = R;
unicode = 0154;
},
{
glyphname = Rcaron;
lastChange = "2019-09-03 16:17:47 +0000";
layers = (
{
hints = (
{
horizontal = 1;
place = "{335.5, 22}";
type = Stem;
},
{
horizontal = 1;
place = "{715, 22}";
type = Stem;
},
{
horizontal = 1;
place = "{794.25, 19.87}";
type = Stem;
},
{
place = "{100, 22}";
type = Stem;
},
{
place = "{520.25, 22}";
type = Stem;
}
);
layerId = "0A44E515-E956-4F85-8EFC-D1601816D0DE";
paths = (
{
closed = 1;
nodes = (
"122 0 LINE",
"122 335.5 LINE",
"377.91 335.5 LINE",
"550.5 0 LINE",
"573 0 LINE",
"400.41 335.5 LINE",
"450.87 335.5 LINE",
"542.25 427.87 LINE",
"542.25 644.62 LINE",
"450.87 737 LINE",
"100 737 LINE",
"100 0 LINE"
);
},
{
closed = 1;
nodes = (
"122 715 LINE",
"444.25 715 LINE",
"520.25 638 LINE",
"520.25 434.5 LINE",
"444.25 357.5 LINE",
"122 357.5 LINE"
);
},
{
closed = 1;
nodes = (
"314.5 794.25 LINE",
"419 931.75 LINE",
"397 931.75 LINE",
"300.12 814.12 LINE",
"282.62 814.12 LINE",
"185.75 931.75 LINE",
"163.75 931.75 LINE",
"268.25 794.25 LINE"
);
}
);
width = 643;
}
);
leftKerningGroup = B;
note = Rcaron;
rightKerningGroup = R;
unicode = 0158;
},
{
glyphname = uni0156;
lastChange = "2019-09-03 16:17:47 +0000";
layers = (
{
hints = (
{
horizontal = 1;
place = "{335.5, 22}";
type = Stem;
},
{
horizontal = 1;
place = "{715, 22}";
type = Stem;
},
{
place = "{100, 22}";
type = Stem;
},
{
place = "{520.25, 22}";
type = Stem;
}
);
layerId = "0A44E515-E956-4F85-8EFC-D1601816D0DE";
paths = (
{
closed = 1;
nodes = (
"122 0 LINE",
"122 335.5 LINE",
"377.91 335.5 LINE",
"550.5 0 LINE",
"573 0 LINE",
"400.41 335.5 LINE",
"450.87 335.5 LINE",
"542.25 427.87 LINE",
"542.25 644.62 LINE",
"450.87 737 LINE",
"100 737 LINE",
"100 0 LINE"
);
},
{
closed = 1;
nodes = (
"302.5 -216.75 LINE",
"347.62 -57.25 LINE",
"321.25 -57.25 LINE",
"283.75 -216.75 LINE"
);
},
{
closed = 1;
nodes = (
"122 715 LINE",
"444.25 715 LINE",
"520.25 638 LINE",
"520.25 434.5 LINE",
"444.25 357.5 LINE",
"122 357.5 LINE"
);
}
);
width = 643;
}
);
leftKerningGroup = B;
note = uni0156;
rightKerningGroup = R;
unicode = 0156;
},
{
glyphname = uni0210;
lastChange = "2019-09-03 16:17:47 +0000";
layers = (
{
hints = (
{
horizontal = 1;
place = "{335.5, 22}";
type = Stem;
},
{
horizontal = 1;
place = "{715, 22}";
type = Stem;
},
{
horizontal = 1;
place = "{794.25, 138.5}";
type = Stem;
},
{
place = "{100, 22}";
type = Stem;
},
{
place = "{520.25, 22}";
type = Stem;
}
);
layerId = "0A44E515-E956-4F85-8EFC-D1601816D0DE";
paths = (
{
closed = 1;
nodes = (
"122 0 LINE",
"122 335.5 LINE",
"377.91 335.5 LINE",
"550.5 0 LINE",
"573 0 LINE",
"400.41 335.5 LINE",
"450.87 335.5 LINE",
"542.25 427.87 LINE",
"542.25 644.62 LINE",
"450.87 737 LINE",
"100 737 LINE",
"100 0 LINE"
);
},
{
closed = 1;
nodes = (
"122 715 LINE",
"444.25 715 LINE",
"520.25 638 LINE",
"520.25 434.5 LINE",
"444.25 357.5 LINE",
"122 357.5 LINE"
);
},
{
closed = 1;
nodes = (
"248 794.25 LINE",
"163.25 932.75 LINE",
"132.5 932.75 LINE",
"227.12 794.25 LINE"
);
},
{
closed = 1;
nodes = (
"358 794.25 LINE",
"273.25 932.75 LINE",
"242.5 932.75 LINE",
"337.12 794.25 LINE"
);
}
);
width = 643;
}
);
leftKerningGroup = B;
note = uni0210;
rightKerningGroup = R;
unicode = 0210;
},
{
glyphname = uni0212;
lastChange = "2019-09-03 16:17:47 +0000";
layers = (
{
hints = (
{
horizontal = 1;
place = "{335.5, 22}";
type = Stem;
},
{
horizontal = 1;
place = "{715, 22}";
type = Stem;
},
{
horizontal = 1;
place = "{889.87, 20.88}";
type = Stem;
},
{
place = "{100, 22}";
type = Stem;
},
{
place = "{180.25, 21}";
type = Stem;
},
{
place = "{383.75, 21}";
type = Stem;
},
{
place = "{520.25, 22}";
type = Stem;
}
);
layerId = "0A44E515-E956-4F85-8EFC-D1601816D0DE";
paths = (
{
closed = 1;
nodes = (
"122 0 LINE",
"122 335.5 LINE",
"377.91 335.5 LINE",
"550.5 0 LINE",
"573 0 LINE",
"400.41 335.5 LINE",
"450.87 335.5 LINE",
"542.25 427.87 LINE",
"542.25 644.62 LINE",
"450.87 737 LINE",
"100 737 LINE",
"100 0 LINE"
);
},
{
closed = 1;
nodes = (
"122 715 LINE",
"444.25 715 LINE",
"520.25 638 LINE",
"520.25 434.5 LINE",
"444.25 357.5 LINE",
"122 357.5 LINE"
);
},
{
closed = 1;
nodes = (
"201.25 794.25 LINE",
"201.25 854.75 LINE",
"236.37 889.87 LINE",
"348.62 889.87 LINE",
"383.75 854.75 LINE",
"383.75 794.25 LINE",
"404.75 794.25 LINE",
"404.75 861.25 LINE",
"355.25 910.75 LINE",
"229.75 910.75 LINE",
"180.25 861.25 LINE",
"180.25 794.25 LINE"
);
}
);
width = 643;
}
);
leftKerningGroup = B;
note = uni0212;
rightKerningGroup = R;
unicode = 0212;
},
{
glyphname = S;
lastChange = "2019-09-03 16:17:47 +0000";
layers = (
{
hints = (
{
horizontal = 1;
place = "{0, 22}";
type = Stem;
},
{
horizontal = 1;
place = "{368.5, 22}";
type = Stem;
},
{
horizontal = 1;
place = "{715, 22}";
type = Stem;
},
{
place = "{75, 22}";
type = Stem;
},
{
place = "{537, 22}";
type = Stem;
}
);
layerId = "0A44E515-E956-4F85-8EFC-D1601816D0DE";
paths = (
{
closed = 1;
nodes = (
"467.75 0 LINE",
"559 92.37 LINE",
"559 298.12 LINE",
"467.75 390.5 LINE",
"172.87 390.5 LINE",
"97 467.5 LINE",
"97 638 LINE",
"172.87 715 LINE",
"524.87 715 LINE",
"524.87 737 LINE",
"166.25 737 LINE",
"75 644.62 LINE",
"75 460.87 LINE",
"166.25 368.5 LINE",
"461.12 368.5 LINE",
"537 291.5 LINE",
"537 99 LINE",
"461.12 22 LINE",
"103.62 22 LINE",
"103.62 0 LINE"
);
}
);
width = 634;
}
);
leftKerningGroup = S;
note = S;
rightKerningGroup = S;
unicode = 0053;
},
{
glyphname = Sacute;
lastChange = "2019-09-03 16:17:47 +0000";
layers = (
{
hints = (
{
horizontal = 1;
place = "{0, 22}";
type = Stem;
},
{
horizontal = 1;
place = "{368.5, 22}";
type = Stem;
},
{
horizontal = 1;
place = "{715, 22}";
type = Stem;
},
{
place = "{75, 22}";
type = Stem;
},
{
place = "{537, 22}";
type = Stem;
}
);
layerId = "0A44E515-E956-4F85-8EFC-D1601816D0DE";
paths = (
{
closed = 1;
nodes = (
"467.75 0 LINE",
"559 92.37 LINE",
"559 298.12 LINE",
"467.75 390.5 LINE",
"172.87 390.5 LINE",
"97 467.5 LINE",
"97 638 LINE",
"172.87 715 LINE",
"524.87 715 LINE",
"524.87 737 LINE",
"166.25 737 LINE",
"75 644.62 LINE",
"75 460.87 LINE",
"166.25 368.5 LINE",
"461.12 368.5 LINE",
"537 291.5 LINE",
"537 99 LINE",
"461.12 22 LINE",
"103.62 22 LINE",
"103.62 0 LINE"
);
},
{
closed = 1;
nodes = (
"323.87 794.25 LINE",
"418.5 932.75 LINE",
"387.75 932.75 LINE",
"303 794.25 LINE"
);
}
);
width = 634;
}
);
leftKerningGroup = S;
note = Sacute;
rightKerningGroup = S;
unicode = 015A;
},
{
glyphname = Scaron;
lastChange = "2019-09-03 16:17:47 +0000";
layers = (
{
hints = (
{
horizontal = 1;
place = "{0, 22}";
type = Stem;
},
{
horizontal = 1;
place = "{368.5, 22}";
type = Stem;
},
{
horizontal = 1;
place = "{715, 22}";
type = Stem;
},
{
horizontal = 1;
place = "{794.25, 19.87}";
type = Stem;
},
{
place = "{75, 22}";
type = Stem;
},
{
place = "{537, 22}";
type = Stem;
}
);
layerId = "0A44E515-E956-4F85-8EFC-D1601816D0DE";
paths = (
{
closed = 1;
nodes = (
"467.75 0 LINE",
"559 92.37 LINE",
"559 298.12 LINE",
"467.75 390.5 LINE",
"172.87 390.5 LINE",
"97 467.5 LINE",
"97 638 LINE",
"172.87 715 LINE",
"524.87 715 LINE",
"524.87 737 LINE",
"166.25 737 LINE",
"75 644.62 LINE",
"75 460.87 LINE",
"166.25 368.5 LINE",
"461.12 368.5 LINE",
"537 291.5 LINE",
"537 99 LINE",
"461.12 22 LINE",
"103.62 22 LINE",
"103.62 0 LINE"
);
},
{
closed = 1;
nodes = (
"333.5 794.25 LINE",
"438 931.75 LINE",
"416 931.75 LINE",
"319.12 814.12 LINE",
"301.62 814.12 LINE",
"204.75 931.75 LINE",
"182.75 931.75 LINE",
"287.25 794.25 LINE"
);
}
);
width = 634;
}
);
leftKerningGroup = S;
note = Scaron;
rightKerningGroup = S;
unicode = 0160;
},
{
glyphname = Scedilla;
lastChange = "2019-09-03 16:17:47 +0000";
layers = (
{
hints = (
{
horizontal = 1;
place = "{0, 22}";
type = Stem;
},
{
horizontal = 1;
place = "{368.5, 22}";
type = Stem;
},
{
horizontal = 1;
place = "{715, 22}";
type = Stem;
},
{
place = "{75, 22}";
type = Stem;
},
{
place = "{537, 22}";
type = Stem;
}
);
layerId = "0A44E515-E956-4F85-8EFC-D1601816D0DE";
paths = (
{
closed = 1;
nodes = (
"284.5 -132 LINE",
"323 0 LINE",
"467.75 0 LINE",
"559 92.37 LINE",
"559 298.12 LINE",
"467.75 390.5 LINE",
"172.87 390.5 LINE",
"97 467.5 LINE",
"97 638 LINE",
"172.87 715 LINE",
"524.87 715 LINE",
"524.87 737 LINE",
"166.25 737 LINE",
"75 644.62 LINE",
"75 460.87 LINE",
"166.25 368.5 LINE",
"461.12 368.5 LINE",
"537 291.5 LINE",
"537 99 LINE",
"461.12 22 LINE",
"103.62 22 LINE",
"103.62 0 LINE",
"299.87 0 LINE",
"262.5 -132 LINE"
);
}
);
width = 634;
}
);
leftKerningGroup = S;
note = Scedilla;
rightKerningGroup = S;
unicode = 015E;
},
{
glyphname = Scircumflex;
lastChange = "2019-09-03 16:17:47 +0000";
layers = (
{
hints = (
{
horizontal = 1;
place = "{0, 22}";
type = Stem;
},
{
horizontal = 1;
place = "{368.5, 22}";
type = Stem;
},
{
horizontal = 1;
place = "{715, 22}";
type = Stem;
},
{
horizontal = 1;
place = "{911.87, 19.88}";
type = Stem;
},
{
place = "{75, 22}";
type = Stem;
},
{
place = "{537, 22}";
type = Stem;
}
);
layerId = "0A44E515-E956-4F85-8EFC-D1601816D0DE";
paths = (
{
closed = 1;
nodes = (
"467.75 0 LINE",
"559 92.37 LINE",
"559 298.12 LINE",
"467.75 390.5 LINE",
"172.87 390.5 LINE",
"97 467.5 LINE",
"97 638 LINE",
"172.87 715 LINE",
"524.87 715 LINE",
"524.87 737 LINE",
"166.25 737 LINE",
"75 644.62 LINE",
"75 460.87 LINE",
"166.25 368.5 LINE",
"461.12 368.5 LINE",
"537 291.5 LINE",
"537 99 LINE",
"461.12 22 LINE",
"103.62 22 LINE",
"103.62 0 LINE"
);
},
{
closed = 1;
nodes = (
"205.87 794.25 LINE",
"302.75 911.87 LINE",
"320.25 911.87 LINE",
"417.12 794.25 LINE",
"439.12 794.25 LINE",
"334.62 931.75 LINE",
"288.37 931.75 LINE",
"183.87 794.25 LINE"
);
}
);
width = 634;
}
);
leftKerningGroup = S;
note = Scircumflex;
rightKerningGroup = S;
unicode = 015C;
},
{
glyphname = uni0218;
lastChange = "2019-09-03 16:17:47 +0000";
layers = (
{
hints = (
{
horizontal = 1;
place = "{0, 22}";
type = Stem;
},
{
horizontal = 1;
place = "{368.5, 22}";
type = Stem;
},
{
horizontal = 1;
place = "{715, 22}";
type = Stem;
},
{
place = "{75, 22}";
type = Stem;
},
{
place = "{537, 22}";
type = Stem;
}
);
layerId = "0A44E515-E956-4F85-8EFC-D1601816D0DE";
paths = (
{
closed = 1;
nodes = (
"467.75 0 LINE",
"559 92.37 LINE",
"559 298.12 LINE",
"467.75 390.5 LINE",
"172.87 390.5 LINE",
"97 467.5 LINE",
"97 638 LINE",
"172.87 715 LINE",
"524.87 715 LINE",
"524.87 737 LINE",
"166.25 737 LINE",
"75 644.62 LINE",
"75 460.87 LINE",
"166.25 368.5 LINE",
"461.12 368.5 LINE",
"537 291.5 LINE",
"537 99 LINE",
"461.12 22 LINE",
"103.62 22 LINE",
"103.62 0 LINE"
);
},
{
closed = 1;
nodes = (
"279.75 -216.75 LINE",
"324.87 -57.25 LINE",
"298.5 -57.25 LINE",
"261 -216.75 LINE"
);
}
);
width = 634;
}
);
leftKerningGroup = S;
note = uni0218;
rightKerningGroup = S;
unicode = 0218;
},
{
glyphname = uni1E9E;
lastChange = "2019-09-03 16:17:47 +0000";
layers = (
{
hints = (
{
horizontal = 1;
place = "{0, 22}";
type = Stem;
},
{
horizontal = 1;
place = "{403.75, 22}";
type = Stem;
},
{
horizontal = 1;
place = "{715, 22}";
type = Stem;
},
{
place = "{100, 22}";
type = Stem;
},
{
place = "{295.5, 27.62}";
type = Stem;
},
{
place = "{493.75, 22}";
type = Stem;
},
{
place = "{565.25, 22}";
type = Stem;
}
);
layerId = "0A44E515-E956-4F85-8EFC-D1601816D0DE";
paths = (
{
closed = 1;
nodes = (
"122 0 LINE",
"122 638 LINE",
"197.87 715 LINE",
"417.87 715 LINE",
"493.75 637.87 LINE",
"295.5 425.75 LINE",
"295.5 403.75 LINE",
"456.5 403.75 LINE",
"565.25 287.87 LINE",
"565.25 99 LINE",
"489.37 22 LINE",
"305.62 22 LINE",
"210 118.75 LINE",
"195.62 104.5 LINE",
"299.12 0 LINE",
"496 0 LINE",
"587.25 92.37 LINE",
"587.25 293.75 LINE",
"463.87 425.75 LINE",
"323.12 425.75 LINE",
"515.75 632 LINE",
"515.75 644.62 LINE",
"424.5 737 LINE",
"191.25 737 LINE",
"100 644.62 LINE",
"100 0 LINE"
);
}
);
width = 662;
}
);
leftKerningGroup = B;
note = uni1E9E;
rightKerningGroup = B;
unicode = 1E9E;
},
{
glyphname = uni018F;
lastChange = "2019-09-03 16:17:47 +0000";
layers = (
{
hints = (
{
horizontal = 1;
place = "{0, 22}";
type = Stem;
},
{
horizontal = 1;
place = "{359.75, 20.75}";
type = Stem;
},
{
horizontal = 1;
place = "{715, 22}";
type = Stem;
},
{
place = "{85, 22}";
type = Stem;
},
{
place = "{635, 22}";
type = Stem;
}
);
layerId = "0A44E515-E956-4F85-8EFC-D1601816D0DE";
paths = (
{
closed = 1;
nodes = (
"565.75 0 LINE",
"657 92.37 LINE",
"657 644.62 LINE",
"565.75 737 LINE",
"96 737 LINE",
"96 715 LINE",
"559.12 715 LINE",
"635 638 LINE",
"635 380.5 LINE",
"85 380.5 LINE",
"85 92.37 LINE",
"176.25 0 LINE"
);
},
{
closed = 1;
nodes = (
"107 99 LINE",
"107 359.75 LINE",
"635 359.75 LINE",
"635 99 LINE",
"559.12 22 LINE",
"182.87 22 LINE"
);
}
);
width = 742;
}
);
note = uni018F;
rightKerningGroup = O;
unicode = 018F;
},
{
glyphname = T;
lastChange = "2019-09-03 16:17:47 +0000";
layers = (
{
hints = (
{
horizontal = 1;
place = "{715, 22}";
type = Stem;
},
{
place = "{257.5, 22}";
type = Stem;
}
);
layerId = "0A44E515-E956-4F85-8EFC-D1601816D0DE";
paths = (
{
closed = 1;
nodes = (
"279.5 0 LINE",
"279.5 715 LINE",
"526 715 LINE",
"526 737 LINE",
"10 737 LINE",
"10 715 LINE",
"257.5 715 LINE",
"257.5 0 LINE"
);
}
);
width = 536;
}
);
leftKerningGroup = T;
note = T;
rightKerningGroup = T;
unicode = 0054;
},
{
glyphname = Tbar;
lastChange = "2019-09-03 16:17:47 +0000";
layers = (
{
hints = (
{
horizontal = 1;
place = "{389.37, 22}";
type = Stem;
},
{
horizontal = 1;
place = "{715, 22}";
type = Stem;
},
{
place = "{257.5, 22}";
type = Stem;
}
);
layerId = "0A44E515-E956-4F85-8EFC-D1601816D0DE";
paths = (
{
closed = 1;
nodes = (
"279.5 0 LINE",
"279.5 389.37 LINE",
"455 389.37 LINE",
"455 411.37 LINE",
"279.5 411.37 LINE",
"279.5 715 LINE",
"526 715 LINE",
"526 737 LINE",
"10 737 LINE",
"10 715 LINE",
"257.5 715 LINE",
"257.5 411.37 LINE",
"81 411.37 LINE",
"81 389.37 LINE",
"257.5 389.37 LINE",
"257.5 0 LINE"
);
}
);
width = 536;
}
);
leftKerningGroup = T;
note = Tbar;
rightKerningGroup = T;
unicode = 0166;
},
{
glyphname = Tcaron;
lastChange = "2019-09-03 16:17:47 +0000";
layers = (
{
hints = (
{
horizontal = 1;
place = "{715, 22}";
type = Stem;
},
{
horizontal = 1;
place = "{794.25, 19.87}";
type = Stem;
},
{
place = "{257.5, 22}";
type = Stem;
}
);
layerId = "0A44E515-E956-4F85-8EFC-D1601816D0DE";
paths = (
{
closed = 1;
nodes = (
"279.5 0 LINE",
"279.5 715 LINE",
"526 715 LINE",
"526 737 LINE",
"10 737 LINE",
"10 715 LINE",
"257.5 715 LINE",
"257.5 0 LINE"
);
},
{
closed = 1;
nodes = (
"290.5 794.25 LINE",
"395 931.75 LINE",
"373 931.75 LINE",
"276.12 814.12 LINE",
"258.62 814.12 LINE",
"161.75 931.75 LINE",
"139.75 931.75 LINE",
"244.25 794.25 LINE"
);
}
);
width = 536;
}
);
leftKerningGroup = T;
note = Tcaron;
rightKerningGroup = T;
unicode = 0164;
},
{
glyphname = uni0162;
lastChange = "2019-09-03 16:17:47 +0000";
layers = (
{
hints = (
{
horizontal = 1;
place = "{715, 22}";
type = Stem;
},
{
place = "{257.5, 22}";
type = Stem;
}
);
layerId = "0A44E515-E956-4F85-8EFC-D1601816D0DE";
paths = (
{
closed = 1;
nodes = (
"241 -132 LINE",
"279.5 0 LINE",
"279.5 715 LINE",
"526 715 LINE",
"526 737 LINE",
"10 737 LINE",
"10 715 LINE",
"257.5 715 LINE",
"257.5 0 LINE",
"220.12 -132 LINE"
);
}
);
width = 536;
}
);
leftKerningGroup = T;
note = uni0162;
rightKerningGroup = T;
unicode = 0162;
},
{
glyphname = uni021A;
lastChange = "2019-09-03 16:17:47 +0000";
layers = (
{
hints = (
{
horizontal = 1;
place = "{715, 22}";
type = Stem;
},
{
place = "{257.5, 22}";
type = Stem;
}
);
layerId = "0A44E515-E956-4F85-8EFC-D1601816D0DE";
paths = (
{
closed = 1;
nodes = (
"279.5 0 LINE",
"279.5 715 LINE",
"526 715 LINE",
"526 737 LINE",
"10 737 LINE",
"10 715 LINE",
"257.5 715 LINE",
"257.5 0 LINE"
);
},
{
closed = 1;
nodes = (
"236.75 -216.75 LINE",
"281.87 -57.25 LINE",
"255.5 -57.25 LINE",
"218 -216.75 LINE"
);
}
);
width = 536;
}
);
leftKerningGroup = T;
note = uni021A;
rightKerningGroup = T;
unicode = 021A;
},
{
glyphname = U;
lastChange = "2019-09-03 16:17:47 +0000";
layers = (
{
hints = (
{
horizontal = 1;
place = "{0, 22}";
type = Stem;
},
{
place = "{90, 22}";
type = Stem;
},
{
place = "{571.75, 22}";
type = Stem;
}
);
layerId = "0A44E515-E956-4F85-8EFC-D1601816D0DE";
paths = (
{
closed = 1;
nodes = (
"502.5 0 LINE",
"593.75 92.37 LINE",
"593.75 737 LINE",
"571.75 737 LINE",
"571.75 99 LINE",
"495.87 22 LINE",
"187.87 22 LINE",
"112 99 LINE",
"112 737 LINE",
"90 737 LINE",
"90 92.37 LINE",
"181.25 0 LINE"
);
}
);
width = 684;
}
);
note = U;
unicode = 0055;
},
{
glyphname = Uacute;
lastChange = "2019-09-03 16:17:47 +0000";
layers = (
{
hints = (
{
horizontal = 1;
place = "{0, 22}";
type = Stem;
},
{
place = "{90, 22}";
type = Stem;
},
{
place = "{571.75, 22}";
type = Stem;
}
);
layerId = "0A44E515-E956-4F85-8EFC-D1601816D0DE";
paths = (
{
closed = 1;
nodes = (
"502.5 0 LINE",
"593.75 92.37 LINE",
"593.75 737 LINE",
"571.75 737 LINE",
"571.75 99 LINE",
"495.87 22 LINE",
"187.87 22 LINE",
"112 99 LINE",
"112 737 LINE",
"90 737 LINE",
"90 92.37 LINE",
"181.25 0 LINE"
);
},
{
closed = 1;
nodes = (
"354.25 794.25 LINE",
"448.87 932.75 LINE",
"418.12 932.75 LINE",
"333.37 794.25 LINE"
);
}
);
width = 684;
}
);
note = Uacute;
unicode = 00DA;
},
{
glyphname = Ubreve;
lastChange = "2019-09-03 16:17:47 +0000";
layers = (
{
hints = (
{
horizontal = 1;
place = "{0, 22}";
type = Stem;
},
{
horizontal = 1;
place = "{794.25, 20.87}";
type = Stem;
},
{
place = "{90, 22}";
type = Stem;
},
{
place = "{229.62, 21}";
type = Stem;
},
{
place = "{433.12, 21}";
type = Stem;
},
{
place = "{571.75, 22}";
type = Stem;
}
);
layerId = "0A44E515-E956-4F85-8EFC-D1601816D0DE";
paths = (
{
closed = 1;
nodes = (
"502.5 0 LINE",
"593.75 92.37 LINE",
"593.75 737 LINE",
"571.75 737 LINE",
"571.75 99 LINE",
"495.87 22 LINE",
"187.87 22 LINE",
"112 99 LINE",
"112 737 LINE",
"90 737 LINE",
"90 92.37 LINE",
"181.25 0 LINE"
);
},
{
closed = 1;
nodes = (
"404.62 794.25 LINE",
"454.12 843.75 LINE",
"454.12 910.75 LINE",
"433.12 910.75 LINE",
"433.12 850.25 LINE",
"398 815.12 LINE",
"285.75 815.12 LINE",
"250.62 850.25 LINE",
"250.62 910.75 LINE",
"229.62 910.75 LINE",
"229.62 843.75 LINE",
"279.12 794.25 LINE"
);
}
);
width = 684;
}
);
note = Ubreve;
unicode = 016C;
},
{
glyphname = Ucircumflex;
lastChange = "2019-09-03 16:17:47 +0000";
layers = (
{
hints = (
{
horizontal = 1;
place = "{0, 22}";
type = Stem;
},
{
horizontal = 1;
place = "{911.87, 19.88}";
type = Stem;
},
{
place = "{90, 22}";
type = Stem;
},
{
place = "{571.75, 22}";
type = Stem;
}
);
layerId = "0A44E515-E956-4F85-8EFC-D1601816D0DE";
paths = (
{
closed = 1;
nodes = (
"502.5 0 LINE",
"593.75 92.37 LINE",
"593.75 737 LINE",
"571.75 737 LINE",
"571.75 99 LINE",
"495.87 22 LINE",
"187.87 22 LINE",
"112 99 LINE",
"112 737 LINE",
"90 737 LINE",
"90 92.37 LINE",
"181.25 0 LINE"
);
},
{
closed = 1;
nodes = (
"236.25 794.25 LINE",
"333.12 911.87 LINE",
"350.62 911.87 LINE",
"447.5 794.25 LINE",
"469.5 794.25 LINE",
"365 931.75 LINE",
"318.75 931.75 LINE",
"214.25 794.25 LINE"
);
}
);
width = 684;
}
);
note = Ucircumflex;
unicode = 00DB;
},
{
glyphname = uni0214;
lastChange = "2019-09-03 16:17:47 +0000";
layers = (
{
hints = (
{
horizontal = 1;
place = "{0, 22}";
type = Stem;
},
{
horizontal = 1;
place = "{794.25, 138.5}";
type = Stem;
},
{
place = "{90, 22}";
type = Stem;
},
{
place = "{571.75, 22}";
type = Stem;
}
);
layerId = "0A44E515-E956-4F85-8EFC-D1601816D0DE";
paths = (
{
closed = 1;
nodes = (
"502.5 0 LINE",
"593.75 92.37 LINE",
"593.75 737 LINE",
"571.75 737 LINE",
"571.75 99 LINE",
"495.87 22 LINE",
"187.87 22 LINE",
"112 99 LINE",
"112 737 LINE",
"90 737 LINE",
"90 92.37 LINE",
"181.25 0 LINE"
);
},
{
closed = 1;
nodes = (
"297.37 794.25 LINE",
"212.62 932.75 LINE",
"181.87 932.75 LINE",
"276.5 794.25 LINE"
);
},
{
closed = 1;
nodes = (
"407.37 794.25 LINE",
"322.62 932.75 LINE",
"291.87 932.75 LINE",
"386.5 794.25 LINE"
);
}
);
width = 684;
}
);
note = uni0214;
unicode = 0214;
},
{
glyphname = Udieresis;
lastChange = "2019-09-03 16:17:47 +0000";
layers = (
{
hints = (
{
horizontal = 1;
place = "{0, 22}";
type = Stem;
},
{
horizontal = 1;
place = "{794.25, 103.5}";
type = Stem;
},
{
place = "{90, 22}";
type = Stem;
},
{
place = "{197.75, 22}";
type = Stem;
},
{
place = "{464, 22}";
type = Stem;
},
{
place = "{571.75, 22}";
type = Stem;
}
);
layerId = "0A44E515-E956-4F85-8EFC-D1601816D0DE";
paths = (
{
closed = 1;
nodes = (
"502.5 0 LINE",
"593.75 92.37 LINE",
"593.75 737 LINE",
"571.75 737 LINE",
"571.75 99 LINE",
"495.87 22 LINE",
"187.87 22 LINE",
"112 99 LINE",
"112 737 LINE",
"90 737 LINE",
"90 92.37 LINE",
"181.25 0 LINE"
);
},
{
closed = 1;
nodes = (
"219.75 794.25 LINE",
"219.75 897.75 LINE",
"197.75 897.75 LINE",
"197.75 794.25 LINE"
);
},
{
closed = 1;
nodes = (
"486 794.25 LINE",
"486 897.75 LINE",
"464 897.75 LINE",
"464 794.25 LINE"
);
}
);
width = 684;
}
);
note = Udieresis;
unicode = 00DC;
},
{
glyphname = uni1EE4;
lastChange = "2019-09-03 16:17:47 +0000";
layers = (
{
hints = (
{
horizontal = 1;
place = "{-160.63, 103.38}";
type = Stem;
},
{
horizontal = 1;
place = "{0, 22}";
type = Stem;
},
{
place = "{90, 22}";
type = Stem;
},
{
place = "{330.87, 22}";
type = Stem;
},
{
place = "{571.75, 22}";
type = Stem;
}
);
layerId = "0A44E515-E956-4F85-8EFC-D1601816D0DE";
paths = (
{
closed = 1;
nodes = (
"502.5 0 LINE",
"593.75 92.37 LINE",
"593.75 737 LINE",
"571.75 737 LINE",
"571.75 99 LINE",
"495.87 22 LINE",
"187.87 22 LINE",
"112 99 LINE",
"112 737 LINE",
"90 737 LINE",
"90 92.37 LINE",
"181.25 0 LINE"
);
},
{
closed = 1;
nodes = (
"352.87 -160.63 LINE",
"352.87 -57.25 LINE",
"330.87 -57.25 LINE",
"330.87 -160.63 LINE"
);
}
);
width = 684;
}
);
note = uni1EE4;
unicode = 1EE4;
},
{
glyphname = Ugrave;
lastChange = "2019-09-03 16:17:47 +0000";
layers = (
{
hints = (
{
horizontal = 1;
place = "{0, 22}";
type = Stem;
},
{
place = "{90, 22}";
type = Stem;
},
{
place = "{571.75, 22}";
type = Stem;
}
);
layerId = "0A44E515-E956-4F85-8EFC-D1601816D0DE";
paths = (
{
closed = 1;
nodes = (
"502.5 0 LINE",
"593.75 92.37 LINE",
"593.75 737 LINE",
"571.75 737 LINE",
"571.75 99 LINE",
"495.87 22 LINE",
"187.87 22 LINE",
"112 99 LINE",
"112 737 LINE",
"90 737 LINE",
"90 92.37 LINE",
"181.25 0 LINE"
);
},
{
closed = 1;
nodes = (
"349.87 794.25 LINE",
"265.12 932.75 LINE",
"234.37 932.75 LINE",
"329 794.25 LINE"
);
}
);
width = 684;
}
);
note = Ugrave;
unicode = 00D9;
},
{
glyphname = uni1EE6;
lastChange = "2019-09-03 16:17:47 +0000";
layers = (
{
hints = (
{
horizontal = 1;
place = "{0, 22}";
type = Stem;
},
{
horizontal = 1;
place = "{794.25, 36.75}";
type = Stem;
},
{
horizontal = 1;
place = "{961, 21.62}";
type = Stem;
},
{
place = "{90, 22}";
type = Stem;
},
{
place = "{333.75, 21.37}";
type = Stem;
},
{
place = "{401.25, 21.5}";
type = Stem;
},
{
place = "{571.75, 22}";
type = Stem;
}
);
layerId = "0A44E515-E956-4F85-8EFC-D1601816D0DE";
paths = (
{
closed = 1;
nodes = (
"502.5 0 LINE",
"593.75 92.37 LINE",
"593.75 737 LINE",
"571.75 737 LINE",
"571.75 99 LINE",
"495.87 22 LINE",
"187.87 22 LINE",
"112 99 LINE",
"112 737 LINE",
"90 737 LINE",
"90 92.37 LINE",
"181.25 0 LINE"
);
},
{
closed = 1;
nodes = (
"355.12 794.25 LINE",
"355.12 822.75 LINE",
"422.75 889.12 LINE",
"422.75 949 LINE",
"390.62 982.62 LINE",
"317 982.62 LINE",
"279.37 942.37 LINE",
"295.12 927.62 LINE",
"326.37 961 LINE",
"381.62 961 LINE",
"401.25 940.37 LINE",
"401.25 897.37 LINE",
"333.75 831 LINE",
"333.75 794.25 LINE"
);
}
);
width = 684;
}
);
note = uni1EE6;
unicode = 1EE6;
},
{
glyphname = Uhorn;
lastChange = "2019-09-03 16:17:47 +0000";
layers = (
{
hints = (
{
horizontal = 1;
place = "{0, 22}";
type = Stem;
},
{
horizontal = 1;
place = "{633.62, 21.5}";
type = Stem;
},
{
place = "{90, 22}";
type = Stem;
},
{
place = "{571.75, 22}";
type = Stem;
}
);
layerId = "0A44E515-E956-4F85-8EFC-D1601816D0DE";
paths = (
{
closed = 1;
nodes = (
"502.5 0 LINE",
"593.75 92.37 LINE",
"593.75 633.62 LINE",
"657.25 633.62 LINE",
"702.37 803 LINE",
"677 803 LINE",
"642.62 655.12 LINE",
"593.75 655.12 LINE",
"593.75 737 LINE",
"571.75 737 LINE",
"571.75 99 LINE",
"495.87 22 LINE",
"187.87 22 LINE",
"112 99 LINE",
"112 737 LINE",
"90 737 LINE",
"90 92.37 LINE",
"181.25 0 LINE"
);
}
);
width = 684;
}
);
note = Uhorn;
unicode = 01AF;
},
{
glyphname = uni1EE8;
lastChange = "2019-09-03 16:17:47 +0000";
layers = (
{
hints = (
{
horizontal = 1;
place = "{0, 22}";
type = Stem;
},
{
horizontal = 1;
place = "{633.62, 21.5}";
type = Stem;
},
{
place = "{90, 22}";
type = Stem;
},
{
place = "{571.75, 22}";
type = Stem;
}
);
layerId = "0A44E515-E956-4F85-8EFC-D1601816D0DE";
paths = (
{
closed = 1;
nodes = (
"502.5 0 LINE",
"593.75 92.37 LINE",
"593.75 633.62 LINE",
"657.25 633.62 LINE",
"702.37 803 LINE",
"677 803 LINE",
"642.62 655.12 LINE",
"593.75 655.12 LINE",
"593.75 737 LINE",
"571.75 737 LINE",
"571.75 99 LINE",
"495.87 22 LINE",
"187.87 22 LINE",
"112 99 LINE",
"112 737 LINE",
"90 737 LINE",
"90 92.37 LINE",
"181.25 0 LINE"
);
},
{
closed = 1;
nodes = (
"354.25 794.25 LINE",
"448.87 932.75 LINE",
"418.12 932.75 LINE",
"333.37 794.25 LINE"
);
}
);
width = 684;
}
);
note = uni1EE8;
unicode = 1EE8;
},
{
glyphname = uni1EF0;
lastChange = "2019-09-03 16:17:47 +0000";
layers = (
{
hints = (
{
horizontal = 1;
place = "{-160.63, 103.38}";
type = Stem;
},
{
horizontal = 1;
place = "{0, 22}";
type = Stem;
},
{
horizontal = 1;
place = "{633.62, 21.5}";
type = Stem;
},
{
place = "{90, 22}";
type = Stem;
},
{
place = "{330.87, 22}";
type = Stem;
},
{
place = "{571.75, 22}";
type = Stem;
}
);
layerId = "0A44E515-E956-4F85-8EFC-D1601816D0DE";
paths = (
{
closed = 1;
nodes = (
"502.5 0 LINE",
"593.75 92.37 LINE",
"593.75 633.62 LINE",
"657.25 633.62 LINE",
"702.37 803 LINE",
"677 803 LINE",
"642.62 655.12 LINE",
"593.75 655.12 LINE",
"593.75 737 LINE",
"571.75 737 LINE",
"571.75 99 LINE",
"495.87 22 LINE",
"187.87 22 LINE",
"112 99 LINE",
"112 737 LINE",
"90 737 LINE",
"90 92.37 LINE",
"181.25 0 LINE"
);
},
{
closed = 1;
nodes = (
"352.87 -160.63 LINE",
"352.87 -57.25 LINE",
"330.87 -57.25 LINE",
"330.87 -160.63 LINE"
);
}
);
width = 684;
}
);
note = uni1EF0;
unicode = 1EF0;
},
{
glyphname = uni1EEA;
lastChange = "2019-09-03 16:17:47 +0000";
layers = (
{
hints = (
{
horizontal = 1;
place = "{0, 22}";
type = Stem;
},
{
horizontal = 1;
place = "{633.62, 21.5}";
type = Stem;
},
{
place = "{90, 22}";
type = Stem;
},
{
place = "{571.75, 22}";
type = Stem;
}
);
layerId = "0A44E515-E956-4F85-8EFC-D1601816D0DE";
paths = (
{
closed = 1;
nodes = (
"502.5 0 LINE",
"593.75 92.37 LINE",
"593.75 633.62 LINE",
"657.25 633.62 LINE",
"702.37 803 LINE",
"677 803 LINE",
"642.62 655.12 LINE",
"593.75 655.12 LINE",
"593.75 737 LINE",
"571.75 737 LINE",
"571.75 99 LINE",
"495.87 22 LINE",
"187.87 22 LINE",
"112 99 LINE",
"112 737 LINE",
"90 737 LINE",
"90 92.37 LINE",
"181.25 0 LINE"
);
},
{
closed = 1;
nodes = (
"349.87 794.25 LINE",
"265.12 932.75 LINE",
"234.37 932.75 LINE",
"329 794.25 LINE"
);
}
);
width = 684;
}
);
note = uni1EEA;
unicode = 1EEA;
},
{
glyphname = uni1EEC;
lastChange = "2019-09-03 16:17:47 +0000";
layers = (
{
hints = (
{
horizontal = 1;
place = "{0, 22}";
type = Stem;
},
{
horizontal = 1;
place = "{633.62, 21.5}";
type = Stem;
},
{
horizontal = 1;
place = "{794.25, 36.75}";
type = Stem;
},
{
horizontal = 1;
place = "{961, 21.62}";
type = Stem;
},
{
place = "{90, 22}";
type = Stem;
},
{
place = "{333.75, 21.37}";
type = Stem;
},
{
place = "{401.25, 21.5}";
type = Stem;
},
{
place = "{571.75, 22}";
type = Stem;
}
);
layerId = "0A44E515-E956-4F85-8EFC-D1601816D0DE";
paths = (
{
closed = 1;
nodes = (
"502.5 0 LINE",
"593.75 92.37 LINE",
"593.75 633.62 LINE",
"657.25 633.62 LINE",
"702.37 803 LINE",
"677 803 LINE",
"642.62 655.12 LINE",
"593.75 655.12 LINE",
"593.75 737 LINE",
"571.75 737 LINE",
"571.75 99 LINE",
"495.87 22 LINE",
"187.87 22 LINE",
"112 99 LINE",
"112 737 LINE",
"90 737 LINE",
"90 92.37 LINE",
"181.25 0 LINE"
);
},
{
closed = 1;
nodes = (
"355.12 794.25 LINE",
"355.12 822.75 LINE",
"422.75 889.12 LINE",
"422.75 949 LINE",
"390.62 982.62 LINE",
"317 982.62 LINE",
"279.37 942.37 LINE",
"295.12 927.62 LINE",
"326.37 961 LINE",
"381.62 961 LINE",
"401.25 940.37 LINE",
"401.25 897.37 LINE",
"333.75 831 LINE",
"333.75 794.25 LINE"
);
}
);
width = 684;
}
);
note = uni1EEC;
unicode = 1EEC;
},
{
glyphname = uni1EEE;
lastChange = "2019-09-03 16:17:47 +0000";
layers = (
{
hints = (
{
horizontal = 1;
place = "{0, 22}";
type = Stem;
},
{
horizontal = 1;
place = "{633.62, 21.5}";
type = Stem;
},
{
horizontal = 1;
place = "{794.25, 20.87}";
type = Stem;
},
{
horizontal = 1;
place = "{871.25, 20.87}";
type = Stem;
},
{
place = "{90, 22}";
type = Stem;
},
{
place = "{198.37, 16.5}";
type = Stem;
},
{
place = "{467.87, 16.5}";
type = Stem;
},
{
place = "{571.75, 22}";
type = Stem;
}
);
layerId = "0A44E515-E956-4F85-8EFC-D1601816D0DE";
paths = (
{
closed = 1;
nodes = (
"502.5 0 LINE",
"593.75 92.37 LINE",
"593.75 633.62 LINE",
"657.25 633.62 LINE",
"702.37 803 LINE",
"677 803 LINE",
"642.62 655.12 LINE",
"593.75 655.12 LINE",
"593.75 737 LINE",
"571.75 737 LINE",
"571.75 99 LINE",
"495.87 22 LINE",
"187.87 22 LINE",
"112 99 LINE",
"112 737 LINE",
"90 737 LINE",
"90 92.37 LINE",
"181.25 0 LINE"
);
},
{
closed = 1;
nodes = (
"213.25 794.25 LINE",
"216.5 834.87 LINE",
"256.12 871.25 LINE",
"305.62 871.25 LINE",
"381.5 794.25 LINE",
"435.37 794.25 LINE",
"483.87 843.75 LINE",
"484.87 892.12 LINE",
"469.5 892.12 LINE",
"466.25 851.37 LINE",
"426.62 815.12 LINE",
"390.37 815.12 LINE",
"314.37 892.12 LINE",
"247.37 892.12 LINE",
"198.87 842.62 LINE",
"197.87 794.25 LINE"
);
}
);
width = 684;
}
);
note = uni1EEE;
unicode = 1EEE;
},
{
glyphname = Uhungarumlaut;
lastChange = "2019-09-03 16:17:47 +0000";
layers = (
{
hints = (
{
horizontal = 1;
place = "{0, 22}";
type = Stem;
},
{
horizontal = 1;
place = "{794.25, 138.5}";
type = Stem;
},
{
place = "{90, 22}";
type = Stem;
},
{
place = "{571.75, 22}";
type = Stem;
}
);
layerId = "0A44E515-E956-4F85-8EFC-D1601816D0DE";
paths = (
{
closed = 1;
nodes = (
"502.5 0 LINE",
"593.75 92.37 LINE",
"593.75 737 LINE",
"571.75 737 LINE",
"571.75 99 LINE",
"495.87 22 LINE",
"187.87 22 LINE",
"112 99 LINE",
"112 737 LINE",
"90 737 LINE",
"90 92.37 LINE",
"181.25 0 LINE"
);
},
{
closed = 1;
nodes = (
"290.12 794.25 LINE",
"384.75 932.75 LINE",
"354 932.75 LINE",
"269.25 794.25 LINE"
);
},
{
closed = 1;
nodes = (
"400.12 794.25 LINE",
"494.75 932.75 LINE",
"464 932.75 LINE",
"379.25 794.25 LINE"
);
}
);
width = 684;
}
);
note = Uhungarumlaut;
unicode = 0170;
},
{
glyphname = uni0216;
lastChange = "2019-09-03 16:17:47 +0000";
layers = (
{
hints = (
{
horizontal = 1;
place = "{0, 22}";
type = Stem;
},
{
horizontal = 1;
place = "{889.87, 20.88}";
type = Stem;
},
{
place = "{90, 22}";
type = Stem;
},
{
place = "{229.62, 21}";
type = Stem;
},
{
place = "{433.12, 21}";
type = Stem;
},
{
place = "{571.75, 22}";
type = Stem;
}
);
layerId = "0A44E515-E956-4F85-8EFC-D1601816D0DE";
paths = (
{
closed = 1;
nodes = (
"502.5 0 LINE",
"593.75 92.37 LINE",
"593.75 737 LINE",
"571.75 737 LINE",
"571.75 99 LINE",
"495.87 22 LINE",
"187.87 22 LINE",
"112 99 LINE",
"112 737 LINE",
"90 737 LINE",
"90 92.37 LINE",
"181.25 0 LINE"
);
},
{
closed = 1;
nodes = (
"250.62 794.25 LINE",
"250.62 854.75 LINE",
"285.75 889.87 LINE",
"398 889.87 LINE",
"433.12 854.75 LINE",
"433.12 794.25 LINE",
"454.12 794.25 LINE",
"454.12 861.25 LINE",
"404.62 910.75 LINE",
"279.12 910.75 LINE",
"229.62 861.25 LINE",
"229.62 794.25 LINE"
);
}
);
width = 684;
}
);
note = uni0216;
unicode = 0216;
},
{
glyphname = Umacron;
lastChange = "2019-09-03 16:17:47 +0000";
layers = (
{
hints = (
{
horizontal = 1;
place = "{0, 22}";
type = Stem;
},
{
horizontal = 1;
place = "{794.25, 20.87}";
type = Stem;
},
{
place = "{90, 22}";
type = Stem;
},
{
place = "{571.75, 22}";
type = Stem;
}
);
layerId = "0A44E515-E956-4F85-8EFC-D1601816D0DE";
paths = (
{
closed = 1;
nodes = (
"502.5 0 LINE",
"593.75 92.37 LINE",
"593.75 737 LINE",
"571.75 737 LINE",
"571.75 99 LINE",
"495.87 22 LINE",
"187.87 22 LINE",
"112 99 LINE",
"112 737 LINE",
"90 737 LINE",
"90 92.37 LINE",
"181.25 0 LINE"
);
},
{
closed = 1;
nodes = (
"486 794.25 LINE",
"486 815.12 LINE",
"197.75 815.12 LINE",
"197.75 794.25 LINE"
);
}
);
width = 684;
}
);
note = Umacron;
unicode = 016A;
},
{
glyphname = Uogonek;
lastChange = "2019-09-03 16:17:47 +0000";
layers = (
{
hints = (
{
horizontal = 1;
place = "{-138.63, 22}";
type = Stem;
},
{
horizontal = 1;
place = "{0, 22}";
type = Stem;
},
{
place = "{90, 22}";
type = Stem;
},
{
place = "{310, 22}";
type = Stem;
},
{
place = "{571.75, 22}";
type = Stem;
},
{
place = "{357.25, 28.62}";
type = Stem;
}
);
layerId = "0A44E515-E956-4F85-8EFC-D1601816D0DE";
paths = (
{
closed = 1;
nodes = (
"385.87 -138.63 LINE",
"385.87 -116.63 LINE",
"363.87 -116.63 LINE",
"332 -84.75 LINE",
"332 -42.63 LINE",
"385.87 0 LINE",
"502.5 0 LINE",
"593.75 92.37 LINE",
"593.75 737 LINE",
"571.75 737 LINE",
"571.75 99 LINE",
"495.87 22 LINE",
"187.87 22 LINE",
"112 99 LINE",
"112 737 LINE",
"90 737 LINE",
"90 92.37 LINE",
"181.25 0 LINE",
"351.75 0 LINE",
"310 -33 LINE",
"310 -91.25 LINE",
"357.25 -138.63 LINE"
);
}
);
width = 684;
}
);
note = Uogonek;
unicode = 0172;
},
{
glyphname = Uring;
lastChange = "2019-09-03 16:17:47 +0000";
layers = (
{
hints = (
{
horizontal = 1;
place = "{0, 22}";
type = Stem;
},
{
horizontal = 1;
place = "{794.25, 20.87}";
type = Stem;
},
{
horizontal = 1;
place = "{940.5, 20.87}";
type = Stem;
},
{
place = "{90, 22}";
type = Stem;
},
{
place = "{258.25, 20.87}";
type = Stem;
},
{
place = "{404.62, 20.88}";
type = Stem;
},
{
place = "{571.75, 22}";
type = Stem;
}
);
layerId = "0A44E515-E956-4F85-8EFC-D1601816D0DE";
paths = (
{
closed = 1;
nodes = (
"502.5 0 LINE",
"593.75 92.37 LINE",
"593.75 737 LINE",
"571.75 737 LINE",
"571.75 99 LINE",
"495.87 22 LINE",
"187.87 22 LINE",
"112 99 LINE",
"112 737 LINE",
"90 737 LINE",
"90 92.37 LINE",
"181.25 0 LINE"
);
},
{
closed = 1;
nodes = (
"376 794.25 LINE",
"425.5 843.75 LINE",
"425.5 911.87 LINE",
"376 961.37 LINE",
"307.75 961.37 LINE",
"258.25 911.87 LINE",
"258.25 843.75 LINE",
"307.75 794.25 LINE"
);
},
{
closed = 1;
nodes = (
"279.12 850.25 LINE",
"279.12 905.25 LINE",
"314.37 940.5 LINE",
"369.37 940.5 LINE",
"404.62 905.25 LINE",
"404.62 850.25 LINE",
"369.37 815.12 LINE",
"314.37 815.12 LINE"
);
}
);
width = 684;
}
);
note = Uring;
unicode = 016E;
},
{
glyphname = Utilde;
lastChange = "2019-09-03 16:17:47 +0000";
layers = (
{
hints = (
{
horizontal = 1;
place = "{0, 22}";
type = Stem;
},
{
horizontal = 1;
place = "{794.25, 20.87}";
type = Stem;
},
{
horizontal = 1;
place = "{871.25, 20.87}";
type = Stem;
},
{
place = "{90, 22}";
type = Stem;
},
{
place = "{198.37, 16.5}";
type = Stem;
},
{
place = "{467.87, 16.5}";
type = Stem;
},
{
place = "{571.75, 22}";
type = Stem;
}
);
layerId = "0A44E515-E956-4F85-8EFC-D1601816D0DE";
paths = (
{
closed = 1;
nodes = (
"502.5 0 LINE",
"593.75 92.37 LINE",
"593.75 737 LINE",
"571.75 737 LINE",
"571.75 99 LINE",
"495.87 22 LINE",
"187.87 22 LINE",
"112 99 LINE",
"112 737 LINE",
"90 737 LINE",
"90 92.37 LINE",
"181.25 0 LINE"
);
},
{
closed = 1;
nodes = (
"213.25 794.25 LINE",
"216.5 834.87 LINE",
"256.12 871.25 LINE",
"305.62 871.25 LINE",
"381.5 794.25 LINE",
"435.37 794.25 LINE",
"483.87 843.75 LINE",
"484.87 892.12 LINE",
"469.5 892.12 LINE",
"466.25 851.37 LINE",
"426.62 815.12 LINE",
"390.37 815.12 LINE",
"314.37 892.12 LINE",
"247.37 892.12 LINE",
"198.87 842.62 LINE",
"197.87 794.25 LINE"
);
}
);
width = 684;
}
);
note = Utilde;
unicode = 0168;
},
{
glyphname = V;
lastChange = "2019-10-05 19:31:46 +0000";
layers = (
{
hints = (
{
horizontal = 1;
place = "{0, 22}";
type = Stem;
},
{
place = "{20, 586}";
type = Stem;
}
);
layerId = "0A44E515-E956-4F85-8EFC-D1601816D0DE";
paths = (
{
closed = 1;
nodes = (
"336.5 0 LINE",
"606 737 LINE",
"584.37 737 LINE",
"322.62 22 LINE",
"302.87 22 LINE",
"41 737 LINE",
"20 737 LINE",
"288.37 0 LINE"
);
}
);
width = 626;
}
);
leftKerningGroup = V;
note = V;
rightKerningGroup = V;
unicode = 0056;
},
{
glyphname = W;
lastChange = "2019-09-03 16:17:47 +0000";
layers = (
{
hints = (
{
horizontal = 1;
place = "{0, 22}";
type = Stem;
},
{
horizontal = 1;
place = "{701.75, 35.25}";
type = Stem;
},
{
place = "{20, 852}";
type = Stem;
}
);
layerId = "0A44E515-E956-4F85-8EFC-D1601816D0DE";
paths = (
{
closed = 1;
nodes = (
"274.75 0 LINE",
"445.87 701.75 LINE",
"617.5 0 LINE",
"667.37 0 LINE",
"872 737 LINE",
"850.62 737 LINE",
"652.62 22 LINE",
"632.87 22 LINE",
"458 737 LINE",
"433.75 737 LINE",
"258.87 22 LINE",
"239.12 22 LINE",
"41.12 737 LINE",
"20 737 LINE",
"224.62 0 LINE"
);
}
);
width = 892;
}
);
leftKerningGroup = W;
note = W;
rightKerningGroup = W;
unicode = 0057;
},
{
glyphname = Wacute;
lastChange = "2019-09-03 16:17:47 +0000";
layers = (
{
hints = (
{
horizontal = 1;
place = "{0, 22}";
type = Stem;
},
{
horizontal = 1;
place = "{701.75, 35.25}";
type = Stem;
},
{
place = "{20, 852}";
type = Stem;
}
);
layerId = "0A44E515-E956-4F85-8EFC-D1601816D0DE";
paths = (
{
closed = 1;
nodes = (
"274.75 0 LINE",
"445.87 701.75 LINE",
"617.5 0 LINE",
"667.37 0 LINE",
"872 737 LINE",
"850.62 737 LINE",
"652.62 22 LINE",
"632.87 22 LINE",
"458 737 LINE",
"433.75 737 LINE",
"258.87 22 LINE",
"239.12 22 LINE",
"41.12 737 LINE",
"20 737 LINE",
"224.62 0 LINE"
);
},
{
closed = 1;
nodes = (
"458.25 794.25 LINE",
"552.87 932.75 LINE",
"522.12 932.75 LINE",
"437.37 794.25 LINE"
);
}
);
width = 892;
}
);
leftKerningGroup = W;
note = Wacute;
rightKerningGroup = W;
unicode = 1E82;
},
{
glyphname = Wcircumflex;
lastChange = "2019-09-03 16:17:47 +0000";
layers = (
{
hints = (
{
horizontal = 1;
place = "{0, 22}";
type = Stem;
},
{
horizontal = 1;
place = "{701.75, 35.25}";
type = Stem;
},
{
horizontal = 1;
place = "{911.87, 19.88}";
type = Stem;
},
{
place = "{20, 852}";
type = Stem;
}
);
layerId = "0A44E515-E956-4F85-8EFC-D1601816D0DE";
paths = (
{
closed = 1;
nodes = (
"274.75 0 LINE",
"445.87 701.75 LINE",
"617.5 0 LINE",
"667.37 0 LINE",
"872 737 LINE",
"850.62 737 LINE",
"652.62 22 LINE",
"632.87 22 LINE",
"458 737 LINE",
"433.75 737 LINE",
"258.87 22 LINE",
"239.12 22 LINE",
"41.12 737 LINE",
"20 737 LINE",
"224.62 0 LINE"
);
},
{
closed = 1;
nodes = (
"340.25 794.25 LINE",
"437.12 911.87 LINE",
"454.62 911.87 LINE",
"551.5 794.25 LINE",
"573.5 794.25 LINE",
"469 931.75 LINE",
"422.75 931.75 LINE",
"318.25 794.25 LINE"
);
}
);
width = 892;
}
);
leftKerningGroup = W;
note = Wcircumflex;
rightKerningGroup = W;
unicode = 0174;
},
{
glyphname = Wdieresis;
lastChange = "2019-09-03 16:17:47 +0000";
layers = (
{
hints = (
{
horizontal = 1;
place = "{0, 22}";
type = Stem;
},
{
horizontal = 1;
place = "{701.75, 35.25}";
type = Stem;
},
{
horizontal = 1;
place = "{794.25, 103.5}";
type = Stem;
},
{
place = "{301.75, 22}";
type = Stem;
},
{
place = "{568, 22}";
type = Stem;
}
);
layerId = "0A44E515-E956-4F85-8EFC-D1601816D0DE";
paths = (
{
closed = 1;
nodes = (
"274.75 0 LINE",
"445.87 701.75 LINE",
"617.5 0 LINE",
"667.37 0 LINE",
"872 737 LINE",
"850.62 737 LINE",
"652.62 22 LINE",
"632.87 22 LINE",
"458 737 LINE",
"433.75 737 LINE",
"258.87 22 LINE",
"239.12 22 LINE",
"41.12 737 LINE",
"20 737 LINE",
"224.62 0 LINE"
);
},
{
closed = 1;
nodes = (
"323.75 794.25 LINE",
"323.75 897.75 LINE",
"301.75 897.75 LINE",
"301.75 794.25 LINE"
);
},
{
closed = 1;
nodes = (
"590 794.25 LINE",
"590 897.75 LINE",
"568 897.75 LINE",
"568 794.25 LINE"
);
}
);
width = 892;
}
);
leftKerningGroup = W;
note = Wdieresis;
rightKerningGroup = W;
unicode = 1E84;
},
{
glyphname = Wgrave;
lastChange = "2019-09-03 16:17:47 +0000";
layers = (
{
hints = (
{
horizontal = 1;
place = "{0, 22}";
type = Stem;
},
{
horizontal = 1;
place = "{701.75, 35.25}";
type = Stem;
},
{
place = "{20, 852}";
type = Stem;
}
);
layerId = "0A44E515-E956-4F85-8EFC-D1601816D0DE";
paths = (
{
closed = 1;
nodes = (
"274.75 0 LINE",
"445.87 701.75 LINE",
"617.5 0 LINE",
"667.37 0 LINE",
"872 737 LINE",
"850.62 737 LINE",
"652.62 22 LINE",
"632.87 22 LINE",
"458 737 LINE",
"433.75 737 LINE",
"258.87 22 LINE",
"239.12 22 LINE",
"41.12 737 LINE",
"20 737 LINE",
"224.62 0 LINE"
);
},
{
closed = 1;
nodes = (
"453.87 794.25 LINE",
"369.12 932.75 LINE",
"338.37 932.75 LINE",
"433 794.25 LINE"
);
}
);
width = 892;
}
);
leftKerningGroup = W;
note = Wgrave;
rightKerningGroup = W;
unicode = 1E80;
},
{
glyphname = X;
lastChange = "2019-09-03 16:17:47 +0000";
layers = (
{
hints = (
{
horizontal = 1;
place = "{357.5, 22}";
type = Stem;
},
{
place = "{20, 528}";
type = Stem;
}
);
layerId = "0A44E515-E956-4F85-8EFC-D1601816D0DE";
paths = (
{
closed = 1;
nodes = (
"44.5 0 LINE",
"273.25 357.5 LINE",
"295 357.5 LINE",
"523.75 0 LINE",
"548 0 LINE",
"311.5 368.5 LINE",
"548 737 LINE",
"523.12 737 LINE",
"294.25 379.5 LINE",
"273 379.5 LINE",
"44.25 737 LINE",
"20 737 LINE",
"256.5 368.5 LINE",
"20 0 LINE"
);
}
);
width = 568;
}
);
leftKerningGroup = X;
note = X;
rightKerningGroup = X;
unicode = 0058;
},
{
glyphname = Y;
lastChange = "2019-09-03 16:17:47 +0000";
layers = (
{
hints = (
{
horizontal = 1;
place = "{0, 737}";
type = Stem;
},
{
place = "{277.37, 22}";
type = Stem;
}
);
layerId = "0A44E515-E956-4F85-8EFC-D1601816D0DE";
paths = (
{
closed = 1;
nodes = (
"299.37 0 LINE",
"299.37 344.12 LINE",
"557.37 737 LINE",
"532.5 737 LINE",
"293.87 372.87 LINE",
"282.87 372.87 LINE",
"44.12 737 LINE",
"20 737 LINE",
"277.37 345.37 LINE",
"277.37 0 LINE"
);
}
);
width = 577;
}
);
leftKerningGroup = Y;
note = Y;
rightKerningGroup = Y;
unicode = 0059;
},
{
glyphname = Yacute;
lastChange = "2019-09-03 16:17:47 +0000";
layers = (
{
hints = (
{
horizontal = 1;
place = "{0, 932.25}";
type = Stem;
},
{
place = "{277.37, 22}";
type = Stem;
}
);
layerId = "0A44E515-E956-4F85-8EFC-D1601816D0DE";
paths = (
{
closed = 1;
nodes = (
"299.37 0 LINE",
"299.37 344.12 LINE",
"557.37 737 LINE",
"532.5 737 LINE",
"293.87 372.87 LINE",
"282.87 372.87 LINE",
"44.12 737 LINE",
"20 737 LINE",
"277.37 345.37 LINE",
"277.37 0 LINE"
);
},
{
closed = 1;
nodes = (
"301.12 793.75 LINE",
"395.75 932.25 LINE",
"365 932.25 LINE",
"280.25 793.75 LINE"
);
}
);
width = 577;
}
);
leftKerningGroup = Y;
note = Yacute;
rightKerningGroup = Y;
unicode = 00DD;
},
{
glyphname = Ycircumflex;
lastChange = "2019-09-03 16:17:47 +0000";
layers = (
{
hints = (
{
horizontal = 1;
place = "{911.37, 19.88}";
type = Stem;
},
{
place = "{277.37, 22}";
type = Stem;
}
);
layerId = "0A44E515-E956-4F85-8EFC-D1601816D0DE";
paths = (
{
closed = 1;
nodes = (
"299.37 0 LINE",
"299.37 344.12 LINE",
"557.37 737 LINE",
"532.5 737 LINE",
"293.87 372.87 LINE",
"282.87 372.87 LINE",
"44.12 737 LINE",
"20 737 LINE",
"277.37 345.37 LINE",
"277.37 0 LINE"
);
},
{
closed = 1;
nodes = (
"183.12 793.75 LINE",
"280 911.37 LINE",
"297.5 911.37 LINE",
"394.37 793.75 LINE",
"416.37 793.75 LINE",
"311.87 931.25 LINE",
"265.62 931.25 LINE",
"161.12 793.75 LINE"
);
}
);
width = 577;
}
);
leftKerningGroup = Y;
note = Ycircumflex;
rightKerningGroup = Y;
unicode = 0176;
},
{
glyphname = Ydieresis;
lastChange = "2019-09-03 16:17:47 +0000";
layers = (
{
hints = (
{
horizontal = 1;
place = "{793.75, 103.5}";
type = Stem;
},
{
place = "{144.62, 22}";
type = Stem;
},
{
place = "{277.37, 22}";
type = Stem;
},
{
place = "{410.87, 22}";
type = Stem;
}
);
layerId = "0A44E515-E956-4F85-8EFC-D1601816D0DE";
paths = (
{
closed = 1;
nodes = (
"299.37 0 LINE",
"299.37 344.12 LINE",
"557.37 737 LINE",
"532.5 737 LINE",
"293.87 372.87 LINE",
"282.87 372.87 LINE",
"44.12 737 LINE",
"20 737 LINE",
"277.37 345.37 LINE",
"277.37 0 LINE"
);
},
{
closed = 1;
nodes = (
"166.62 793.75 LINE",
"166.62 897.25 LINE",
"144.62 897.25 LINE",
"144.62 793.75 LINE"
);
},
{
closed = 1;
nodes = (
"432.87 793.75 LINE",
"432.87 897.25 LINE",
"410.87 897.25 LINE",
"410.87 793.75 LINE"
);
}
);
width = 577;
}
);
leftKerningGroup = Y;
note = Ydieresis;
rightKerningGroup = Y;
unicode = 0178;
},
{
glyphname = uni1EF4;
lastChange = "2019-09-03 16:17:47 +0000";
layers = (
{
hints = (
{
horizontal = 1;
place = "{-160.63, 103.38}";
type = Stem;
},
{
place = "{277.37, 22}";
type = Stem;
}
);
layerId = "0A44E515-E956-4F85-8EFC-D1601816D0DE";
paths = (
{
closed = 1;
nodes = (
"299.37 0 LINE",
"299.37 344.12 LINE",
"557.37 737 LINE",
"532.5 737 LINE",
"293.87 372.87 LINE",
"282.87 372.87 LINE",
"44.12 737 LINE",
"20 737 LINE",
"277.37 345.37 LINE",
"277.37 0 LINE"
);
},
{
closed = 1;
nodes = (
"299.75 -160.63 LINE",
"299.75 -57.25 LINE",
"277.75 -57.25 LINE",
"277.75 -160.63 LINE"
);
}
);
width = 577;
}
);
leftKerningGroup = Y;
note = uni1EF4;
rightKerningGroup = Y;
unicode = 1EF4;
},
{
glyphname = Ygrave;
lastChange = "2019-09-03 16:17:47 +0000";
layers = (
{
hints = (
{
horizontal = 1;
place = "{0, 932.25}";
type = Stem;
},
{
place = "{277.37, 22}";
type = Stem;
}
);
layerId = "0A44E515-E956-4F85-8EFC-D1601816D0DE";
paths = (
{
closed = 1;
nodes = (
"299.37 0 LINE",
"299.37 344.12 LINE",
"557.37 737 LINE",
"532.5 737 LINE",
"293.87 372.87 LINE",
"282.87 372.87 LINE",
"44.12 737 LINE",
"20 737 LINE",
"277.37 345.37 LINE",
"277.37 0 LINE"
);
},
{
closed = 1;
nodes = (
"296.75 793.75 LINE",
"212 932.25 LINE",
"181.25 932.25 LINE",
"275.87 793.75 LINE"
);
}
);
width = 577;
}
);
leftKerningGroup = Y;
note = Ygrave;
rightKerningGroup = Y;
unicode = 1EF2;
},
{
glyphname = uni1EF6;
lastChange = "2019-09-03 16:17:47 +0000";
layers = (
{
hints = (
{
horizontal = 1;
place = "{793.75, 36.75}";
type = Stem;
},
{
horizontal = 1;
place = "{960.5, 21.62}";
type = Stem;
},
{
place = "{280.62, 21.38}";
type = Stem;
},
{
place = "{348.12, 21.5}";
type = Stem;
},
{
place = "{277.37, 22}";
type = Stem;
}
);
layerId = "0A44E515-E956-4F85-8EFC-D1601816D0DE";
paths = (
{
closed = 1;
nodes = (
"299.37 0 LINE",
"299.37 344.12 LINE",
"557.37 737 LINE",
"532.5 737 LINE",
"293.87 372.87 LINE",
"282.87 372.87 LINE",
"44.12 737 LINE",
"20 737 LINE",
"277.37 345.37 LINE",
"277.37 0 LINE"
);
},
{
closed = 1;
nodes = (
"302 793.75 LINE",
"302 822.25 LINE",
"369.62 888.62 LINE",
"369.62 948.5 LINE",
"337.5 982.12 LINE",
"263.87 982.12 LINE",
"226.25 941.87 LINE",
"242 927.12 LINE",
"273.25 960.5 LINE",
"328.5 960.5 LINE",
"348.12 939.87 LINE",
"348.12 896.87 LINE",
"280.62 830.5 LINE",
"280.62 793.75 LINE"
);
}
);
width = 577;
}
);
leftKerningGroup = Y;
note = uni1EF6;
rightKerningGroup = Y;
unicode = 1EF6;
},
{
glyphname = uni0232;
lastChange = "2019-09-03 16:17:47 +0000";
layers = (
{
hints = (
{
horizontal = 1;
place = "{793.75, 20.87}";
type = Stem;
},
{
place = "{277.37, 22}";
type = Stem;
}
);
layerId = "0A44E515-E956-4F85-8EFC-D1601816D0DE";
paths = (
{
closed = 1;
nodes = (
"299.37 0 LINE",
"299.37 344.12 LINE",
"557.37 737 LINE",
"532.5 737 LINE",
"293.87 372.87 LINE",
"282.87 372.87 LINE",
"44.12 737 LINE",
"20 737 LINE",
"277.37 345.37 LINE",
"277.37 0 LINE"
);
},
{
closed = 1;
nodes = (
"432.87 793.75 LINE",
"432.87 814.62 LINE",
"144.62 814.62 LINE",
"144.62 793.75 LINE"
);
}
);
width = 577;
}
);
leftKerningGroup = Y;
note = uni0232;
rightKerningGroup = Y;
unicode = 0232;
},
{
glyphname = uni1EF8;
lastChange = "2019-09-03 16:17:47 +0000";
layers = (
{
hints = (
{
horizontal = 1;
place = "{793.75, 20.87}";
type = Stem;
},
{
horizontal = 1;
place = "{870.75, 20.87}";
type = Stem;
},
{
place = "{145.25, 16.49}";
type = Stem;
},
{
place = "{277.37, 22}";
type = Stem;
},
{
place = "{414.74, 16.51}";
type = Stem;
}
);
layerId = "0A44E515-E956-4F85-8EFC-D1601816D0DE";
paths = (
{
closed = 1;
nodes = (
"299.37 0 LINE",
"299.37 344.12 LINE",
"557.37 737 LINE",
"532.5 737 LINE",
"293.87 372.87 LINE",
"282.87 372.87 LINE",
"44.12 737 LINE",
"20 737 LINE",
"277.37 345.37 LINE",
"277.37 0 LINE"
);
},
{
closed = 1;
nodes = (
"160.12 793.75 LINE",
"163.37 834.37 LINE",
"203 870.75 LINE",
"252.5 870.75 LINE",
"328.37 793.75 LINE",
"382.25 793.75 LINE",
"430.75 843.25 LINE",
"431.75 891.62 LINE",
"416.37 891.62 LINE",
"413.12 850.87 LINE",
"373.5 814.62 LINE",
"337.25 814.62 LINE",
"261.25 891.62 LINE",
"194.25 891.62 LINE",
"145.75 842.12 LINE",
"144.75 793.75 LINE"
);
}
);
width = 577;
}
);
leftKerningGroup = Y;
note = uni1EF8;
rightKerningGroup = Y;
unicode = 1EF8;
},
{
glyphname = Z;
lastChange = "2019-09-03 16:17:47 +0000";
layers = (
{
hints = (
{
horizontal = 1;
place = "{0, 22}";
type = Stem;
},
{
horizontal = 1;
place = "{715, 22}";
type = Stem;
},
{
place = "{95, 22}";
type = Stem;
},
{
place = "{541.62, 22}";
type = Stem;
}
);
layerId = "0A44E515-E956-4F85-8EFC-D1601816D0DE";
paths = (
{
closed = 1;
nodes = (
"578 0 LINE",
"578 22 LINE",
"117 22 LINE",
"117 41.75 LINE",
"563.62 690.75 LINE",
"563.62 737 LINE",
"113.75 737 LINE",
"113.75 715 LINE",
"541.62 715 LINE",
"541.62 695.25 LINE",
"95 46.25 LINE",
"95 0 LINE"
);
}
);
width = 673;
}
);
leftKerningGroup = Z;
note = Z;
rightKerningGroup = uni01C4;
unicode = 005A;
},
{
glyphname = Zacute;
lastChange = "2019-09-03 16:17:47 +0000";
layers = (
{
hints = (
{
horizontal = 1;
place = "{0, 22}";
type = Stem;
},
{
horizontal = 1;
place = "{715, 22}";
type = Stem;
},
{
place = "{95, 22}";
type = Stem;
},
{
place = "{541.62, 22}";
type = Stem;
}
);
layerId = "0A44E515-E956-4F85-8EFC-D1601816D0DE";
paths = (
{
closed = 1;
nodes = (
"578 0 LINE",
"578 22 LINE",
"117 22 LINE",
"117 41.75 LINE",
"563.62 690.75 LINE",
"563.62 737 LINE",
"113.75 737 LINE",
"113.75 715 LINE",
"541.62 715 LINE",
"541.62 695.25 LINE",
"95 46.25 LINE",
"95 0 LINE"
);
},
{
closed = 1;
nodes = (
"366.37 794.25 LINE",
"461 932.75 LINE",
"430.25 932.75 LINE",
"345.5 794.25 LINE"
);
}
);
width = 673;
}
);
leftKerningGroup = Z;
note = Zacute;
rightKerningGroup = uni01C4;
unicode = 0179;
},
{
glyphname = Zcaron;
lastChange = "2019-09-03 16:17:47 +0000";
layers = (
{
hints = (
{
horizontal = 1;
place = "{0, 22}";
type = Stem;
},
{
horizontal = 1;
place = "{715, 22}";
type = Stem;
},
{
horizontal = 1;
place = "{794.25, 19.87}";
type = Stem;
},
{
place = "{95, 22}";
type = Stem;
},
{
place = "{541.62, 22}";
type = Stem;
}
);
layerId = "0A44E515-E956-4F85-8EFC-D1601816D0DE";
paths = (
{
closed = 1;
nodes = (
"578 0 LINE",
"578 22 LINE",
"117 22 LINE",
"117 41.75 LINE",
"563.62 690.75 LINE",
"563.62 737 LINE",
"113.75 737 LINE",
"113.75 715 LINE",
"541.62 715 LINE",
"541.62 695.25 LINE",
"95 46.25 LINE",
"95 0 LINE"
);
},
{
closed = 1;
nodes = (
"376 794.25 LINE",
"480.5 931.75 LINE",
"458.5 931.75 LINE",
"361.62 814.12 LINE",
"344.12 814.12 LINE",
"247.25 931.75 LINE",
"225.25 931.75 LINE",
"329.75 794.25 LINE"
);
}
);
width = 673;
}
);
leftKerningGroup = Z;
note = Zcaron;
rightKerningGroup = uni01C4;
unicode = 017D;
},
{
glyphname = Zdotaccent;
lastChange = "2019-09-03 16:17:47 +0000";
layers = (
{
hints = (
{
horizontal = 1;
place = "{0, 22}";
type = Stem;
},
{
horizontal = 1;
place = "{715, 22}";
type = Stem;
},
{
horizontal = 1;
place = "{794.25, 103.37}";
type = Stem;
},
{
place = "{95, 22}";
type = Stem;
},
{
place = "{343, 22}";
type = Stem;
},
{
place = "{541.62, 22}";
type = Stem;
}
);
layerId = "0A44E515-E956-4F85-8EFC-D1601816D0DE";
paths = (
{
closed = 1;
nodes = (
"578 0 LINE",
"578 22 LINE",
"117 22 LINE",
"117 41.75 LINE",
"563.62 690.75 LINE",
"563.62 737 LINE",
"113.75 737 LINE",
"113.75 715 LINE",
"541.62 715 LINE",
"541.62 695.25 LINE",
"95 46.25 LINE",
"95 0 LINE"
);
},
{
closed = 1;
nodes = (
"365 794.25 LINE",
"365 897.62 LINE",
"343 897.62 LINE",
"343 794.25 LINE"
);
}
);
width = 673;
}
);
leftKerningGroup = Z;
note = Zdotaccent;
rightKerningGroup = uni01C4;
unicode = 017B;
},
{
glyphname = a;
lastChange = "2019-10-07 12:21:21 +0000";
layers = (
{
hints = (
{
horizontal = 1;
place = "{0, 22}";
type = Stem;
},
{
horizontal = 1;
place = "{294.75, 22}";
type = Stem;
},
{
horizontal = 1;
place = "{500.5, 22}";
type = Stem;
},
{
place = "{65, 22}";
type = Stem;
},
{
place = "{447.75, 22}";
type = Stem;
}
);
layerId = "0A44E515-E956-4F85-8EFC-D1601816D0DE";
paths = (
{
closed = 1;
nodes = (
"351.5 0 LINE",
"442.75 92.3 LINE",
"442.75 0 LINE",
"464.75 0 LINE",
"464.75 430.12 LINE",
"373.5 522.5 LINE",
"124.87 522.5 LINE",
"124.87 500.5 LINE",
"366.87 500.5 LINE",
"442.75 423.5 LINE",
"442.75 316.75 LINE",
"151.25 316.75 LINE",
"60 224.37 LINE",
"60 92.37 LINE",
"151.25 0 LINE"
);
},
{
closed = 1;
nodes = (
"82 99 LINE",
"82 217.75 LINE",
"157.87 294.75 LINE",
"442.75 294.75 LINE",
"442.75 118.82 LINE",
"344.87 22 LINE",
"157.87 22 LINE"
);
}
);
width = 555;
}
);
leftKerningGroup = a;
note = a;
rightKerningGroup = a;
unicode = 0061;
},
{
glyphname = aacute;
lastChange = "2019-10-07 12:24:51 +0000";
layers = (
{
hints = (
{
horizontal = 1;
place = "{0, 22}";
type = Stem;
},
{
horizontal = 1;
place = "{294.75, 22}";
type = Stem;
},
{
horizontal = 1;
place = "{500.5, 22}";
type = Stem;
},
{
place = "{65, 22}";
type = Stem;
},
{
place = "{447.75, 22}";
type = Stem;
}
);
layerId = "0A44E515-E956-4F85-8EFC-D1601816D0DE";
paths = (
{
closed = 1;
nodes = (
"351.5 0 LINE",
"442.75 92.3 LINE",
"442.75 0 LINE",
"464.75 0 LINE",
"464.75 430.12 LINE",
"373.5 522.5 LINE",
"124.87 522.5 LINE",
"124.87 500.5 LINE",
"366.87 500.5 LINE",
"442.75 423.5 LINE",
"442.75 316.75 LINE",
"151.25 316.75 LINE",
"60 224.37 LINE",
"60 92.37 LINE",
"151.25 0 LINE"
);
},
{
closed = 1;
nodes = (
"82 99 LINE",
"82 217.75 LINE",
"157.87 294.75 LINE",
"442.75 294.75 LINE",
"442.75 118.82 LINE",
"344.87 22 LINE",
"157.87 22 LINE"
);
},
{
closed = 1;
nodes = (
"296.75 579.75 LINE",
"391.37 718.25 LINE",
"360.62 718.25 LINE",
"275.87 579.75 LINE"
);
}
);
width = 555;
}
);
leftKerningGroup = a;
note = aacute;
rightKerningGroup = a;
unicode = 00E1;
},
{
glyphname = abreve;
lastChange = "2019-10-07 12:24:51 +0000";
layers = (
{
hints = (
{
horizontal = 1;
place = "{0, 22}";
type = Stem;
},
{
horizontal = 1;
place = "{294.75, 22}";
type = Stem;
},
{
horizontal = 1;
place = "{500.5, 22}";
type = Stem;
},
{
horizontal = 1;
place = "{579.75, 20.87}";
type = Stem;
},
{
place = "{65, 22}";
type = Stem;
},
{
place = "{177.12, 21}";
type = Stem;
},
{
place = "{380.62, 21}";
type = Stem;
},
{
place = "{447.75, 22}";
type = Stem;
}
);
layerId = "0A44E515-E956-4F85-8EFC-D1601816D0DE";
paths = (
{
closed = 1;
nodes = (
"351.5 0 LINE",
"442.75 92.3 LINE",
"442.75 0 LINE",
"464.75 0 LINE",
"464.75 430.12 LINE",
"373.5 522.5 LINE",
"124.87 522.5 LINE",
"124.87 500.5 LINE",
"366.87 500.5 LINE",
"442.75 423.5 LINE",
"442.75 316.75 LINE",
"151.25 316.75 LINE",
"60 224.37 LINE",
"60 92.37 LINE",
"151.25 0 LINE"
);
},
{
closed = 1;
nodes = (
"82 99 LINE",
"82 217.75 LINE",
"157.87 294.75 LINE",
"442.75 294.75 LINE",
"442.75 118.82 LINE",
"344.87 22 LINE",
"157.87 22 LINE"
);
},
{
closed = 1;
nodes = (
"347.12 579.75 LINE",
"396.62 629.25 LINE",
"396.62 696.25 LINE",
"375.62 696.25 LINE",
"375.62 635.75 LINE",
"340.5 600.62 LINE",
"228.25 600.62 LINE",
"193.12 635.75 LINE",
"193.12 696.25 LINE",
"172.12 696.25 LINE",
"172.12 629.25 LINE",
"221.62 579.75 LINE"
);
}
);
width = 555;
}
);
leftKerningGroup = a;
note = abreve;
rightKerningGroup = a;
unicode = 0103;
},
{
glyphname = uni1EAF;
lastChange = "2019-10-07 12:24:51 +0000";
layers = (
{
hints = (
{
horizontal = 1;
place = "{0, 22}";
type = Stem;
},
{
horizontal = 1;
place = "{294.75, 22}";
type = Stem;
},
{
horizontal = 1;
place = "{500.5, 22}";
type = Stem;
},
{
horizontal = 1;
place = "{579.75, 20.87}";
type = Stem;
},
{
place = "{65, 22}";
type = Stem;
},
{
place = "{177.12, 21}";
type = Stem;
},
{
place = "{380.62, 21}";
type = Stem;
},
{
place = "{447.75, 22}";
type = Stem;
}
);
layerId = "0A44E515-E956-4F85-8EFC-D1601816D0DE";
paths = (
{
closed = 1;
nodes = (
"351.5 0 LINE",
"442.75 92.3 LINE",
"442.75 0 LINE",
"464.75 0 LINE",
"464.75 430.12 LINE",
"373.5 522.5 LINE",
"124.87 522.5 LINE",
"124.87 500.5 LINE",
"366.87 500.5 LINE",
"442.75 423.5 LINE",
"442.75 316.75 LINE",
"151.25 316.75 LINE",
"60 224.37 LINE",
"60 92.37 LINE",
"151.25 0 LINE"
);
},
{
closed = 1;
nodes = (
"82 99 LINE",
"82 217.75 LINE",
"157.87 294.75 LINE",
"442.75 294.75 LINE",
"442.75 118.82 LINE",
"344.87 22 LINE",
"157.87 22 LINE"
);
},
{
closed = 1;
nodes = (
"347.12 579.75 LINE",
"396.62 629.25 LINE",
"396.62 696.25 LINE",
"375.62 696.25 LINE",
"375.62 635.75 LINE",
"340.5 600.62 LINE",
"228.25 600.62 LINE",
"193.12 635.75 LINE",
"193.12 696.25 LINE",
"172.12 696.25 LINE",
"172.12 629.25 LINE",
"221.62 579.75 LINE"
);
},
{
closed = 1;
nodes = (
"294.37 717.25 LINE",
"389 855.75 LINE",
"358.25 855.75 LINE",
"273.5 717.25 LINE"
);
}
);
width = 555;
}
);
leftKerningGroup = a;
note = uni1EAF;
rightKerningGroup = a;
unicode = 1EAF;
},
